G04 #@! TF.GenerationSoftware,KiCad,Pcbnew,(5.99.0-11424-g2f41dd4074)*
G04 #@! TF.CreationDate,2021-09-18T21:26:06+03:00*
G04 #@! TF.ProjectId,goldfish,676f6c64-6669-4736-982e-6b696361645f,C*
G04 #@! TF.SameCoordinates,Original*
G04 #@! TF.FileFunction,Copper,L2,Bot*
G04 #@! TF.FilePolarity,Positive*
%FSLAX46Y46*%
G04 Gerber Fmt 4.6, Leading zero omitted, Abs format (unit mm)*
G04 Created by KiCad (PCBNEW (5.99.0-11424-g2f41dd4074)) date 2021-09-18 21:26:06*
%MOMM*%
%LPD*%
G01*
G04 APERTURE LIST*
G04 #@! TA.AperFunction,ComponentPad*
%ADD10C,0.600000*%
G04 #@! TD*
G04 #@! TA.AperFunction,ComponentPad*
%ADD11O,1.200000X2.300000*%
G04 #@! TD*
G04 #@! TA.AperFunction,ComponentPad*
%ADD12C,1.700000*%
G04 #@! TD*
G04 #@! TA.AperFunction,ViaPad*
%ADD13C,0.500000*%
G04 #@! TD*
G04 #@! TA.AperFunction,Conductor*
%ADD14C,0.310000*%
G04 #@! TD*
G04 #@! TA.AperFunction,Conductor*
%ADD15C,0.160000*%
G04 #@! TD*
G04 APERTURE END LIST*
D10*
X28000000Y-30690000D03*
X28800000Y-30690000D03*
X29600000Y-30690000D03*
X30400000Y-30690000D03*
X31200000Y-30690000D03*
X32000000Y-30690000D03*
D11*
X24450000Y-31140000D03*
X35550000Y-26090000D03*
X24450000Y-26090000D03*
X35550000Y-31140000D03*
D12*
X35080000Y-55240000D03*
X32540000Y-55240000D03*
X30000000Y-55240000D03*
X27460000Y-55240000D03*
X24920000Y-55240000D03*
X27460000Y-34920000D03*
X30000000Y-34920000D03*
X22380000Y-55240000D03*
X22380000Y-52700000D03*
X22380000Y-50160000D03*
X22380000Y-47620000D03*
X22380000Y-45080000D03*
X22380000Y-42540000D03*
X22380000Y-40000000D03*
X22380000Y-37460000D03*
X22380000Y-34920000D03*
X22380000Y-32380000D03*
X22380000Y-29840000D03*
X22380000Y-27300000D03*
X37620000Y-27300000D03*
X37620000Y-29840000D03*
X37620000Y-32380000D03*
X37620000Y-34920000D03*
X37620000Y-37460000D03*
X37620000Y-40000000D03*
X37620000Y-42540000D03*
X37620000Y-45080000D03*
X37620000Y-47620000D03*
X37620000Y-50160000D03*
X37620000Y-52700000D03*
X37620000Y-55240000D03*
D13*
X35800000Y-38350000D03*
X33450000Y-49200000D03*
X35650000Y-43600000D03*
X30900000Y-40450000D03*
X26800000Y-41350000D03*
X24450000Y-29550000D03*
X30950000Y-52200000D03*
X35550000Y-29550000D03*
X35850000Y-36200000D03*
X31450000Y-33500000D03*
X34500000Y-30750000D03*
X26600000Y-32450000D03*
X24350000Y-37300000D03*
X24000000Y-47300000D03*
X24000000Y-52900000D03*
X26700000Y-37500000D03*
X36000000Y-34900000D03*
X32750000Y-30750000D03*
X27250000Y-30750000D03*
X29250000Y-51750000D03*
X25500000Y-30750000D03*
X31550000Y-36750000D03*
X34850000Y-32450000D03*
X32450000Y-32450000D03*
X26350000Y-35850000D03*
X29250000Y-50350000D03*
X34650000Y-36850000D03*
X31800000Y-50800000D03*
X35550000Y-27700000D03*
X24000000Y-50100000D03*
X24000000Y-48700000D03*
X24950000Y-36250000D03*
X24000000Y-51500000D03*
X23000000Y-46350000D03*
X24450000Y-27700000D03*
X24350000Y-38700000D03*
X36000000Y-33400000D03*
X28150000Y-49600000D03*
X28150000Y-50800000D03*
X27550000Y-32450000D03*
X30700000Y-36000000D03*
X33050000Y-33650000D03*
X33400000Y-32450000D03*
X33150000Y-51750000D03*
X28400000Y-36650000D03*
X32850000Y-37450000D03*
X29750000Y-36900000D03*
X30950000Y-50200000D03*
X31300000Y-34800000D03*
X34550000Y-33650000D03*
X25150000Y-32450000D03*
X28800000Y-33400000D03*
X26250000Y-33600000D03*
X26750000Y-33100000D03*
X34200000Y-38300000D03*
X26450000Y-43200000D03*
X26900000Y-42700000D03*
X25950000Y-44600000D03*
X25400000Y-45000000D03*
X34850000Y-51700000D03*
X31300000Y-39300000D03*
X25750000Y-42100000D03*
X34850000Y-47700000D03*
X32850000Y-48900000D03*
X26100000Y-41500000D03*
X28000000Y-48250000D03*
X28150000Y-48900000D03*
X28750000Y-49200000D03*
X29250000Y-49650000D03*
X24000000Y-32600000D03*
X34650000Y-39500000D03*
X35700000Y-44300000D03*
X36350000Y-44550000D03*
X35200000Y-39100000D03*
X25750000Y-45600000D03*
X29600000Y-32700000D03*
X30250000Y-32550000D03*
X31250000Y-32450000D03*
X28250000Y-32450000D03*
X26660000Y-40000000D03*
X30650000Y-39100000D03*
X30600000Y-49650000D03*
D14*
X36450000Y-36900000D02*
X36450000Y-36090000D01*
X30900000Y-40450000D02*
X32900000Y-40450000D01*
X34250000Y-44900000D02*
X35550000Y-43600000D01*
X30900000Y-40450000D02*
X34050000Y-43600000D01*
X30000000Y-41350000D02*
X30900000Y-40450000D01*
X33450000Y-49200000D02*
X33600000Y-49200000D01*
D15*
X35800000Y-38350000D02*
X35000000Y-38350000D01*
D14*
X36450000Y-36090000D02*
X37620000Y-34920000D01*
X34050000Y-43600000D02*
X35650000Y-43600000D01*
X33600000Y-49200000D02*
X34250000Y-48550000D01*
X26800000Y-41350000D02*
X30000000Y-41350000D01*
X32900000Y-40450000D02*
X35000000Y-38350000D01*
X35000000Y-38350000D02*
X36450000Y-36900000D01*
X35550000Y-43600000D02*
X35650000Y-43600000D01*
X34250000Y-48550000D02*
X34250000Y-44900000D01*
D15*
X27550000Y-32450000D02*
X26600000Y-32450000D01*
X25700000Y-35150000D02*
X25700000Y-33350000D01*
X25700000Y-33350000D02*
X26600000Y-32450000D01*
X32450000Y-32450000D02*
X33400000Y-32450000D01*
X26250000Y-33600000D02*
X28600000Y-33600000D01*
X28600000Y-33600000D02*
X28800000Y-33400000D01*
X28800000Y-30690000D02*
X28750000Y-30740000D01*
X28750000Y-30740000D02*
X28750000Y-32700000D01*
X28750000Y-32700000D02*
X28350000Y-33100000D01*
X26750000Y-33100000D02*
X28350000Y-33100000D01*
X34200000Y-38550000D02*
X34200000Y-38300000D01*
X30650000Y-39950000D02*
X32800000Y-39950000D01*
X26250000Y-43200000D02*
X25450000Y-43200000D01*
X25450000Y-43200000D02*
X25250000Y-43000000D01*
X25250000Y-41600000D02*
X26000000Y-40850000D01*
X26000000Y-40850000D02*
X29750000Y-40850000D01*
X25250000Y-43000000D02*
X25250000Y-41600000D01*
X32800000Y-39950000D02*
X34200000Y-38550000D01*
X29750000Y-40850000D02*
X30650000Y-39950000D01*
X35190000Y-50050000D02*
X37620000Y-47620000D01*
X26900000Y-42900000D02*
X32000000Y-48000000D01*
X32000000Y-48000000D02*
X32000000Y-49300000D01*
X32750000Y-50050000D02*
X35190000Y-50050000D01*
X26900000Y-42700000D02*
X26900000Y-42900000D01*
X32000000Y-49300000D02*
X32750000Y-50050000D01*
X31650000Y-49450000D02*
X32600000Y-50400000D01*
X25950000Y-44600000D02*
X26350000Y-45000000D01*
X36350000Y-50400000D02*
X36590000Y-50160000D01*
X36590000Y-50160000D02*
X37620000Y-50160000D01*
X28500000Y-45000000D02*
X31650000Y-48150000D01*
X31650000Y-48150000D02*
X31650000Y-49450000D01*
X32600000Y-50400000D02*
X36350000Y-50400000D01*
X26350000Y-45000000D02*
X28500000Y-45000000D01*
X25500000Y-45100000D02*
X25950000Y-45100000D01*
X37620000Y-52700000D02*
X35670000Y-50750000D01*
X31300000Y-48300000D02*
X28350000Y-45350000D01*
X28350000Y-45350000D02*
X26200000Y-45350000D01*
X31300000Y-49600000D02*
X31300000Y-48300000D01*
X35670000Y-50750000D02*
X32450000Y-50750000D01*
X25400000Y-45000000D02*
X25500000Y-45100000D01*
X32450000Y-50750000D02*
X31300000Y-49600000D01*
X26200000Y-45350000D02*
X25950000Y-45100000D01*
X36500000Y-52050000D02*
X36500000Y-54120000D01*
X36500000Y-54120000D02*
X37620000Y-55240000D01*
X36150000Y-51700000D02*
X36500000Y-52050000D01*
X34850000Y-51700000D02*
X36150000Y-51700000D01*
X29750000Y-47750000D02*
X28200000Y-46200000D01*
X24900000Y-41450000D02*
X25850000Y-40500000D01*
X22380000Y-50160000D02*
X23500000Y-51280000D01*
X25850000Y-40500000D02*
X29600000Y-40500000D01*
X23500000Y-51280000D02*
X23500000Y-53150000D01*
X27950000Y-53750000D02*
X29750000Y-51950000D01*
X23500000Y-53150000D02*
X24100000Y-53750000D01*
X24900000Y-45450000D02*
X24900000Y-41450000D01*
X29600000Y-40500000D02*
X30500000Y-39600000D01*
X28200000Y-46200000D02*
X25650000Y-46200000D01*
X31000000Y-39600000D02*
X31300000Y-39300000D01*
X30500000Y-39600000D02*
X31000000Y-39600000D01*
X29750000Y-51950000D02*
X29750000Y-47750000D01*
X24100000Y-53750000D02*
X27950000Y-53750000D01*
X25650000Y-46200000D02*
X24900000Y-45450000D01*
X33700000Y-49700000D02*
X34850000Y-48550000D01*
X32350000Y-47850000D02*
X27400000Y-42900000D01*
X25850000Y-42200000D02*
X25750000Y-42100000D01*
X27150000Y-42200000D02*
X25850000Y-42200000D01*
X32350000Y-49150000D02*
X32900000Y-49700000D01*
X32900000Y-49700000D02*
X33700000Y-49700000D01*
X27400000Y-42900000D02*
X27400000Y-42450000D01*
X27400000Y-42450000D02*
X27150000Y-42200000D01*
X34850000Y-48550000D02*
X34850000Y-47700000D01*
X32350000Y-47850000D02*
X32350000Y-49150000D01*
X27300000Y-41850000D02*
X27750000Y-42300000D01*
X27750000Y-42300000D02*
X27750000Y-42750000D01*
X32850000Y-48900000D02*
X32850000Y-47850000D01*
X26100000Y-41500000D02*
X26450000Y-41850000D01*
X26450000Y-41850000D02*
X27300000Y-41850000D01*
X27750000Y-42750000D02*
X32850000Y-47850000D01*
X27600000Y-47600000D02*
X28000000Y-48000000D01*
X28000000Y-48000000D02*
X28000000Y-48250000D01*
X23150000Y-41750000D02*
X23500000Y-42100000D01*
X27600000Y-47600000D02*
X25050000Y-47600000D01*
X23150000Y-40770000D02*
X23150000Y-41750000D01*
X25050000Y-47600000D02*
X23500000Y-46050000D01*
X23500000Y-46050000D02*
X23500000Y-42100000D01*
X22380000Y-40000000D02*
X23150000Y-40770000D01*
X23150000Y-38230000D02*
X22380000Y-37460000D01*
X28500000Y-48000000D02*
X27750000Y-47250000D01*
X28150000Y-48900000D02*
X28500000Y-48550000D01*
X23150000Y-39200000D02*
X23150000Y-38230000D01*
X23850000Y-41950000D02*
X23500000Y-41600000D01*
X23500000Y-39550000D02*
X23150000Y-39200000D01*
X23500000Y-41600000D02*
X23500000Y-39550000D01*
X25200000Y-47250000D02*
X27750000Y-47250000D01*
X28500000Y-48550000D02*
X28500000Y-48000000D01*
X23850000Y-41950000D02*
X23850000Y-45900000D01*
X23850000Y-45900000D02*
X25200000Y-47250000D01*
X27900000Y-46900000D02*
X28850000Y-47850000D01*
X23850000Y-41450000D02*
X24200000Y-41800000D01*
X22380000Y-29840000D02*
X23500000Y-30960000D01*
X25350000Y-46900000D02*
X24200000Y-45750000D01*
X27900000Y-46900000D02*
X25350000Y-46900000D01*
X28850000Y-49100000D02*
X28750000Y-49200000D01*
X28850000Y-47850000D02*
X28850000Y-49100000D01*
X23850000Y-39400000D02*
X23850000Y-41450000D01*
X23500000Y-30960000D02*
X23500000Y-39050000D01*
X24200000Y-45750000D02*
X24200000Y-41800000D01*
X23500000Y-39050000D02*
X23850000Y-39400000D01*
X28050000Y-46550000D02*
X25500000Y-46550000D01*
X24200000Y-41300000D02*
X24200000Y-39500000D01*
X29250000Y-47750000D02*
X28050000Y-46550000D01*
X24550000Y-41650000D02*
X24200000Y-41300000D01*
X23850000Y-32750000D02*
X24000000Y-32600000D01*
X29250000Y-49650000D02*
X29250000Y-47750000D01*
X25500000Y-46550000D02*
X24550000Y-45600000D01*
X24200000Y-39250000D02*
X23850000Y-38900000D01*
X24200000Y-39500000D02*
X24200000Y-39250000D01*
X24550000Y-45600000D02*
X24550000Y-41650000D01*
X23850000Y-38900000D02*
X23850000Y-32750000D01*
X36150000Y-41000000D02*
X36150000Y-43850000D01*
X36150000Y-43850000D02*
X35700000Y-44300000D01*
X34650000Y-39500000D02*
X36150000Y-41000000D01*
X35200000Y-39550000D02*
X36500000Y-40850000D01*
X36500000Y-40850000D02*
X36500000Y-44400000D01*
X35200000Y-39100000D02*
X35200000Y-39550000D01*
X36500000Y-44400000D02*
X36350000Y-44550000D01*
X28100000Y-54100000D02*
X26060000Y-54100000D01*
X28200000Y-45700000D02*
X30100000Y-47600000D01*
X25950000Y-45600000D02*
X26050000Y-45700000D01*
X30100000Y-52100000D02*
X28100000Y-54100000D01*
X26050000Y-45700000D02*
X28200000Y-45700000D01*
X25750000Y-45600000D02*
X25950000Y-45600000D01*
X26060000Y-54100000D02*
X24920000Y-55240000D01*
X30100000Y-47600000D02*
X30100000Y-52100000D01*
X30400000Y-32000000D02*
X30750000Y-32350000D01*
X30000000Y-33550000D02*
X30000000Y-34920000D01*
X30750000Y-32800000D02*
X30000000Y-33550000D01*
X30400000Y-30690000D02*
X30400000Y-32000000D01*
X30750000Y-32350000D02*
X30750000Y-32800000D01*
X29600000Y-32700000D02*
X30000000Y-33100000D01*
X30000000Y-33100000D02*
X30000000Y-33550000D01*
X29000000Y-33950000D02*
X28430000Y-33950000D01*
X30250000Y-32550000D02*
X30250000Y-32350000D01*
X29300000Y-33650000D02*
X29000000Y-33950000D01*
X29300000Y-33150000D02*
X29300000Y-33650000D01*
X29850000Y-31950000D02*
X29350000Y-31950000D01*
X29350000Y-31950000D02*
X29600000Y-31700000D01*
X30250000Y-32350000D02*
X29850000Y-31950000D01*
X28430000Y-33950000D02*
X27460000Y-34920000D01*
X29100000Y-32950000D02*
X29300000Y-33150000D01*
X29100000Y-32200000D02*
X29100000Y-32950000D01*
X29600000Y-31700000D02*
X29600000Y-30690000D01*
X29100000Y-32200000D02*
X29350000Y-31950000D01*
D14*
X36500000Y-32000000D02*
X36400000Y-32100000D01*
X37620000Y-27300000D02*
X36400000Y-28520000D01*
D15*
X28250000Y-30940000D02*
X28000000Y-30690000D01*
D14*
X36400000Y-32200000D02*
X35550000Y-33050000D01*
D15*
X30500000Y-39250000D02*
X30350000Y-39250000D01*
D14*
X35550000Y-33050000D02*
X31850000Y-33050000D01*
D15*
X31250000Y-31440000D02*
X31250000Y-32450000D01*
X30350000Y-39250000D02*
X29450000Y-40150000D01*
X32000000Y-30690000D02*
X31250000Y-31440000D01*
D14*
X36400000Y-32100000D02*
X36400000Y-32200000D01*
D15*
X28250000Y-32450000D02*
X28250000Y-30940000D01*
D14*
X36400000Y-30200000D02*
X36500000Y-30300000D01*
D15*
X26810000Y-40150000D02*
X26660000Y-40000000D01*
X30650000Y-39100000D02*
X30500000Y-39250000D01*
X29450000Y-40150000D02*
X26810000Y-40150000D01*
D14*
X36400000Y-28520000D02*
X36400000Y-30200000D01*
X31850000Y-33050000D02*
X31250000Y-32450000D01*
X36500000Y-30300000D02*
X36500000Y-32000000D01*
D15*
X30450000Y-52250000D02*
X30450000Y-49800000D01*
X29800000Y-52900000D02*
X30450000Y-52250000D01*
X27460000Y-55240000D02*
X29800000Y-52900000D01*
X30450000Y-49800000D02*
X30600000Y-49650000D01*
G04 #@! TA.AperFunction,Conductor*
G36*
X31127560Y-49771820D02*
G01*
X31135479Y-49782719D01*
X31143329Y-49787251D01*
X31159686Y-49799804D01*
X32274021Y-50914140D01*
X32276869Y-50917140D01*
X32305479Y-50948915D01*
X32325751Y-50957941D01*
X32329210Y-50959481D01*
X32340103Y-50965396D01*
X32354924Y-50975021D01*
X32354925Y-50975022D01*
X32361888Y-50979543D01*
X32370089Y-50980842D01*
X32370835Y-50980960D01*
X32390604Y-50986816D01*
X32391290Y-50987121D01*
X32391291Y-50987121D01*
X32398880Y-50990500D01*
X32424856Y-50990500D01*
X32437214Y-50991473D01*
X32454664Y-50994237D01*
X32454666Y-50994237D01*
X32462868Y-50995536D01*
X32471617Y-50993192D01*
X32492062Y-50990500D01*
X35537660Y-50990500D01*
X35588440Y-51008982D01*
X35593521Y-51013639D01*
X35904521Y-51324639D01*
X35927359Y-51373615D01*
X35913373Y-51425813D01*
X35869107Y-51456808D01*
X35848660Y-51459500D01*
X35222757Y-51459500D01*
X35171977Y-51441018D01*
X35166896Y-51436361D01*
X35094294Y-51363759D01*
X35080007Y-51356479D01*
X35038402Y-51335281D01*
X34978433Y-51304725D01*
X34972294Y-51303753D01*
X34972292Y-51303752D01*
X34856143Y-51285356D01*
X34850000Y-51284383D01*
X34843857Y-51285356D01*
X34727708Y-51303752D01*
X34727706Y-51303753D01*
X34721567Y-51304725D01*
X34661598Y-51335281D01*
X34619994Y-51356479D01*
X34605706Y-51363759D01*
X34513759Y-51455706D01*
X34454725Y-51571567D01*
X34434383Y-51700000D01*
X34435356Y-51706143D01*
X34453019Y-51817660D01*
X34454725Y-51828433D01*
X34513759Y-51944294D01*
X34605706Y-52036241D01*
X34721567Y-52095275D01*
X34727706Y-52096247D01*
X34727708Y-52096248D01*
X34843857Y-52114644D01*
X34850000Y-52115617D01*
X34856143Y-52114644D01*
X34972292Y-52096248D01*
X34972294Y-52096247D01*
X34978433Y-52095275D01*
X35094294Y-52036241D01*
X35166896Y-51963639D01*
X35215872Y-51940801D01*
X35222757Y-51940500D01*
X36017659Y-51940500D01*
X36068439Y-51958982D01*
X36073521Y-51963639D01*
X36236362Y-52126481D01*
X36259199Y-52175457D01*
X36259500Y-52182342D01*
X36259500Y-54111625D01*
X36259392Y-54115759D01*
X36257154Y-54158462D01*
X36266465Y-54182718D01*
X36269981Y-54194587D01*
X36275384Y-54220006D01*
X36280706Y-54227330D01*
X36290551Y-54245463D01*
X36293794Y-54253912D01*
X36312158Y-54272276D01*
X36320205Y-54281696D01*
X36335479Y-54302719D01*
X36343329Y-54307251D01*
X36359686Y-54319804D01*
X36713298Y-54673416D01*
X36736136Y-54722392D01*
X36726666Y-54767334D01*
X36686720Y-54839996D01*
X36626800Y-55028889D01*
X36604710Y-55225823D01*
X36621292Y-55423297D01*
X36675915Y-55613790D01*
X36766498Y-55790045D01*
X36889590Y-55945348D01*
X37040504Y-56073786D01*
X37043878Y-56075672D01*
X37043880Y-56075673D01*
X37070070Y-56090310D01*
X37213490Y-56170465D01*
X37217152Y-56171655D01*
X37217157Y-56171657D01*
X37291667Y-56195866D01*
X37334251Y-56229136D01*
X37345486Y-56281994D01*
X37320116Y-56329708D01*
X37267255Y-56350000D01*
X35438926Y-56350000D01*
X35388146Y-56331518D01*
X35361126Y-56284718D01*
X35370510Y-56231500D01*
X35411906Y-56196764D01*
X35417681Y-56194910D01*
X35447190Y-56186671D01*
X35541858Y-56138851D01*
X35620619Y-56099066D01*
X35620621Y-56099065D01*
X35624073Y-56097321D01*
X35780232Y-55975316D01*
X35852827Y-55891214D01*
X35907196Y-55828228D01*
X35907200Y-55828223D01*
X35909720Y-55825303D01*
X35911626Y-55821947D01*
X35911630Y-55821942D01*
X36005695Y-55656356D01*
X36007604Y-55652996D01*
X36018699Y-55619643D01*
X36068935Y-55468630D01*
X36068936Y-55468625D01*
X36070156Y-55464958D01*
X36094993Y-55268351D01*
X36095389Y-55240000D01*
X36076051Y-55042777D01*
X36051968Y-54963008D01*
X36019891Y-54856765D01*
X36018774Y-54853065D01*
X36016963Y-54849660D01*
X36016961Y-54849654D01*
X35927551Y-54681500D01*
X35925739Y-54678092D01*
X35921998Y-54673504D01*
X35802930Y-54527514D01*
X35800490Y-54524522D01*
X35788415Y-54514532D01*
X35650773Y-54400665D01*
X35650772Y-54400664D01*
X35647798Y-54398204D01*
X35629979Y-54388569D01*
X35541633Y-54340801D01*
X35473479Y-54303950D01*
X35284172Y-54245350D01*
X35087089Y-54224636D01*
X35083243Y-54224986D01*
X35083242Y-54224986D01*
X35035487Y-54229332D01*
X34889735Y-54242596D01*
X34886028Y-54243687D01*
X34703338Y-54297456D01*
X34703335Y-54297457D01*
X34699629Y-54298548D01*
X34696202Y-54300340D01*
X34696201Y-54300340D01*
X34691480Y-54302808D01*
X34524010Y-54390359D01*
X34521003Y-54392777D01*
X34521001Y-54392778D01*
X34444207Y-54454522D01*
X34369570Y-54514532D01*
X34242189Y-54666339D01*
X34240327Y-54669727D01*
X34240325Y-54669729D01*
X34187151Y-54766453D01*
X34146720Y-54839996D01*
X34086800Y-55028889D01*
X34064710Y-55225823D01*
X34081292Y-55423297D01*
X34135915Y-55613790D01*
X34226498Y-55790045D01*
X34349590Y-55945348D01*
X34500504Y-56073786D01*
X34503878Y-56075672D01*
X34503880Y-56075673D01*
X34530070Y-56090310D01*
X34673490Y-56170465D01*
X34677152Y-56171655D01*
X34677157Y-56171657D01*
X34751667Y-56195866D01*
X34794251Y-56229136D01*
X34805486Y-56281994D01*
X34780116Y-56329708D01*
X34727255Y-56350000D01*
X32898926Y-56350000D01*
X32848146Y-56331518D01*
X32821126Y-56284718D01*
X32830510Y-56231500D01*
X32871906Y-56196764D01*
X32877681Y-56194910D01*
X32907190Y-56186671D01*
X33001858Y-56138851D01*
X33080619Y-56099066D01*
X33080621Y-56099065D01*
X33084073Y-56097321D01*
X33240232Y-55975316D01*
X33312827Y-55891214D01*
X33367196Y-55828228D01*
X33367200Y-55828223D01*
X33369720Y-55825303D01*
X33371626Y-55821947D01*
X33371630Y-55821942D01*
X33465695Y-55656356D01*
X33467604Y-55652996D01*
X33478699Y-55619643D01*
X33528935Y-55468630D01*
X33528936Y-55468625D01*
X33530156Y-55464958D01*
X33554993Y-55268351D01*
X33555389Y-55240000D01*
X33536051Y-55042777D01*
X33511968Y-54963008D01*
X33479891Y-54856765D01*
X33478774Y-54853065D01*
X33476963Y-54849660D01*
X33476961Y-54849654D01*
X33387551Y-54681500D01*
X33385739Y-54678092D01*
X33381998Y-54673504D01*
X33262930Y-54527514D01*
X33260490Y-54524522D01*
X33248415Y-54514532D01*
X33110773Y-54400665D01*
X33110772Y-54400664D01*
X33107798Y-54398204D01*
X33089979Y-54388569D01*
X33001633Y-54340801D01*
X32933479Y-54303950D01*
X32744172Y-54245350D01*
X32547089Y-54224636D01*
X32543243Y-54224986D01*
X32543242Y-54224986D01*
X32495487Y-54229332D01*
X32349735Y-54242596D01*
X32346028Y-54243687D01*
X32163338Y-54297456D01*
X32163335Y-54297457D01*
X32159629Y-54298548D01*
X32156202Y-54300340D01*
X32156201Y-54300340D01*
X32151480Y-54302808D01*
X31984010Y-54390359D01*
X31981003Y-54392777D01*
X31981001Y-54392778D01*
X31904207Y-54454522D01*
X31829570Y-54514532D01*
X31702189Y-54666339D01*
X31700327Y-54669727D01*
X31700325Y-54669729D01*
X31647151Y-54766453D01*
X31606720Y-54839996D01*
X31546800Y-55028889D01*
X31524710Y-55225823D01*
X31541292Y-55423297D01*
X31595915Y-55613790D01*
X31686498Y-55790045D01*
X31809590Y-55945348D01*
X31960504Y-56073786D01*
X31963878Y-56075672D01*
X31963880Y-56075673D01*
X31990070Y-56090310D01*
X32133490Y-56170465D01*
X32137152Y-56171655D01*
X32137157Y-56171657D01*
X32211667Y-56195866D01*
X32254251Y-56229136D01*
X32265486Y-56281994D01*
X32240116Y-56329708D01*
X32187255Y-56350000D01*
X30358926Y-56350000D01*
X30308146Y-56331518D01*
X30281126Y-56284718D01*
X30290510Y-56231500D01*
X30331906Y-56196764D01*
X30337681Y-56194910D01*
X30367190Y-56186671D01*
X30461858Y-56138851D01*
X30540619Y-56099066D01*
X30540621Y-56099065D01*
X30544073Y-56097321D01*
X30700232Y-55975316D01*
X30772827Y-55891214D01*
X30827196Y-55828228D01*
X30827200Y-55828223D01*
X30829720Y-55825303D01*
X30831626Y-55821947D01*
X30831630Y-55821942D01*
X30925695Y-55656356D01*
X30927604Y-55652996D01*
X30938699Y-55619643D01*
X30988935Y-55468630D01*
X30988936Y-55468625D01*
X30990156Y-55464958D01*
X31014993Y-55268351D01*
X31015389Y-55240000D01*
X30996051Y-55042777D01*
X30971968Y-54963008D01*
X30939891Y-54856765D01*
X30938774Y-54853065D01*
X30936963Y-54849660D01*
X30936961Y-54849654D01*
X30847551Y-54681500D01*
X30845739Y-54678092D01*
X30841998Y-54673504D01*
X30722930Y-54527514D01*
X30720490Y-54524522D01*
X30708415Y-54514532D01*
X30570773Y-54400665D01*
X30570772Y-54400664D01*
X30567798Y-54398204D01*
X30549979Y-54388569D01*
X30461633Y-54340801D01*
X30393479Y-54303950D01*
X30204172Y-54245350D01*
X30007089Y-54224636D01*
X30003243Y-54224986D01*
X30003242Y-54224986D01*
X29955487Y-54229332D01*
X29809735Y-54242596D01*
X29806028Y-54243687D01*
X29623338Y-54297456D01*
X29623335Y-54297457D01*
X29619629Y-54298548D01*
X29616202Y-54300340D01*
X29616201Y-54300340D01*
X29611480Y-54302808D01*
X29444010Y-54390359D01*
X29441003Y-54392777D01*
X29441001Y-54392778D01*
X29364207Y-54454522D01*
X29289570Y-54514532D01*
X29162189Y-54666339D01*
X29160327Y-54669727D01*
X29160325Y-54669729D01*
X29107151Y-54766453D01*
X29066720Y-54839996D01*
X29006800Y-55028889D01*
X28984710Y-55225823D01*
X29001292Y-55423297D01*
X29055915Y-55613790D01*
X29146498Y-55790045D01*
X29269590Y-55945348D01*
X29420504Y-56073786D01*
X29423878Y-56075672D01*
X29423880Y-56075673D01*
X29450070Y-56090310D01*
X29593490Y-56170465D01*
X29597152Y-56171655D01*
X29597157Y-56171657D01*
X29671667Y-56195866D01*
X29714251Y-56229136D01*
X29725486Y-56281994D01*
X29700116Y-56329708D01*
X29647255Y-56350000D01*
X27818926Y-56350000D01*
X27768146Y-56331518D01*
X27741126Y-56284718D01*
X27750510Y-56231500D01*
X27791906Y-56196764D01*
X27797681Y-56194910D01*
X27827190Y-56186671D01*
X27921858Y-56138851D01*
X28000619Y-56099066D01*
X28000621Y-56099065D01*
X28004073Y-56097321D01*
X28160232Y-55975316D01*
X28232827Y-55891214D01*
X28287196Y-55828228D01*
X28287200Y-55828223D01*
X28289720Y-55825303D01*
X28291626Y-55821947D01*
X28291630Y-55821942D01*
X28385695Y-55656356D01*
X28387604Y-55652996D01*
X28398699Y-55619643D01*
X28448935Y-55468630D01*
X28448936Y-55468625D01*
X28450156Y-55464958D01*
X28474993Y-55268351D01*
X28475389Y-55240000D01*
X28456051Y-55042777D01*
X28431968Y-54963008D01*
X28399891Y-54856765D01*
X28398774Y-54853065D01*
X28382962Y-54823328D01*
X28352722Y-54766453D01*
X28345201Y-54712940D01*
X28366614Y-54673504D01*
X29987934Y-53052185D01*
X29987936Y-53052182D01*
X30614140Y-52425979D01*
X30617140Y-52423131D01*
X30642744Y-52400077D01*
X30648915Y-52394521D01*
X30659481Y-52370790D01*
X30665396Y-52359897D01*
X30675021Y-52345076D01*
X30675022Y-52345075D01*
X30679543Y-52338112D01*
X30680960Y-52329164D01*
X30686816Y-52309396D01*
X30687121Y-52308710D01*
X30687121Y-52308709D01*
X30690500Y-52301120D01*
X30690500Y-52275144D01*
X30691473Y-52262786D01*
X30694237Y-52245336D01*
X30694237Y-52245334D01*
X30695536Y-52237132D01*
X30693192Y-52228383D01*
X30690500Y-52207938D01*
X30690500Y-50113014D01*
X30708982Y-50062234D01*
X30733633Y-50042625D01*
X30812052Y-50002669D01*
X30838754Y-49989064D01*
X30838755Y-49989063D01*
X30844294Y-49986241D01*
X30936241Y-49894294D01*
X30939065Y-49888752D01*
X30939067Y-49888749D01*
X30993260Y-49782390D01*
X31032781Y-49745535D01*
X31086746Y-49742707D01*
X31127560Y-49771820D01*
G37*
G04 #@! TD.AperFunction*
G04 #@! TA.AperFunction,Conductor*
G36*
X21388500Y-45368875D02*
G01*
X21424940Y-45415515D01*
X21435915Y-45453790D01*
X21526498Y-45630045D01*
X21649590Y-45785348D01*
X21800504Y-45913786D01*
X21973490Y-46010465D01*
X21977152Y-46011655D01*
X21977157Y-46011657D01*
X22082118Y-46045760D01*
X22161960Y-46071702D01*
X22165797Y-46072160D01*
X22165799Y-46072160D01*
X22354892Y-46094708D01*
X22354895Y-46094708D01*
X22358735Y-46095166D01*
X22556320Y-46079963D01*
X22747190Y-46026671D01*
X22917780Y-45940500D01*
X22920619Y-45939066D01*
X22920621Y-45939065D01*
X22924073Y-45937321D01*
X23080232Y-45815316D01*
X23120697Y-45768437D01*
X23167870Y-45742073D01*
X23220951Y-45752199D01*
X23255106Y-45794077D01*
X23259500Y-45820057D01*
X23259500Y-46041625D01*
X23259392Y-46045760D01*
X23257654Y-46078925D01*
X23257154Y-46088462D01*
X23266465Y-46112718D01*
X23269981Y-46124587D01*
X23275384Y-46150006D01*
X23280706Y-46157330D01*
X23290551Y-46175463D01*
X23293794Y-46183912D01*
X23312158Y-46202276D01*
X23320205Y-46211696D01*
X23335479Y-46232719D01*
X23343329Y-46237251D01*
X23359686Y-46249804D01*
X24874012Y-47764130D01*
X24876860Y-47767130D01*
X24905479Y-47798915D01*
X24913065Y-47802292D01*
X24913067Y-47802294D01*
X24929206Y-47809479D01*
X24940100Y-47815394D01*
X24954921Y-47825019D01*
X24954924Y-47825020D01*
X24961887Y-47829542D01*
X24970088Y-47830841D01*
X24970832Y-47830959D01*
X24990603Y-47836815D01*
X24998880Y-47840500D01*
X25024857Y-47840500D01*
X25037215Y-47841473D01*
X25054664Y-47844237D01*
X25054666Y-47844237D01*
X25062868Y-47845536D01*
X25071615Y-47843192D01*
X25092063Y-47840500D01*
X27467660Y-47840500D01*
X27518440Y-47858982D01*
X27523521Y-47863639D01*
X27623790Y-47963908D01*
X27646628Y-48012884D01*
X27638319Y-48055634D01*
X27604725Y-48121567D01*
X27584383Y-48250000D01*
X27585356Y-48256143D01*
X27601064Y-48355316D01*
X27604725Y-48378433D01*
X27607547Y-48383971D01*
X27653898Y-48474940D01*
X27663759Y-48494294D01*
X27755706Y-48586241D01*
X27761246Y-48589064D01*
X27766278Y-48592720D01*
X27765167Y-48594249D01*
X27796360Y-48627703D01*
X27799184Y-48681669D01*
X27794027Y-48694431D01*
X27757548Y-48766024D01*
X27757546Y-48766031D01*
X27754725Y-48771567D01*
X27734383Y-48900000D01*
X27754725Y-49028433D01*
X27813759Y-49144294D01*
X27905706Y-49236241D01*
X27911245Y-49239063D01*
X27911246Y-49239064D01*
X27940073Y-49253752D01*
X28021567Y-49295275D01*
X28027706Y-49296247D01*
X28027708Y-49296248D01*
X28143857Y-49314644D01*
X28150000Y-49315617D01*
X28156143Y-49314644D01*
X28167925Y-49312778D01*
X28211603Y-49305860D01*
X28276704Y-49295549D01*
X28329750Y-49305860D01*
X28359451Y-49337711D01*
X28410933Y-49438749D01*
X28410935Y-49438752D01*
X28413759Y-49444294D01*
X28505706Y-49536241D01*
X28621567Y-49595275D01*
X28627706Y-49596247D01*
X28627708Y-49596248D01*
X28733524Y-49613007D01*
X28750000Y-49615617D01*
X28756143Y-49614644D01*
X28761311Y-49614644D01*
X28812091Y-49633126D01*
X28839338Y-49681285D01*
X28854725Y-49778433D01*
X28885281Y-49838402D01*
X28910934Y-49888749D01*
X28913759Y-49894294D01*
X29005706Y-49986241D01*
X29011245Y-49989063D01*
X29011246Y-49989064D01*
X29037948Y-50002669D01*
X29121567Y-50045275D01*
X29127706Y-50046247D01*
X29127708Y-50046248D01*
X29243857Y-50064644D01*
X29250000Y-50065617D01*
X29256143Y-50064644D01*
X29372292Y-50046248D01*
X29372294Y-50046247D01*
X29378433Y-50045275D01*
X29383973Y-50042452D01*
X29383974Y-50042452D01*
X29394636Y-50037020D01*
X29448272Y-50030435D01*
X29493593Y-50059868D01*
X29509500Y-50107410D01*
X29509500Y-51817660D01*
X29491018Y-51868440D01*
X29486361Y-51873521D01*
X27873521Y-53486361D01*
X27824545Y-53509199D01*
X27817660Y-53509500D01*
X24232340Y-53509500D01*
X24181560Y-53491018D01*
X24176479Y-53486361D01*
X23763639Y-53073521D01*
X23740801Y-53024545D01*
X23740500Y-53017660D01*
X23740500Y-51288367D01*
X23740608Y-51284232D01*
X23742412Y-51249825D01*
X23742412Y-51249823D01*
X23742846Y-51241537D01*
X23733537Y-51217287D01*
X23730016Y-51205399D01*
X23726342Y-51188114D01*
X23724616Y-51179994D01*
X23719290Y-51172663D01*
X23709451Y-51154542D01*
X23706206Y-51146088D01*
X23687842Y-51127724D01*
X23679795Y-51118304D01*
X23664521Y-51097281D01*
X23656671Y-51092749D01*
X23640314Y-51080196D01*
X23286945Y-50726827D01*
X23264107Y-50677851D01*
X23274116Y-50631946D01*
X23307604Y-50572996D01*
X23318476Y-50540314D01*
X23368935Y-50388630D01*
X23368936Y-50388625D01*
X23370156Y-50384958D01*
X23394993Y-50188351D01*
X23395389Y-50160000D01*
X23379962Y-50002669D01*
X23376428Y-49966621D01*
X23376428Y-49966620D01*
X23376051Y-49962777D01*
X23351968Y-49883008D01*
X23319891Y-49776765D01*
X23318774Y-49773065D01*
X23316963Y-49769660D01*
X23316961Y-49769654D01*
X23227551Y-49601500D01*
X23225739Y-49598092D01*
X23222157Y-49593699D01*
X23102930Y-49447514D01*
X23100490Y-49444522D01*
X23088415Y-49434532D01*
X22950773Y-49320665D01*
X22950772Y-49320664D01*
X22947798Y-49318204D01*
X22943014Y-49315617D01*
X22830396Y-49254725D01*
X22773479Y-49223950D01*
X22584172Y-49165350D01*
X22387089Y-49144636D01*
X22383243Y-49144986D01*
X22383242Y-49144986D01*
X22335487Y-49149332D01*
X22189735Y-49162596D01*
X22186028Y-49163687D01*
X22003338Y-49217456D01*
X22003335Y-49217457D01*
X21999629Y-49218548D01*
X21824010Y-49310359D01*
X21821003Y-49312777D01*
X21821001Y-49312778D01*
X21811192Y-49320665D01*
X21669570Y-49434532D01*
X21542189Y-49586339D01*
X21540327Y-49589727D01*
X21540325Y-49589729D01*
X21513534Y-49638462D01*
X21446720Y-49759996D01*
X21445551Y-49763680D01*
X21445551Y-49763681D01*
X21424302Y-49830667D01*
X21391330Y-49873482D01*
X21338552Y-49885086D01*
X21290662Y-49860050D01*
X21270000Y-49806780D01*
X21270000Y-47977291D01*
X21288482Y-47926511D01*
X21335282Y-47899491D01*
X21388500Y-47908875D01*
X21424940Y-47955515D01*
X21435915Y-47993790D01*
X21526498Y-48170045D01*
X21649590Y-48325348D01*
X21800504Y-48453786D01*
X21803878Y-48455672D01*
X21803880Y-48455673D01*
X21881462Y-48499032D01*
X21973490Y-48550465D01*
X21977152Y-48551655D01*
X21977157Y-48551657D01*
X22083598Y-48586241D01*
X22161960Y-48611702D01*
X22165797Y-48612160D01*
X22165799Y-48612160D01*
X22354892Y-48634708D01*
X22354895Y-48634708D01*
X22358735Y-48635166D01*
X22556320Y-48619963D01*
X22747190Y-48566671D01*
X22890472Y-48494294D01*
X22920619Y-48479066D01*
X22920621Y-48479065D01*
X22924073Y-48477321D01*
X23023528Y-48399618D01*
X23077190Y-48357693D01*
X23077192Y-48357691D01*
X23080232Y-48355316D01*
X23171139Y-48250000D01*
X23207196Y-48208228D01*
X23207200Y-48208223D01*
X23209720Y-48205303D01*
X23211626Y-48201947D01*
X23211630Y-48201942D01*
X23305695Y-48036356D01*
X23307604Y-48032996D01*
X23308824Y-48029329D01*
X23368935Y-47848630D01*
X23368936Y-47848625D01*
X23370156Y-47844958D01*
X23371925Y-47830959D01*
X23380367Y-47764130D01*
X23394993Y-47648351D01*
X23395389Y-47620000D01*
X23376051Y-47422777D01*
X23318774Y-47233065D01*
X23316963Y-47229660D01*
X23316961Y-47229654D01*
X23227551Y-47061500D01*
X23225739Y-47058092D01*
X23218919Y-47049729D01*
X23102930Y-46907514D01*
X23100490Y-46904522D01*
X23088415Y-46894532D01*
X22950773Y-46780665D01*
X22950772Y-46780664D01*
X22947798Y-46778204D01*
X22929979Y-46768569D01*
X22910059Y-46757799D01*
X22773479Y-46683950D01*
X22584172Y-46625350D01*
X22387089Y-46604636D01*
X22383243Y-46604986D01*
X22383242Y-46604986D01*
X22335487Y-46609332D01*
X22189735Y-46622596D01*
X22186028Y-46623687D01*
X22003338Y-46677456D01*
X22003335Y-46677457D01*
X21999629Y-46678548D01*
X21824010Y-46770359D01*
X21821003Y-46772777D01*
X21821001Y-46772778D01*
X21811192Y-46780665D01*
X21669570Y-46894532D01*
X21542189Y-47046339D01*
X21540327Y-47049727D01*
X21540325Y-47049729D01*
X21533854Y-47061500D01*
X21446720Y-47219996D01*
X21445551Y-47223680D01*
X21445551Y-47223681D01*
X21424302Y-47290667D01*
X21391330Y-47333482D01*
X21338552Y-47345086D01*
X21290662Y-47320050D01*
X21270000Y-47266780D01*
X21270000Y-45437291D01*
X21288482Y-45386511D01*
X21335282Y-45359491D01*
X21388500Y-45368875D01*
G37*
G04 #@! TD.AperFunction*
G04 #@! TA.AperFunction,Conductor*
G36*
X25141780Y-23668482D02*
G01*
X25168800Y-23715282D01*
X25170000Y-23729000D01*
X25170000Y-24991500D01*
X25151518Y-25042280D01*
X25104718Y-25069300D01*
X25051500Y-25059916D01*
X25036670Y-25048852D01*
X24911687Y-24930456D01*
X24904389Y-24924996D01*
X24759085Y-24840596D01*
X24750715Y-24836957D01*
X24623333Y-24798377D01*
X24611993Y-24799001D01*
X24610851Y-24800072D01*
X24610000Y-24803636D01*
X24610000Y-27369741D01*
X24613884Y-27380412D01*
X24617343Y-27382409D01*
X24661517Y-27374819D01*
X24670263Y-27372245D01*
X24824891Y-27306450D01*
X24832804Y-27301937D01*
X24968153Y-27202331D01*
X24974818Y-27196115D01*
X25030794Y-27130229D01*
X25077758Y-27103496D01*
X25130918Y-27113205D01*
X25165400Y-27154813D01*
X25170000Y-27181378D01*
X25170000Y-30041500D01*
X25151518Y-30092280D01*
X25104718Y-30119300D01*
X25051500Y-30109916D01*
X25036670Y-30098852D01*
X24911687Y-29980456D01*
X24904389Y-29974996D01*
X24759085Y-29890596D01*
X24750715Y-29886957D01*
X24623333Y-29848377D01*
X24611993Y-29849001D01*
X24610851Y-29850072D01*
X24610000Y-29853636D01*
X24610000Y-30966070D01*
X24613884Y-30976741D01*
X24619528Y-30980000D01*
X25196070Y-30980000D01*
X25206741Y-30976116D01*
X25210000Y-30970472D01*
X25210000Y-30547921D01*
X25209733Y-30543335D01*
X25195183Y-30418533D01*
X25193085Y-30409659D01*
X25189606Y-30400074D01*
X25189655Y-30346035D01*
X25224427Y-30304670D01*
X25277654Y-30295334D01*
X25283934Y-30296885D01*
X25289019Y-30299611D01*
X25292098Y-30300000D01*
X25294954Y-30300000D01*
X25301298Y-30300399D01*
X25309347Y-30303489D01*
X25334973Y-30300524D01*
X25344051Y-30300000D01*
X27554836Y-30300000D01*
X27605616Y-30318482D01*
X27632636Y-30365282D01*
X27623252Y-30418500D01*
X27616510Y-30427874D01*
X27614881Y-30430354D01*
X27611153Y-30434575D01*
X27555094Y-30553978D01*
X27554228Y-30559542D01*
X27536440Y-30673786D01*
X27534800Y-30684316D01*
X27551903Y-30815111D01*
X27605029Y-30935848D01*
X27689906Y-31036822D01*
X27709500Y-31049865D01*
X27795029Y-31106798D01*
X27795032Y-31106799D01*
X27799711Y-31109914D01*
X27925618Y-31149250D01*
X27931947Y-31149366D01*
X27932400Y-31149540D01*
X27936800Y-31150253D01*
X27936650Y-31151176D01*
X27982381Y-31168776D01*
X28008538Y-31216063D01*
X28009500Y-31228353D01*
X28009500Y-32077243D01*
X27991018Y-32128023D01*
X27986361Y-32133104D01*
X27913759Y-32205706D01*
X27854725Y-32321567D01*
X27853753Y-32327706D01*
X27853752Y-32327708D01*
X27843910Y-32389851D01*
X27834383Y-32450000D01*
X27854725Y-32578433D01*
X27913759Y-32694294D01*
X27944104Y-32724639D01*
X27966942Y-32773615D01*
X27952956Y-32825813D01*
X27908690Y-32856808D01*
X27888243Y-32859500D01*
X27122757Y-32859500D01*
X27071977Y-32841018D01*
X27066896Y-32836361D01*
X26994294Y-32763759D01*
X26981102Y-32757037D01*
X26924963Y-32728433D01*
X26878433Y-32704725D01*
X26872294Y-32703753D01*
X26872292Y-32703752D01*
X26756143Y-32685356D01*
X26750000Y-32684383D01*
X26743857Y-32685356D01*
X26627708Y-32703752D01*
X26627706Y-32703753D01*
X26621567Y-32704725D01*
X26575037Y-32728433D01*
X26518899Y-32757037D01*
X26505706Y-32763759D01*
X26413759Y-32855706D01*
X26354725Y-32971567D01*
X26353753Y-32977706D01*
X26353752Y-32977708D01*
X26351390Y-32992624D01*
X26334383Y-33100000D01*
X26335356Y-33106143D01*
X26335356Y-33106356D01*
X26316874Y-33157136D01*
X26270074Y-33184156D01*
X26256356Y-33185356D01*
X26256143Y-33185356D01*
X26250000Y-33184383D01*
X26243857Y-33185356D01*
X26127708Y-33203752D01*
X26127706Y-33203753D01*
X26121567Y-33204725D01*
X26005706Y-33263759D01*
X25913759Y-33355706D01*
X25910937Y-33361245D01*
X25910936Y-33361246D01*
X25905625Y-33371670D01*
X25854725Y-33471567D01*
X25853753Y-33477706D01*
X25853752Y-33477708D01*
X25840264Y-33562868D01*
X25834383Y-33600000D01*
X25835356Y-33606143D01*
X25847425Y-33682340D01*
X25854725Y-33728433D01*
X25857547Y-33733971D01*
X25904432Y-33825988D01*
X25913759Y-33844294D01*
X26005706Y-33936241D01*
X26011245Y-33939063D01*
X26011246Y-33939064D01*
X26050208Y-33958916D01*
X26121567Y-33995275D01*
X26127706Y-33996247D01*
X26127708Y-33996248D01*
X26243857Y-34014644D01*
X26250000Y-34015617D01*
X26256143Y-34014644D01*
X26372292Y-33996248D01*
X26372294Y-33996247D01*
X26378433Y-33995275D01*
X26449792Y-33958916D01*
X26488754Y-33939064D01*
X26488755Y-33939063D01*
X26494294Y-33936241D01*
X26566896Y-33863639D01*
X26615872Y-33840801D01*
X26622757Y-33840500D01*
X27022061Y-33840500D01*
X27072841Y-33858982D01*
X27099861Y-33905782D01*
X27090477Y-33959000D01*
X27058662Y-33989509D01*
X26904010Y-34070359D01*
X26901003Y-34072777D01*
X26901001Y-34072778D01*
X26825548Y-34133444D01*
X26749570Y-34194532D01*
X26622189Y-34346339D01*
X26620327Y-34349727D01*
X26620325Y-34349729D01*
X26613854Y-34361500D01*
X26526720Y-34519996D01*
X26466800Y-34708889D01*
X26444710Y-34905823D01*
X26461292Y-35103297D01*
X26515915Y-35293790D01*
X26606498Y-35470045D01*
X26729590Y-35625348D01*
X26880504Y-35753786D01*
X27053490Y-35850465D01*
X27057152Y-35851655D01*
X27057157Y-35851657D01*
X27179241Y-35891324D01*
X27241960Y-35911702D01*
X27245797Y-35912160D01*
X27245799Y-35912160D01*
X27434892Y-35934708D01*
X27434895Y-35934708D01*
X27438735Y-35935166D01*
X27636320Y-35919963D01*
X27640658Y-35918752D01*
X27687468Y-35905682D01*
X27827190Y-35866671D01*
X27957189Y-35801004D01*
X28000619Y-35779066D01*
X28000621Y-35779065D01*
X28004073Y-35777321D01*
X28160232Y-35655316D01*
X28188707Y-35622327D01*
X28287196Y-35508228D01*
X28287200Y-35508223D01*
X28289720Y-35505303D01*
X28291626Y-35501947D01*
X28291630Y-35501942D01*
X28385695Y-35336356D01*
X28387604Y-35332996D01*
X28388824Y-35329329D01*
X28448935Y-35148630D01*
X28448936Y-35148625D01*
X28450156Y-35144958D01*
X28474993Y-34948351D01*
X28475389Y-34920000D01*
X28456051Y-34722777D01*
X28398774Y-34533065D01*
X28382962Y-34503328D01*
X28352722Y-34446453D01*
X28345201Y-34392940D01*
X28366614Y-34353504D01*
X28506479Y-34213639D01*
X28555455Y-34190801D01*
X28562340Y-34190500D01*
X28991625Y-34190500D01*
X28995760Y-34190608D01*
X29030172Y-34192412D01*
X29030174Y-34192412D01*
X29038462Y-34192846D01*
X29062718Y-34183535D01*
X29074587Y-34180019D01*
X29100006Y-34174616D01*
X29107330Y-34169294D01*
X29125468Y-34159447D01*
X29125799Y-34159320D01*
X29179830Y-34158385D01*
X29221822Y-34192400D01*
X29232124Y-34245447D01*
X29214617Y-34283857D01*
X29196537Y-34305404D01*
X29162189Y-34346339D01*
X29160327Y-34349727D01*
X29160325Y-34349729D01*
X29153854Y-34361500D01*
X29066720Y-34519996D01*
X29006800Y-34708889D01*
X28984710Y-34905823D01*
X29001292Y-35103297D01*
X29055915Y-35293790D01*
X29146498Y-35470045D01*
X29269590Y-35625348D01*
X29420504Y-35753786D01*
X29593490Y-35850465D01*
X29597152Y-35851655D01*
X29597157Y-35851657D01*
X29719241Y-35891324D01*
X29781960Y-35911702D01*
X29785797Y-35912160D01*
X29785799Y-35912160D01*
X29974892Y-35934708D01*
X29974895Y-35934708D01*
X29978735Y-35935166D01*
X30176320Y-35919963D01*
X30180658Y-35918752D01*
X30227468Y-35905682D01*
X30367190Y-35866671D01*
X30497189Y-35801004D01*
X30540619Y-35779066D01*
X30540621Y-35779065D01*
X30544073Y-35777321D01*
X30700232Y-35655316D01*
X30728707Y-35622327D01*
X30827196Y-35508228D01*
X30827200Y-35508223D01*
X30829720Y-35505303D01*
X30831626Y-35501947D01*
X30831630Y-35501942D01*
X30925695Y-35336356D01*
X30927604Y-35332996D01*
X30928824Y-35329329D01*
X30988935Y-35148630D01*
X30988936Y-35148625D01*
X30990156Y-35144958D01*
X31014993Y-34948351D01*
X31015389Y-34920000D01*
X30996051Y-34722777D01*
X30938774Y-34533065D01*
X30936963Y-34529660D01*
X30936961Y-34529654D01*
X30847551Y-34361500D01*
X30845739Y-34358092D01*
X30841998Y-34353504D01*
X30753868Y-34245447D01*
X30720490Y-34204522D01*
X30708415Y-34194532D01*
X30570773Y-34080665D01*
X30570772Y-34080664D01*
X30567798Y-34078204D01*
X30549979Y-34068569D01*
X30472845Y-34026863D01*
X30393479Y-33983950D01*
X30376028Y-33978548D01*
X30296139Y-33953818D01*
X30253095Y-33921146D01*
X30240500Y-33878351D01*
X30240500Y-33682340D01*
X30258982Y-33631560D01*
X30263639Y-33626479D01*
X30914130Y-32975988D01*
X30917130Y-32973140D01*
X30942743Y-32950078D01*
X30948915Y-32944521D01*
X30952292Y-32936935D01*
X30952294Y-32936933D01*
X30959479Y-32920794D01*
X30965394Y-32909900D01*
X30975018Y-32895080D01*
X30975019Y-32895078D01*
X30979542Y-32888113D01*
X30980841Y-32879911D01*
X30983541Y-32872878D01*
X31018995Y-32832095D01*
X31072369Y-32823642D01*
X31093160Y-32830801D01*
X31116027Y-32842453D01*
X31116031Y-32842454D01*
X31121567Y-32845275D01*
X31127706Y-32846247D01*
X31127708Y-32846248D01*
X31188328Y-32855849D01*
X31231831Y-32878015D01*
X31614722Y-33260906D01*
X31619377Y-33265985D01*
X31644072Y-33295415D01*
X31677338Y-33314621D01*
X31683145Y-33318321D01*
X31703498Y-33332572D01*
X31714607Y-33340351D01*
X31721283Y-33342140D01*
X31727547Y-33345061D01*
X31727497Y-33345169D01*
X31727907Y-33345339D01*
X31727948Y-33345228D01*
X31734444Y-33347592D01*
X31740428Y-33351047D01*
X31778266Y-33357719D01*
X31784976Y-33359207D01*
X31807466Y-33365233D01*
X31815404Y-33367360D01*
X31815405Y-33367360D01*
X31822078Y-33369148D01*
X31828961Y-33368546D01*
X31828963Y-33368546D01*
X31860335Y-33365801D01*
X31867220Y-33365500D01*
X35532783Y-33365500D01*
X35539669Y-33365801D01*
X35571037Y-33368546D01*
X35571039Y-33368546D01*
X35577922Y-33369148D01*
X35615024Y-33359207D01*
X35621734Y-33357719D01*
X35659572Y-33351047D01*
X35665556Y-33347592D01*
X35672052Y-33345228D01*
X35672093Y-33345339D01*
X35672503Y-33345169D01*
X35672453Y-33345061D01*
X35678717Y-33342140D01*
X35685393Y-33340351D01*
X35696503Y-33332572D01*
X35716855Y-33318321D01*
X35722662Y-33314621D01*
X35755928Y-33295415D01*
X35780623Y-33265985D01*
X35785268Y-33260916D01*
X36105140Y-32941044D01*
X36154115Y-32918208D01*
X36206313Y-32932194D01*
X36237308Y-32976460D01*
X36240000Y-32996907D01*
X36240000Y-33295184D01*
X36240494Y-33307743D01*
X36241467Y-33320101D01*
X36242943Y-33332572D01*
X36243071Y-33333379D01*
X36251665Y-33387642D01*
X36251665Y-33412358D01*
X36245035Y-33454219D01*
X36242943Y-33467428D01*
X36241467Y-33479899D01*
X36240494Y-33492257D01*
X36240000Y-33504816D01*
X36240000Y-34795184D01*
X36240031Y-34795971D01*
X36240371Y-34804605D01*
X36240494Y-34807743D01*
X36241467Y-34820101D01*
X36242943Y-34832572D01*
X36251666Y-34887644D01*
X36251666Y-34912355D01*
X36242943Y-34967429D01*
X36241467Y-34979899D01*
X36240494Y-34992257D01*
X36240000Y-35004816D01*
X36240000Y-35801004D01*
X36221518Y-35851784D01*
X36216861Y-35856865D01*
X36160002Y-35913724D01*
X36155188Y-35918752D01*
X36150531Y-35923833D01*
X36118131Y-35977220D01*
X36099649Y-36028000D01*
X36090000Y-36082722D01*
X36090000Y-36095184D01*
X36090494Y-36107743D01*
X36091467Y-36120101D01*
X36092943Y-36132572D01*
X36093071Y-36133379D01*
X36101665Y-36187642D01*
X36101665Y-36212358D01*
X36095035Y-36254219D01*
X36092943Y-36267428D01*
X36091467Y-36279899D01*
X36090494Y-36292257D01*
X36090000Y-36304816D01*
X36090000Y-36703737D01*
X36067946Y-36758493D01*
X36041453Y-36786046D01*
X34965800Y-37904725D01*
X34955193Y-37915756D01*
X34906674Y-37939549D01*
X34898247Y-37940000D01*
X34676437Y-37940000D01*
X34650030Y-37942194D01*
X34624310Y-37946498D01*
X34592259Y-37960936D01*
X34554666Y-37977870D01*
X34554664Y-37977871D01*
X34550025Y-37979961D01*
X34547543Y-37981971D01*
X34495308Y-37992716D01*
X34450955Y-37970420D01*
X34444294Y-37963759D01*
X34432352Y-37957674D01*
X34388402Y-37935281D01*
X34328433Y-37904725D01*
X34322294Y-37903753D01*
X34322292Y-37903752D01*
X34206143Y-37885356D01*
X34200000Y-37884383D01*
X34193857Y-37885356D01*
X34077708Y-37903752D01*
X34077706Y-37903753D01*
X34071567Y-37904725D01*
X34011598Y-37935281D01*
X33967649Y-37957674D01*
X33955706Y-37963759D01*
X33863759Y-38055706D01*
X33804725Y-38171567D01*
X33784383Y-38300000D01*
X33785356Y-38306143D01*
X33797463Y-38382580D01*
X33804725Y-38428433D01*
X33807546Y-38433969D01*
X33807547Y-38433973D01*
X33838319Y-38494365D01*
X33844905Y-38548002D01*
X33823791Y-38586092D01*
X33272386Y-39137496D01*
X32723521Y-39686361D01*
X32674545Y-39709199D01*
X32667660Y-39709500D01*
X31661757Y-39709500D01*
X31610977Y-39691018D01*
X31583957Y-39644218D01*
X31593341Y-39591000D01*
X31605896Y-39574639D01*
X31636241Y-39544294D01*
X31695275Y-39428433D01*
X31715617Y-39300000D01*
X31695275Y-39171567D01*
X31642139Y-39067281D01*
X31639064Y-39061246D01*
X31639063Y-39061245D01*
X31636241Y-39055706D01*
X31544294Y-38963759D01*
X31428433Y-38904725D01*
X31422294Y-38903753D01*
X31422292Y-38903752D01*
X31306143Y-38885356D01*
X31300000Y-38884383D01*
X31293857Y-38885356D01*
X31177708Y-38903752D01*
X31177706Y-38903753D01*
X31171567Y-38904725D01*
X31166031Y-38907546D01*
X31166027Y-38907547D01*
X31114657Y-38933722D01*
X31061020Y-38940308D01*
X31015699Y-38910877D01*
X31008401Y-38899198D01*
X30989064Y-38861246D01*
X30989063Y-38861245D01*
X30986241Y-38855706D01*
X30894294Y-38763759D01*
X30778433Y-38704725D01*
X30772294Y-38703753D01*
X30772292Y-38703752D01*
X30656143Y-38685356D01*
X30650000Y-38684383D01*
X30643857Y-38685356D01*
X30527708Y-38703752D01*
X30527706Y-38703753D01*
X30521567Y-38704725D01*
X30405706Y-38763759D01*
X30313759Y-38855706D01*
X30310937Y-38861245D01*
X30310936Y-38861246D01*
X30291599Y-38899198D01*
X30254725Y-38971567D01*
X30253753Y-38977707D01*
X30251542Y-38991663D01*
X30225342Y-39038926D01*
X30221784Y-39041607D01*
X30216088Y-39043794D01*
X30197724Y-39062158D01*
X30188304Y-39070205D01*
X30167281Y-39085479D01*
X30162749Y-39093329D01*
X30150196Y-39109686D01*
X29373521Y-39886361D01*
X29324545Y-39909199D01*
X29317660Y-39909500D01*
X27123014Y-39909500D01*
X27072234Y-39891018D01*
X27052624Y-39866365D01*
X26999064Y-39761246D01*
X26999063Y-39761245D01*
X26996241Y-39755706D01*
X26904294Y-39663759D01*
X26788433Y-39604725D01*
X26782294Y-39603753D01*
X26782292Y-39603752D01*
X26666143Y-39585356D01*
X26660000Y-39584383D01*
X26653857Y-39585356D01*
X26537708Y-39603752D01*
X26537706Y-39603753D01*
X26531567Y-39604725D01*
X26415706Y-39663759D01*
X26323759Y-39755706D01*
X26264725Y-39871567D01*
X26263753Y-39877706D01*
X26263752Y-39877708D01*
X26258717Y-39909500D01*
X26244383Y-40000000D01*
X26264725Y-40128433D01*
X26267548Y-40133973D01*
X26267548Y-40133974D01*
X26272980Y-40144636D01*
X26279565Y-40198272D01*
X26250132Y-40243593D01*
X26202590Y-40259500D01*
X25858375Y-40259500D01*
X25854240Y-40259392D01*
X25819827Y-40257588D01*
X25819825Y-40257588D01*
X25811538Y-40257154D01*
X25803788Y-40260129D01*
X25803787Y-40260129D01*
X25787288Y-40266462D01*
X25775403Y-40269983D01*
X25767136Y-40271740D01*
X25749994Y-40275384D01*
X25743276Y-40280265D01*
X25743274Y-40280266D01*
X25742664Y-40280709D01*
X25724544Y-40290547D01*
X25723843Y-40290816D01*
X25723842Y-40290817D01*
X25716088Y-40293793D01*
X25697720Y-40312161D01*
X25688294Y-40320212D01*
X25667281Y-40335479D01*
X25663130Y-40342669D01*
X25662751Y-40343325D01*
X25650196Y-40359685D01*
X24735870Y-41274012D01*
X24732870Y-41276860D01*
X24701085Y-41305479D01*
X24697707Y-41313067D01*
X24692828Y-41319782D01*
X24690353Y-41317984D01*
X24662394Y-41346932D01*
X24608650Y-41352577D01*
X24571906Y-41331787D01*
X24463639Y-41223521D01*
X24440801Y-41174545D01*
X24440500Y-41167659D01*
X24440500Y-39258375D01*
X24440608Y-39254240D01*
X24442412Y-39219827D01*
X24442412Y-39219825D01*
X24442846Y-39211538D01*
X24439871Y-39203787D01*
X24433538Y-39187288D01*
X24430017Y-39175403D01*
X24426342Y-39158116D01*
X24424616Y-39149994D01*
X24419734Y-39143274D01*
X24419291Y-39142664D01*
X24409453Y-39124544D01*
X24409184Y-39123843D01*
X24409183Y-39123842D01*
X24406207Y-39116088D01*
X24387839Y-39097720D01*
X24379788Y-39088294D01*
X24369402Y-39073999D01*
X24364521Y-39067281D01*
X24357334Y-39063131D01*
X24357330Y-39063128D01*
X24356676Y-39062751D01*
X24340317Y-39050198D01*
X24230427Y-38940308D01*
X24113639Y-38823521D01*
X24090801Y-38774544D01*
X24090500Y-38767659D01*
X24090500Y-33063014D01*
X24108982Y-33012234D01*
X24133633Y-32992625D01*
X24244294Y-32936241D01*
X24336241Y-32844294D01*
X24355659Y-32806185D01*
X24375035Y-32768157D01*
X24395275Y-32728433D01*
X24397242Y-32716018D01*
X24414644Y-32606143D01*
X24415617Y-32600000D01*
X24399615Y-32498969D01*
X24396248Y-32477708D01*
X24396247Y-32477706D01*
X24395275Y-32471567D01*
X24348845Y-32380443D01*
X24339064Y-32361246D01*
X24339063Y-32361245D01*
X24336241Y-32355706D01*
X24313139Y-32332604D01*
X24290301Y-32283628D01*
X24290000Y-32276743D01*
X24290000Y-31309528D01*
X24610000Y-31309528D01*
X24610000Y-32419741D01*
X24613884Y-32430412D01*
X24617343Y-32432409D01*
X24661517Y-32424819D01*
X24670263Y-32422245D01*
X24824891Y-32356450D01*
X24832804Y-32351937D01*
X24968153Y-32252331D01*
X24974818Y-32246115D01*
X25083620Y-32118049D01*
X25088677Y-32110465D01*
X25165095Y-31960808D01*
X25168275Y-31952258D01*
X25208470Y-31787998D01*
X25209525Y-31781059D01*
X25209923Y-31774642D01*
X25210000Y-31772175D01*
X25210000Y-31313930D01*
X25206116Y-31303259D01*
X25200472Y-31300000D01*
X24623930Y-31300000D01*
X24613259Y-31303884D01*
X24610000Y-31309528D01*
X24290000Y-31309528D01*
X24290000Y-29860259D01*
X24286116Y-29849588D01*
X24282657Y-29847591D01*
X24238483Y-29855181D01*
X24229737Y-29857755D01*
X24075109Y-29923550D01*
X24067196Y-29928063D01*
X23931847Y-30027669D01*
X23925182Y-30033885D01*
X23816380Y-30161951D01*
X23811323Y-30169535D01*
X23734905Y-30319192D01*
X23731725Y-30327742D01*
X23691530Y-30492002D01*
X23690475Y-30498941D01*
X23690077Y-30505358D01*
X23690000Y-30507825D01*
X23690000Y-30619160D01*
X23671518Y-30669940D01*
X23624718Y-30696960D01*
X23571500Y-30687576D01*
X23555139Y-30675021D01*
X23286945Y-30406827D01*
X23264107Y-30357851D01*
X23274116Y-30311946D01*
X23307604Y-30252996D01*
X23315945Y-30227922D01*
X23368935Y-30068630D01*
X23368936Y-30068625D01*
X23370156Y-30064958D01*
X23394993Y-29868351D01*
X23395389Y-29840000D01*
X23376051Y-29642777D01*
X23318774Y-29453065D01*
X23316963Y-29449660D01*
X23316961Y-29449654D01*
X23227551Y-29281500D01*
X23225739Y-29278092D01*
X23218919Y-29269729D01*
X23102930Y-29127514D01*
X23100490Y-29124522D01*
X23088415Y-29114532D01*
X22950773Y-29000665D01*
X22950772Y-29000664D01*
X22947798Y-28998204D01*
X22929979Y-28988569D01*
X22910059Y-28977799D01*
X22773479Y-28903950D01*
X22584172Y-28845350D01*
X22387089Y-28824636D01*
X22383243Y-28824986D01*
X22383242Y-28824986D01*
X22377133Y-28825542D01*
X22189735Y-28842596D01*
X22186028Y-28843687D01*
X22003338Y-28897456D01*
X22003335Y-28897457D01*
X21999629Y-28898548D01*
X21824010Y-28990359D01*
X21821003Y-28992777D01*
X21821001Y-28992778D01*
X21779124Y-29026448D01*
X21669570Y-29114532D01*
X21542189Y-29266339D01*
X21540327Y-29269727D01*
X21540325Y-29269729D01*
X21533854Y-29281500D01*
X21446720Y-29439996D01*
X21445551Y-29443680D01*
X21445551Y-29443681D01*
X21424302Y-29510667D01*
X21391330Y-29553482D01*
X21338552Y-29565086D01*
X21290662Y-29540050D01*
X21270000Y-29486780D01*
X21270000Y-27657291D01*
X21288482Y-27606511D01*
X21335282Y-27579491D01*
X21388500Y-27588875D01*
X21424940Y-27635515D01*
X21435915Y-27673790D01*
X21526498Y-27850045D01*
X21649590Y-28005348D01*
X21800504Y-28133786D01*
X21973490Y-28230465D01*
X21977152Y-28231655D01*
X21977157Y-28231657D01*
X22099241Y-28271324D01*
X22161960Y-28291702D01*
X22165797Y-28292160D01*
X22165799Y-28292160D01*
X22354892Y-28314708D01*
X22354895Y-28314708D01*
X22358735Y-28315166D01*
X22556320Y-28299963D01*
X22747190Y-28246671D01*
X22841858Y-28198851D01*
X22920619Y-28159066D01*
X22920621Y-28159065D01*
X22924073Y-28157321D01*
X23080232Y-28035316D01*
X23108707Y-28002327D01*
X23207196Y-27888228D01*
X23207200Y-27888223D01*
X23209720Y-27885303D01*
X23211626Y-27881947D01*
X23211630Y-27881942D01*
X23305695Y-27716356D01*
X23307604Y-27712996D01*
X23319503Y-27677226D01*
X23368935Y-27528630D01*
X23368936Y-27528625D01*
X23370156Y-27524958D01*
X23394993Y-27328351D01*
X23395389Y-27300000D01*
X23377748Y-27120084D01*
X23376428Y-27106621D01*
X23376428Y-27106620D01*
X23376051Y-27102777D01*
X23351968Y-27023008D01*
X23319891Y-26916765D01*
X23318774Y-26913065D01*
X23316963Y-26909660D01*
X23316961Y-26909654D01*
X23227551Y-26741500D01*
X23225739Y-26738092D01*
X23218919Y-26729729D01*
X23102930Y-26587514D01*
X23100490Y-26584522D01*
X23088415Y-26574532D01*
X22950773Y-26460665D01*
X22950772Y-26460664D01*
X22947798Y-26458204D01*
X22929979Y-26448569D01*
X22910059Y-26437799D01*
X22773479Y-26363950D01*
X22584172Y-26305350D01*
X22387089Y-26284636D01*
X22383243Y-26284986D01*
X22383242Y-26284986D01*
X22335487Y-26289332D01*
X22189735Y-26302596D01*
X22186028Y-26303687D01*
X22003338Y-26357456D01*
X22003335Y-26357457D01*
X21999629Y-26358548D01*
X21824010Y-26450359D01*
X21821003Y-26452777D01*
X21821001Y-26452778D01*
X21811192Y-26460665D01*
X21669570Y-26574532D01*
X21542189Y-26726339D01*
X21540327Y-26729727D01*
X21540325Y-26729729D01*
X21448582Y-26896609D01*
X21446720Y-26899996D01*
X21445551Y-26903680D01*
X21445551Y-26903681D01*
X21424302Y-26970667D01*
X21391330Y-27013482D01*
X21338552Y-27025086D01*
X21290662Y-27000050D01*
X21270000Y-26946780D01*
X21270000Y-26259528D01*
X23690000Y-26259528D01*
X23690000Y-26682079D01*
X23690267Y-26686665D01*
X23704817Y-26811467D01*
X23706916Y-26820345D01*
X23764248Y-26978294D01*
X23768334Y-26986454D01*
X23860468Y-27126982D01*
X23866318Y-27133979D01*
X23988313Y-27249544D01*
X23995611Y-27255004D01*
X24140915Y-27339404D01*
X24149285Y-27343043D01*
X24276667Y-27381623D01*
X24288007Y-27380999D01*
X24289149Y-27379928D01*
X24290000Y-27376364D01*
X24290000Y-26263930D01*
X24286116Y-26253259D01*
X24280472Y-26250000D01*
X23703930Y-26250000D01*
X23693259Y-26253884D01*
X23690000Y-26259528D01*
X21270000Y-26259528D01*
X21270000Y-25457825D01*
X23690000Y-25457825D01*
X23690000Y-25916070D01*
X23693884Y-25926741D01*
X23699528Y-25930000D01*
X24276070Y-25930000D01*
X24286741Y-25926116D01*
X24290000Y-25920472D01*
X24290000Y-24810259D01*
X24286116Y-24799588D01*
X24282657Y-24797591D01*
X24238483Y-24805181D01*
X24229737Y-24807755D01*
X24075109Y-24873550D01*
X24067196Y-24878063D01*
X23931847Y-24977669D01*
X23925182Y-24983885D01*
X23816380Y-25111951D01*
X23811323Y-25119535D01*
X23734905Y-25269192D01*
X23731725Y-25277742D01*
X23691530Y-25442002D01*
X23690475Y-25448941D01*
X23690077Y-25455358D01*
X23690000Y-25457825D01*
X21270000Y-25457825D01*
X21270000Y-24787148D01*
X21272010Y-24769443D01*
X21272121Y-24768959D01*
X21272121Y-24768957D01*
X21274115Y-24760286D01*
X21272151Y-24751607D01*
X21272166Y-24742713D01*
X21272741Y-24742714D01*
X21272204Y-24734802D01*
X21286260Y-24574138D01*
X21288651Y-24560576D01*
X21335154Y-24387027D01*
X21339862Y-24374092D01*
X21415794Y-24211259D01*
X21422674Y-24199342D01*
X21525727Y-24052165D01*
X21534579Y-24041616D01*
X21661616Y-23914579D01*
X21672165Y-23905727D01*
X21700435Y-23885932D01*
X21819342Y-23802674D01*
X21831259Y-23795794D01*
X21994096Y-23719860D01*
X22007027Y-23715154D01*
X22180579Y-23668650D01*
X22194134Y-23666261D01*
X22268767Y-23659731D01*
X22354399Y-23652240D01*
X22362146Y-23652776D01*
X22362147Y-23652105D01*
X22371042Y-23652121D01*
X22379714Y-23654115D01*
X22389291Y-23651948D01*
X22406726Y-23650000D01*
X25091000Y-23650000D01*
X25141780Y-23668482D01*
G37*
G04 #@! TD.AperFunction*
G04 #@! TA.AperFunction,Conductor*
G36*
X21388500Y-30128875D02*
G01*
X21424940Y-30175515D01*
X21435915Y-30213790D01*
X21526498Y-30390045D01*
X21649590Y-30545348D01*
X21800504Y-30673786D01*
X21973490Y-30770465D01*
X21977152Y-30771655D01*
X21977157Y-30771657D01*
X22093727Y-30809532D01*
X22161960Y-30831702D01*
X22165797Y-30832160D01*
X22165799Y-30832160D01*
X22354892Y-30854708D01*
X22354895Y-30854708D01*
X22358735Y-30855166D01*
X22556320Y-30839963D01*
X22747190Y-30786671D01*
X22826169Y-30746776D01*
X22855178Y-30732123D01*
X22908837Y-30725724D01*
X22946658Y-30746776D01*
X23236361Y-31036479D01*
X23259199Y-31085455D01*
X23259500Y-31092340D01*
X23259500Y-31714624D01*
X23241018Y-31765404D01*
X23194371Y-31791903D01*
X22616125Y-32370149D01*
X22611325Y-32380443D01*
X22613011Y-32386737D01*
X23191109Y-32964835D01*
X23213886Y-32975456D01*
X23252098Y-33013668D01*
X23259500Y-33047055D01*
X23259500Y-34254624D01*
X23241018Y-34305404D01*
X23194371Y-34331903D01*
X22616125Y-34910149D01*
X22611325Y-34920443D01*
X22613011Y-34926737D01*
X23191109Y-35504835D01*
X23213886Y-35515456D01*
X23252098Y-35553668D01*
X23259500Y-35587055D01*
X23259500Y-36717630D01*
X23241018Y-36768410D01*
X23194218Y-36795430D01*
X23141000Y-36786046D01*
X23119279Y-36767560D01*
X23102930Y-36747513D01*
X23102927Y-36747510D01*
X23100490Y-36744522D01*
X23089654Y-36735557D01*
X22950773Y-36620665D01*
X22950772Y-36620664D01*
X22947798Y-36618204D01*
X22929979Y-36608569D01*
X22910059Y-36597799D01*
X22773479Y-36523950D01*
X22584172Y-36465350D01*
X22387089Y-36444636D01*
X22383243Y-36444986D01*
X22383242Y-36444986D01*
X22335487Y-36449332D01*
X22189735Y-36462596D01*
X22186028Y-36463687D01*
X22003338Y-36517456D01*
X22003335Y-36517457D01*
X21999629Y-36518548D01*
X21824010Y-36610359D01*
X21821003Y-36612777D01*
X21821001Y-36612778D01*
X21811192Y-36620665D01*
X21669570Y-36734532D01*
X21542189Y-36886339D01*
X21540327Y-36889727D01*
X21540325Y-36889729D01*
X21500821Y-36961587D01*
X21446720Y-37059996D01*
X21445551Y-37063680D01*
X21445551Y-37063681D01*
X21424302Y-37130667D01*
X21391330Y-37173482D01*
X21338552Y-37185086D01*
X21290662Y-37160050D01*
X21270000Y-37106780D01*
X21270000Y-35740994D01*
X21790774Y-35740994D01*
X21792112Y-35745988D01*
X21797844Y-35750867D01*
X21804166Y-35755261D01*
X21970324Y-35848123D01*
X21977358Y-35851197D01*
X22158394Y-35910018D01*
X22165907Y-35911670D01*
X22354903Y-35934206D01*
X22362604Y-35934367D01*
X22552381Y-35919765D01*
X22559952Y-35918431D01*
X22743293Y-35867240D01*
X22750454Y-35864462D01*
X22920350Y-35778642D01*
X22926852Y-35774516D01*
X22961566Y-35747395D01*
X22967585Y-35737763D01*
X22966946Y-35733220D01*
X22389851Y-35156125D01*
X22379557Y-35151325D01*
X22373263Y-35153011D01*
X21795574Y-35730700D01*
X21790774Y-35740994D01*
X21270000Y-35740994D01*
X21270000Y-35275477D01*
X21288482Y-35224697D01*
X21335282Y-35197677D01*
X21388500Y-35207061D01*
X21423236Y-35248457D01*
X21424940Y-35253702D01*
X21435318Y-35289895D01*
X21438146Y-35297037D01*
X21525157Y-35466342D01*
X21529316Y-35472796D01*
X21552328Y-35501830D01*
X21561999Y-35507779D01*
X21566631Y-35507095D01*
X22143875Y-34929851D01*
X22148675Y-34919557D01*
X22146989Y-34913263D01*
X21569675Y-34335949D01*
X21559381Y-34331149D01*
X21554485Y-34332461D01*
X21545089Y-34343659D01*
X21540741Y-34350009D01*
X21449043Y-34516806D01*
X21446012Y-34523878D01*
X21424302Y-34592318D01*
X21391331Y-34635133D01*
X21338552Y-34646737D01*
X21290662Y-34621701D01*
X21270000Y-34568431D01*
X21270000Y-34101729D01*
X21791991Y-34101729D01*
X21792722Y-34106448D01*
X22370149Y-34683875D01*
X22380443Y-34688675D01*
X22386737Y-34686989D01*
X22963710Y-34110016D01*
X22968510Y-34099722D01*
X22967224Y-34094923D01*
X22950493Y-34081082D01*
X22944120Y-34076784D01*
X22776680Y-33986249D01*
X22769599Y-33983272D01*
X22587765Y-33926986D01*
X22580224Y-33925438D01*
X22390928Y-33905542D01*
X22383238Y-33905488D01*
X22193678Y-33922739D01*
X22186122Y-33924180D01*
X22003526Y-33977921D01*
X21996389Y-33980805D01*
X21827714Y-34068987D01*
X21821270Y-34073203D01*
X21797875Y-34092013D01*
X21791991Y-34101729D01*
X21270000Y-34101729D01*
X21270000Y-33200994D01*
X21790774Y-33200994D01*
X21792112Y-33205988D01*
X21797844Y-33210867D01*
X21804166Y-33215261D01*
X21970324Y-33308123D01*
X21977358Y-33311197D01*
X22158394Y-33370018D01*
X22165907Y-33371670D01*
X22354903Y-33394206D01*
X22362604Y-33394367D01*
X22552381Y-33379765D01*
X22559952Y-33378431D01*
X22743293Y-33327240D01*
X22750454Y-33324462D01*
X22920350Y-33238642D01*
X22926852Y-33234516D01*
X22961566Y-33207395D01*
X22967585Y-33197763D01*
X22966946Y-33193220D01*
X22389851Y-32616125D01*
X22379557Y-32611325D01*
X22373263Y-32613011D01*
X21795574Y-33190700D01*
X21790774Y-33200994D01*
X21270000Y-33200994D01*
X21270000Y-32735477D01*
X21288482Y-32684697D01*
X21335282Y-32657677D01*
X21388500Y-32667061D01*
X21423236Y-32708457D01*
X21424940Y-32713702D01*
X21435318Y-32749895D01*
X21438146Y-32757037D01*
X21525157Y-32926342D01*
X21529316Y-32932796D01*
X21552328Y-32961830D01*
X21561999Y-32967779D01*
X21566631Y-32967095D01*
X22143875Y-32389851D01*
X22148675Y-32379557D01*
X22146989Y-32373263D01*
X21569675Y-31795949D01*
X21559381Y-31791149D01*
X21554485Y-31792461D01*
X21545089Y-31803659D01*
X21540741Y-31810009D01*
X21449043Y-31976806D01*
X21446012Y-31983878D01*
X21424302Y-32052318D01*
X21391331Y-32095133D01*
X21338552Y-32106737D01*
X21290662Y-32081701D01*
X21270000Y-32028431D01*
X21270000Y-31561729D01*
X21791991Y-31561729D01*
X21792722Y-31566448D01*
X22370149Y-32143875D01*
X22380443Y-32148675D01*
X22386737Y-32146989D01*
X22963710Y-31570016D01*
X22968510Y-31559722D01*
X22967224Y-31554923D01*
X22950493Y-31541082D01*
X22944120Y-31536784D01*
X22776680Y-31446249D01*
X22769599Y-31443272D01*
X22587765Y-31386986D01*
X22580224Y-31385438D01*
X22390928Y-31365542D01*
X22383238Y-31365488D01*
X22193678Y-31382739D01*
X22186122Y-31384180D01*
X22003526Y-31437921D01*
X21996389Y-31440805D01*
X21827714Y-31528987D01*
X21821270Y-31533203D01*
X21797875Y-31552013D01*
X21791991Y-31561729D01*
X21270000Y-31561729D01*
X21270000Y-30197291D01*
X21288482Y-30146511D01*
X21335282Y-30119491D01*
X21388500Y-30128875D01*
G37*
G04 #@! TD.AperFunction*
G04 #@! TA.AperFunction,Conductor*
G36*
X37610557Y-23652010D02*
G01*
X37611041Y-23652121D01*
X37611043Y-23652121D01*
X37619714Y-23654115D01*
X37628393Y-23652151D01*
X37637287Y-23652166D01*
X37637286Y-23652741D01*
X37645197Y-23652204D01*
X37805866Y-23666261D01*
X37819421Y-23668650D01*
X37992973Y-23715154D01*
X38005904Y-23719860D01*
X38168741Y-23795794D01*
X38180658Y-23802674D01*
X38299565Y-23885932D01*
X38327835Y-23905727D01*
X38338384Y-23914579D01*
X38465421Y-24041616D01*
X38474273Y-24052165D01*
X38577326Y-24199342D01*
X38584206Y-24211259D01*
X38660138Y-24374092D01*
X38664846Y-24387027D01*
X38711349Y-24560576D01*
X38713740Y-24574138D01*
X38727760Y-24734399D01*
X38727224Y-24742146D01*
X38727895Y-24742147D01*
X38727879Y-24751042D01*
X38725885Y-24759714D01*
X38727849Y-24768392D01*
X38728052Y-24769290D01*
X38730000Y-24786726D01*
X38730000Y-26945208D01*
X38711518Y-26995988D01*
X38664718Y-27023008D01*
X38611500Y-27013624D01*
X38575372Y-26968041D01*
X38559891Y-26916765D01*
X38558774Y-26913065D01*
X38556963Y-26909660D01*
X38556961Y-26909654D01*
X38467551Y-26741500D01*
X38465739Y-26738092D01*
X38458919Y-26729729D01*
X38342930Y-26587514D01*
X38340490Y-26584522D01*
X38328415Y-26574532D01*
X38190773Y-26460665D01*
X38190772Y-26460664D01*
X38187798Y-26458204D01*
X38169979Y-26448569D01*
X38150059Y-26437799D01*
X38013479Y-26363950D01*
X37824172Y-26305350D01*
X37627089Y-26284636D01*
X37623243Y-26284986D01*
X37623242Y-26284986D01*
X37575487Y-26289332D01*
X37429735Y-26302596D01*
X37426028Y-26303687D01*
X37243338Y-26357456D01*
X37243335Y-26357457D01*
X37239629Y-26358548D01*
X37064010Y-26450359D01*
X37061003Y-26452777D01*
X37061001Y-26452778D01*
X37051192Y-26460665D01*
X36909570Y-26574532D01*
X36782189Y-26726339D01*
X36780327Y-26729727D01*
X36780325Y-26729729D01*
X36688582Y-26896609D01*
X36686720Y-26899996D01*
X36626800Y-27088889D01*
X36604710Y-27285823D01*
X36621292Y-27483297D01*
X36675915Y-27673790D01*
X36677677Y-27677218D01*
X36677680Y-27677226D01*
X36691714Y-27704531D01*
X36698488Y-27758144D01*
X36677312Y-27796504D01*
X36189094Y-28284722D01*
X36184013Y-28289379D01*
X36154585Y-28314072D01*
X36151130Y-28320057D01*
X36135382Y-28347333D01*
X36131679Y-28353145D01*
X36109649Y-28384607D01*
X36107860Y-28391283D01*
X36104939Y-28397547D01*
X36104831Y-28397497D01*
X36104661Y-28397907D01*
X36104772Y-28397948D01*
X36102408Y-28404444D01*
X36098953Y-28410428D01*
X36097753Y-28417233D01*
X36092282Y-28448261D01*
X36090793Y-28454976D01*
X36080852Y-28492078D01*
X36081454Y-28498961D01*
X36081454Y-28498963D01*
X36084199Y-28530335D01*
X36084500Y-28537220D01*
X36084500Y-29884282D01*
X36066018Y-29935062D01*
X36019218Y-29962082D01*
X35965821Y-29952594D01*
X35859085Y-29890596D01*
X35850715Y-29886957D01*
X35723333Y-29848377D01*
X35711993Y-29849001D01*
X35710851Y-29850072D01*
X35710000Y-29853636D01*
X35710000Y-32411094D01*
X35691518Y-32461874D01*
X35686861Y-32466955D01*
X35442455Y-32711361D01*
X35393479Y-32734199D01*
X35386594Y-32734500D01*
X32013406Y-32734500D01*
X31962626Y-32716018D01*
X31957545Y-32711361D01*
X31678015Y-32431831D01*
X31655849Y-32388328D01*
X31646248Y-32327708D01*
X31646247Y-32327706D01*
X31645275Y-32321567D01*
X31586241Y-32205706D01*
X31513639Y-32133104D01*
X31490801Y-32084128D01*
X31490500Y-32077243D01*
X31490500Y-31572340D01*
X31508982Y-31521560D01*
X31513639Y-31516479D01*
X31720590Y-31309528D01*
X34790000Y-31309528D01*
X34790000Y-31732079D01*
X34790267Y-31736665D01*
X34804817Y-31861467D01*
X34806916Y-31870345D01*
X34864248Y-32028294D01*
X34868334Y-32036454D01*
X34960468Y-32176982D01*
X34966318Y-32183979D01*
X35088313Y-32299544D01*
X35095611Y-32305004D01*
X35240915Y-32389404D01*
X35249285Y-32393043D01*
X35376667Y-32431623D01*
X35388007Y-32430999D01*
X35389149Y-32429928D01*
X35390000Y-32426364D01*
X35390000Y-31313930D01*
X35386116Y-31303259D01*
X35380472Y-31300000D01*
X34803930Y-31300000D01*
X34793259Y-31303884D01*
X34790000Y-31309528D01*
X31720590Y-31309528D01*
X31859215Y-31170903D01*
X31908191Y-31148065D01*
X31923636Y-31148631D01*
X31925618Y-31149250D01*
X31998244Y-31150582D01*
X32051878Y-31151565D01*
X32051879Y-31151565D01*
X32057504Y-31151668D01*
X32062931Y-31150188D01*
X32062934Y-31150188D01*
X32121135Y-31134320D01*
X32184767Y-31116972D01*
X32236098Y-31085455D01*
X32292384Y-31050895D01*
X32292385Y-31050894D01*
X32297177Y-31047952D01*
X32300950Y-31043784D01*
X32300952Y-31043782D01*
X32381920Y-30954329D01*
X32381921Y-30954328D01*
X32385697Y-30950156D01*
X32390542Y-30940157D01*
X32440757Y-30836512D01*
X32443211Y-30831447D01*
X32444145Y-30825897D01*
X32464590Y-30704377D01*
X32464590Y-30704372D01*
X32465096Y-30701367D01*
X32465235Y-30690000D01*
X32446535Y-30559424D01*
X32441743Y-30548883D01*
X32400289Y-30457713D01*
X32391938Y-30439345D01*
X32384376Y-30430569D01*
X32365230Y-30380035D01*
X32383045Y-30329017D01*
X32429486Y-30301387D01*
X32444223Y-30300000D01*
X34634954Y-30300000D01*
X34641298Y-30300399D01*
X34649347Y-30303489D01*
X34674973Y-30300524D01*
X34684051Y-30300000D01*
X34689494Y-30300000D01*
X34694123Y-30298863D01*
X34694736Y-30298789D01*
X34703331Y-30297243D01*
X34717975Y-30295548D01*
X34727439Y-30294453D01*
X34727806Y-30297623D01*
X34766114Y-30297353D01*
X34807754Y-30331796D01*
X34817513Y-30384947D01*
X34816354Y-30390554D01*
X34791530Y-30492001D01*
X34790475Y-30498941D01*
X34790077Y-30505358D01*
X34790000Y-30507825D01*
X34790000Y-30966070D01*
X34793884Y-30976741D01*
X34799528Y-30980000D01*
X35376070Y-30980000D01*
X35386741Y-30976116D01*
X35390000Y-30970472D01*
X35390000Y-29860259D01*
X35386116Y-29849588D01*
X35382657Y-29847591D01*
X35338483Y-29855181D01*
X35329737Y-29857755D01*
X35175109Y-29923550D01*
X35167196Y-29928063D01*
X35031847Y-30027669D01*
X35025182Y-30033885D01*
X34969206Y-30099771D01*
X34922242Y-30126504D01*
X34869082Y-30116795D01*
X34834600Y-30075187D01*
X34830000Y-30048622D01*
X34830000Y-27188500D01*
X34848482Y-27137720D01*
X34895282Y-27110700D01*
X34948500Y-27120084D01*
X34963330Y-27131148D01*
X35088313Y-27249544D01*
X35095611Y-27255004D01*
X35240915Y-27339404D01*
X35249285Y-27343043D01*
X35376667Y-27381623D01*
X35388007Y-27380999D01*
X35389149Y-27379928D01*
X35390000Y-27376364D01*
X35390000Y-26259528D01*
X35710000Y-26259528D01*
X35710000Y-27369741D01*
X35713884Y-27380412D01*
X35717343Y-27382409D01*
X35761517Y-27374819D01*
X35770263Y-27372245D01*
X35924891Y-27306450D01*
X35932804Y-27301937D01*
X36068153Y-27202331D01*
X36074818Y-27196115D01*
X36183620Y-27068049D01*
X36188677Y-27060465D01*
X36265095Y-26910808D01*
X36268275Y-26902258D01*
X36308470Y-26737998D01*
X36309525Y-26731059D01*
X36309923Y-26724642D01*
X36310000Y-26722175D01*
X36310000Y-26263930D01*
X36306116Y-26253259D01*
X36300472Y-26250000D01*
X35723930Y-26250000D01*
X35713259Y-26253884D01*
X35710000Y-26259528D01*
X35390000Y-26259528D01*
X35390000Y-24810259D01*
X35387589Y-24803636D01*
X35710000Y-24803636D01*
X35710000Y-25916070D01*
X35713884Y-25926741D01*
X35719528Y-25930000D01*
X36296070Y-25930000D01*
X36306741Y-25926116D01*
X36310000Y-25920472D01*
X36310000Y-25497921D01*
X36309733Y-25493335D01*
X36295183Y-25368533D01*
X36293084Y-25359655D01*
X36235752Y-25201706D01*
X36231666Y-25193546D01*
X36139532Y-25053018D01*
X36133682Y-25046021D01*
X36011687Y-24930456D01*
X36004389Y-24924996D01*
X35859085Y-24840596D01*
X35850715Y-24836957D01*
X35723333Y-24798377D01*
X35711993Y-24799001D01*
X35710851Y-24800072D01*
X35710000Y-24803636D01*
X35387589Y-24803636D01*
X35386116Y-24799588D01*
X35382657Y-24797591D01*
X35338483Y-24805181D01*
X35329737Y-24807755D01*
X35175109Y-24873550D01*
X35167196Y-24878063D01*
X35031847Y-24977669D01*
X35025182Y-24983885D01*
X34969206Y-25049771D01*
X34922242Y-25076504D01*
X34869082Y-25066795D01*
X34834600Y-25025187D01*
X34830000Y-24998622D01*
X34830000Y-23729000D01*
X34848482Y-23678220D01*
X34895282Y-23651200D01*
X34909000Y-23650000D01*
X37592852Y-23650000D01*
X37610557Y-23652010D01*
G37*
G04 #@! TD.AperFunction*
G04 #@! TA.AperFunction,Conductor*
G36*
X38710076Y-27600003D02*
G01*
X38730000Y-27652453D01*
X38730000Y-29486935D01*
X38711518Y-29537715D01*
X38664718Y-29564735D01*
X38611500Y-29555351D01*
X38575372Y-29509769D01*
X38559426Y-29456953D01*
X38556498Y-29449849D01*
X38467138Y-29281787D01*
X38462873Y-29275369D01*
X38448333Y-29257540D01*
X38438579Y-29251726D01*
X38433770Y-29252504D01*
X37856125Y-29830149D01*
X37851325Y-29840443D01*
X37853011Y-29846737D01*
X38431110Y-30424836D01*
X38441404Y-30429636D01*
X38446499Y-30428271D01*
X38446785Y-30427940D01*
X38451219Y-30421654D01*
X38545236Y-30256153D01*
X38548365Y-30249125D01*
X38576039Y-30165933D01*
X38609605Y-30123583D01*
X38662540Y-30112716D01*
X38710076Y-30138419D01*
X38730000Y-30190869D01*
X38730000Y-32025208D01*
X38711518Y-32075988D01*
X38664718Y-32103008D01*
X38611500Y-32093624D01*
X38575372Y-32048041D01*
X38569452Y-32028431D01*
X38558774Y-31993065D01*
X38556963Y-31989660D01*
X38556961Y-31989654D01*
X38467551Y-31821500D01*
X38465739Y-31818092D01*
X38458884Y-31809686D01*
X38355595Y-31683043D01*
X38340490Y-31664522D01*
X38328415Y-31654532D01*
X38190773Y-31540665D01*
X38190772Y-31540664D01*
X38187798Y-31538204D01*
X38169979Y-31528569D01*
X38064731Y-31471662D01*
X38013479Y-31443950D01*
X37824172Y-31385350D01*
X37627089Y-31364636D01*
X37623243Y-31364986D01*
X37623242Y-31364986D01*
X37617133Y-31365542D01*
X37429735Y-31382596D01*
X37426028Y-31383687D01*
X37243338Y-31437456D01*
X37243335Y-31437457D01*
X37239629Y-31438548D01*
X37064010Y-31530359D01*
X37061003Y-31532777D01*
X37061001Y-31532778D01*
X36944002Y-31626848D01*
X36892846Y-31644263D01*
X36842464Y-31624721D01*
X36816430Y-31577366D01*
X36815500Y-31565280D01*
X36815500Y-30660994D01*
X37030774Y-30660994D01*
X37032112Y-30665988D01*
X37037844Y-30670867D01*
X37044166Y-30675261D01*
X37210324Y-30768123D01*
X37217358Y-30771197D01*
X37398394Y-30830018D01*
X37405907Y-30831670D01*
X37594903Y-30854206D01*
X37602604Y-30854367D01*
X37792381Y-30839765D01*
X37799952Y-30838431D01*
X37983293Y-30787240D01*
X37990454Y-30784462D01*
X38160350Y-30698642D01*
X38166852Y-30694516D01*
X38201566Y-30667395D01*
X38207585Y-30657763D01*
X38206946Y-30653220D01*
X37629851Y-30076125D01*
X37619557Y-30071325D01*
X37613263Y-30073011D01*
X37035574Y-30650700D01*
X37030774Y-30660994D01*
X36815500Y-30660994D01*
X36815500Y-30450948D01*
X36833982Y-30400168D01*
X36838639Y-30395087D01*
X37383875Y-29849851D01*
X37388675Y-29839557D01*
X37386989Y-29833263D01*
X36809675Y-29255949D01*
X36784777Y-29244338D01*
X36761111Y-29242267D01*
X36722901Y-29204055D01*
X36715500Y-29170670D01*
X36715500Y-29021729D01*
X37031991Y-29021729D01*
X37032722Y-29026448D01*
X37610149Y-29603875D01*
X37620443Y-29608675D01*
X37626737Y-29606989D01*
X38203710Y-29030016D01*
X38208510Y-29019722D01*
X38207224Y-29014923D01*
X38190493Y-29001082D01*
X38184120Y-28996784D01*
X38016680Y-28906249D01*
X38009599Y-28903272D01*
X37827765Y-28846986D01*
X37820224Y-28845438D01*
X37630928Y-28825542D01*
X37623238Y-28825488D01*
X37433678Y-28842739D01*
X37426122Y-28844180D01*
X37243526Y-28897921D01*
X37236389Y-28900805D01*
X37067714Y-28988987D01*
X37061270Y-28993203D01*
X37037875Y-29012013D01*
X37031991Y-29021729D01*
X36715500Y-29021729D01*
X36715500Y-28683406D01*
X36733982Y-28632626D01*
X36738639Y-28627545D01*
X37121545Y-28244639D01*
X37170521Y-28221801D01*
X37209032Y-28228106D01*
X37210117Y-28228580D01*
X37213490Y-28230465D01*
X37401960Y-28291702D01*
X37405797Y-28292160D01*
X37405799Y-28292160D01*
X37594892Y-28314708D01*
X37594895Y-28314708D01*
X37598735Y-28315166D01*
X37796320Y-28299963D01*
X37987190Y-28246671D01*
X38081858Y-28198851D01*
X38160619Y-28159066D01*
X38160621Y-28159065D01*
X38164073Y-28157321D01*
X38320232Y-28035316D01*
X38348707Y-28002327D01*
X38447196Y-27888228D01*
X38447200Y-27888223D01*
X38449720Y-27885303D01*
X38451626Y-27881947D01*
X38451630Y-27881942D01*
X38545695Y-27716356D01*
X38547604Y-27712996D01*
X38576039Y-27627517D01*
X38609605Y-27585167D01*
X38662540Y-27574300D01*
X38710076Y-27600003D01*
G37*
G04 #@! TD.AperFunction*
G04 #@! TA.AperFunction,Conductor*
G36*
X36596789Y-32541718D02*
G01*
X36627416Y-32584655D01*
X36654757Y-32680003D01*
X36675915Y-32753790D01*
X36766498Y-32930045D01*
X36889590Y-33085348D01*
X37040504Y-33213786D01*
X37213490Y-33310465D01*
X37217152Y-33311655D01*
X37217157Y-33311657D01*
X37276912Y-33331072D01*
X37401960Y-33371702D01*
X37405797Y-33372160D01*
X37405799Y-33372160D01*
X37594892Y-33394708D01*
X37594895Y-33394708D01*
X37598735Y-33395166D01*
X37796320Y-33379963D01*
X37987190Y-33326671D01*
X38081858Y-33278851D01*
X38160619Y-33239066D01*
X38160621Y-33239065D01*
X38164073Y-33237321D01*
X38320232Y-33115316D01*
X38364735Y-33063759D01*
X38447196Y-32968228D01*
X38447200Y-32968223D01*
X38449720Y-32965303D01*
X38451626Y-32961947D01*
X38451630Y-32961942D01*
X38520260Y-32841130D01*
X38547604Y-32792996D01*
X38576039Y-32707517D01*
X38609605Y-32665167D01*
X38662540Y-32654300D01*
X38710076Y-32680003D01*
X38730000Y-32732453D01*
X38730000Y-34566935D01*
X38711518Y-34617715D01*
X38664718Y-34644735D01*
X38611500Y-34635351D01*
X38575372Y-34589769D01*
X38559426Y-34536953D01*
X38556498Y-34529849D01*
X38467138Y-34361787D01*
X38462873Y-34355369D01*
X38448333Y-34337540D01*
X38438579Y-34331726D01*
X38433770Y-34332504D01*
X37856125Y-34910149D01*
X37851325Y-34920443D01*
X37853011Y-34926737D01*
X38431110Y-35504836D01*
X38441404Y-35509636D01*
X38446499Y-35508271D01*
X38446785Y-35507940D01*
X38451219Y-35501654D01*
X38545236Y-35336153D01*
X38548365Y-35329125D01*
X38576039Y-35245933D01*
X38609605Y-35203583D01*
X38662540Y-35192716D01*
X38710076Y-35218419D01*
X38730000Y-35270869D01*
X38730000Y-37105208D01*
X38711518Y-37155988D01*
X38664718Y-37183008D01*
X38611500Y-37173624D01*
X38575372Y-37128041D01*
X38559891Y-37076765D01*
X38558774Y-37073065D01*
X38556963Y-37069660D01*
X38556961Y-37069654D01*
X38467551Y-36901500D01*
X38465739Y-36898092D01*
X38462642Y-36894294D01*
X38342930Y-36747514D01*
X38340490Y-36744522D01*
X38328415Y-36734532D01*
X38190773Y-36620665D01*
X38190772Y-36620664D01*
X38187798Y-36618204D01*
X38183014Y-36615617D01*
X38087104Y-36563759D01*
X38013479Y-36523950D01*
X37824172Y-36465350D01*
X37627089Y-36444636D01*
X37623243Y-36444986D01*
X37623242Y-36444986D01*
X37575487Y-36449332D01*
X37429735Y-36462596D01*
X37426028Y-36463687D01*
X37243338Y-36517456D01*
X37243335Y-36517457D01*
X37239629Y-36518548D01*
X37064010Y-36610359D01*
X37061003Y-36612777D01*
X37061001Y-36612778D01*
X37007610Y-36655706D01*
X36909570Y-36734532D01*
X36782189Y-36886339D01*
X36780327Y-36889727D01*
X36780325Y-36889729D01*
X36773854Y-36901500D01*
X36686720Y-37059996D01*
X36626800Y-37248889D01*
X36604710Y-37445823D01*
X36621292Y-37643297D01*
X36675915Y-37833790D01*
X36766498Y-38010045D01*
X36889590Y-38165348D01*
X37040504Y-38293786D01*
X37043878Y-38295672D01*
X37043880Y-38295673D01*
X37062614Y-38306143D01*
X37213490Y-38390465D01*
X37217152Y-38391655D01*
X37217157Y-38391657D01*
X37311444Y-38422292D01*
X37401960Y-38451702D01*
X37405797Y-38452160D01*
X37405799Y-38452160D01*
X37594892Y-38474708D01*
X37594895Y-38474708D01*
X37598735Y-38475166D01*
X37796320Y-38459963D01*
X37987190Y-38406671D01*
X38081858Y-38358851D01*
X38160619Y-38319066D01*
X38160621Y-38319065D01*
X38164073Y-38317321D01*
X38320232Y-38195316D01*
X38402507Y-38100000D01*
X38447196Y-38048228D01*
X38447200Y-38048223D01*
X38449720Y-38045303D01*
X38451626Y-38041947D01*
X38451630Y-38041942D01*
X38545695Y-37876356D01*
X38547604Y-37872996D01*
X38576039Y-37787517D01*
X38609605Y-37745167D01*
X38662540Y-37734300D01*
X38710076Y-37760003D01*
X38730000Y-37812453D01*
X38730000Y-39645208D01*
X38711518Y-39695988D01*
X38664718Y-39723008D01*
X38611500Y-39713624D01*
X38575372Y-39668041D01*
X38559891Y-39616765D01*
X38558774Y-39613065D01*
X38556963Y-39609660D01*
X38556961Y-39609654D01*
X38467551Y-39441500D01*
X38465739Y-39438092D01*
X38458919Y-39429729D01*
X38384721Y-39338754D01*
X38340490Y-39284522D01*
X38328415Y-39274532D01*
X38190773Y-39160665D01*
X38190772Y-39160664D01*
X38187798Y-39158204D01*
X38169979Y-39148569D01*
X38091513Y-39106143D01*
X38013479Y-39063950D01*
X37824172Y-39005350D01*
X37627089Y-38984636D01*
X37623243Y-38984986D01*
X37623242Y-38984986D01*
X37575487Y-38989332D01*
X37429735Y-39002596D01*
X37426028Y-39003687D01*
X37243338Y-39057456D01*
X37243335Y-39057457D01*
X37239629Y-39058548D01*
X37064010Y-39150359D01*
X37061003Y-39152777D01*
X37061001Y-39152778D01*
X36984207Y-39214522D01*
X36909570Y-39274532D01*
X36782189Y-39426339D01*
X36780327Y-39429727D01*
X36780325Y-39429729D01*
X36695303Y-39584383D01*
X36686720Y-39599996D01*
X36626800Y-39788889D01*
X36604710Y-39985823D01*
X36621292Y-40183297D01*
X36675915Y-40373790D01*
X36766498Y-40550045D01*
X36768894Y-40553068D01*
X36770991Y-40556322D01*
X36769349Y-40557380D01*
X36784266Y-40602216D01*
X36771259Y-40635072D01*
X36798277Y-40628336D01*
X36846847Y-40652026D01*
X36851930Y-40657833D01*
X36889590Y-40705348D01*
X37040504Y-40833786D01*
X37043878Y-40835672D01*
X37043880Y-40835673D01*
X37085737Y-40859066D01*
X37213490Y-40930465D01*
X37217152Y-40931655D01*
X37217157Y-40931657D01*
X37339241Y-40971324D01*
X37401960Y-40991702D01*
X37405797Y-40992160D01*
X37405799Y-40992160D01*
X37594892Y-41014708D01*
X37594895Y-41014708D01*
X37598735Y-41015166D01*
X37796320Y-40999963D01*
X37987190Y-40946671D01*
X38081858Y-40898851D01*
X38160619Y-40859066D01*
X38160621Y-40859065D01*
X38164073Y-40857321D01*
X38268923Y-40775403D01*
X38317190Y-40737693D01*
X38317192Y-40737691D01*
X38320232Y-40735316D01*
X38378941Y-40667301D01*
X38447196Y-40588228D01*
X38447200Y-40588223D01*
X38449720Y-40585303D01*
X38451626Y-40581947D01*
X38451630Y-40581942D01*
X38545695Y-40416356D01*
X38547604Y-40412996D01*
X38576039Y-40327517D01*
X38609605Y-40285167D01*
X38662540Y-40274300D01*
X38710076Y-40300003D01*
X38730000Y-40352453D01*
X38730000Y-42185208D01*
X38711518Y-42235988D01*
X38664718Y-42263008D01*
X38611500Y-42253624D01*
X38575372Y-42208041D01*
X38572943Y-42199994D01*
X38558774Y-42153065D01*
X38556963Y-42149660D01*
X38556961Y-42149654D01*
X38467551Y-41981500D01*
X38465739Y-41978092D01*
X38460418Y-41971567D01*
X38355435Y-41842846D01*
X38340490Y-41824522D01*
X38328415Y-41814532D01*
X38190773Y-41700665D01*
X38190772Y-41700664D01*
X38187798Y-41698204D01*
X38169979Y-41688569D01*
X38094404Y-41647706D01*
X38013479Y-41603950D01*
X37824172Y-41545350D01*
X37627089Y-41524636D01*
X37623243Y-41524986D01*
X37623242Y-41524986D01*
X37575487Y-41529332D01*
X37429735Y-41542596D01*
X37426028Y-41543687D01*
X37243338Y-41597456D01*
X37243335Y-41597457D01*
X37239629Y-41598548D01*
X37064010Y-41690359D01*
X37061003Y-41692777D01*
X37061001Y-41692778D01*
X36984207Y-41754522D01*
X36909570Y-41814532D01*
X36899955Y-41825991D01*
X36880018Y-41849751D01*
X36833219Y-41876771D01*
X36780000Y-41867387D01*
X36745264Y-41825991D01*
X36740500Y-41798971D01*
X36740500Y-40858375D01*
X36740608Y-40854240D01*
X36742412Y-40819827D01*
X36742412Y-40819825D01*
X36742846Y-40811538D01*
X36739871Y-40803787D01*
X36733538Y-40787288D01*
X36730017Y-40775403D01*
X36726342Y-40758116D01*
X36724616Y-40749994D01*
X36719736Y-40743278D01*
X36717847Y-40739034D01*
X36714079Y-40685127D01*
X36720624Y-40676119D01*
X36716840Y-40678165D01*
X36664646Y-40667453D01*
X36664521Y-40667281D01*
X36656675Y-40662751D01*
X36640315Y-40650196D01*
X35491188Y-39501069D01*
X35468350Y-39452093D01*
X35482336Y-39399895D01*
X35491188Y-39389347D01*
X35536241Y-39344294D01*
X35595275Y-39228433D01*
X35605519Y-39163759D01*
X35614644Y-39106143D01*
X35615617Y-39100000D01*
X35609907Y-39063950D01*
X35596248Y-38977708D01*
X35596247Y-38977706D01*
X35595275Y-38971567D01*
X35536241Y-38855706D01*
X35444294Y-38763759D01*
X35328433Y-38704725D01*
X35322294Y-38703753D01*
X35322292Y-38703752D01*
X35206143Y-38685356D01*
X35200000Y-38684383D01*
X35193857Y-38685356D01*
X35077708Y-38703752D01*
X35077706Y-38703753D01*
X35071567Y-38704725D01*
X34955706Y-38763759D01*
X34863759Y-38855706D01*
X34804725Y-38971567D01*
X34803753Y-38977706D01*
X34803752Y-38977708D01*
X34795866Y-39027501D01*
X34769668Y-39074765D01*
X34719218Y-39094131D01*
X34705481Y-39093170D01*
X34656144Y-39085356D01*
X34656143Y-39085356D01*
X34650000Y-39084383D01*
X34643857Y-39085356D01*
X34527708Y-39103752D01*
X34527706Y-39103753D01*
X34521567Y-39104725D01*
X34516028Y-39107547D01*
X34516029Y-39107547D01*
X34420218Y-39156365D01*
X34405706Y-39163759D01*
X34313759Y-39255706D01*
X34310937Y-39261245D01*
X34310936Y-39261246D01*
X34297552Y-39287514D01*
X34254725Y-39371567D01*
X34253753Y-39377706D01*
X34253752Y-39377708D01*
X34242242Y-39450382D01*
X34234383Y-39500000D01*
X34235356Y-39506143D01*
X34251751Y-39609654D01*
X34254725Y-39628433D01*
X34274906Y-39668041D01*
X34293888Y-39705294D01*
X34313759Y-39744294D01*
X34405706Y-39836241D01*
X34521567Y-39895275D01*
X34527706Y-39896247D01*
X34527708Y-39896248D01*
X34643857Y-39914644D01*
X34650000Y-39915617D01*
X34656143Y-39914644D01*
X34675420Y-39911591D01*
X34728466Y-39921902D01*
X34743639Y-39933757D01*
X35886361Y-41076479D01*
X35909199Y-41125455D01*
X35909500Y-41132340D01*
X35909500Y-43717660D01*
X35891018Y-43768440D01*
X35886361Y-43773521D01*
X35793639Y-43866243D01*
X35744663Y-43889081D01*
X35725420Y-43888409D01*
X35706143Y-43885356D01*
X35700000Y-43884383D01*
X35693857Y-43885356D01*
X35577708Y-43903752D01*
X35577706Y-43903753D01*
X35571567Y-43904725D01*
X35455706Y-43963759D01*
X35363759Y-44055706D01*
X35360937Y-44061245D01*
X35360936Y-44061246D01*
X35348655Y-44085350D01*
X35304725Y-44171567D01*
X35303753Y-44177706D01*
X35303752Y-44177708D01*
X35293781Y-44240665D01*
X35284383Y-44300000D01*
X35285356Y-44306143D01*
X35303638Y-44421567D01*
X35304725Y-44428433D01*
X35363759Y-44544294D01*
X35455706Y-44636241D01*
X35571567Y-44695275D01*
X35577706Y-44696247D01*
X35577708Y-44696248D01*
X35693857Y-44714644D01*
X35700000Y-44715617D01*
X35706143Y-44714644D01*
X35822292Y-44696248D01*
X35822294Y-44696247D01*
X35828433Y-44695275D01*
X35845890Y-44686380D01*
X35865119Y-44676583D01*
X35918756Y-44669998D01*
X35964077Y-44699430D01*
X35971372Y-44711105D01*
X35973671Y-44715617D01*
X36004432Y-44775988D01*
X36013759Y-44794294D01*
X36105706Y-44886241D01*
X36221567Y-44945275D01*
X36227706Y-44946247D01*
X36227708Y-44946248D01*
X36343857Y-44964644D01*
X36350000Y-44965617D01*
X36356143Y-44964644D01*
X36472292Y-44946248D01*
X36472294Y-44946247D01*
X36478433Y-44945275D01*
X36483969Y-44942454D01*
X36483973Y-44942453D01*
X36495977Y-44936336D01*
X36549613Y-44929749D01*
X36594934Y-44959181D01*
X36610351Y-45015531D01*
X36604710Y-45065823D01*
X36621292Y-45263297D01*
X36675915Y-45453790D01*
X36766498Y-45630045D01*
X36889590Y-45785348D01*
X37040504Y-45913786D01*
X37213490Y-46010465D01*
X37217152Y-46011655D01*
X37217157Y-46011657D01*
X37339241Y-46051324D01*
X37401960Y-46071702D01*
X37405797Y-46072160D01*
X37405799Y-46072160D01*
X37594892Y-46094708D01*
X37594895Y-46094708D01*
X37598735Y-46095166D01*
X37796320Y-46079963D01*
X37987190Y-46026671D01*
X38157780Y-45940500D01*
X38160619Y-45939066D01*
X38160621Y-45939065D01*
X38164073Y-45937321D01*
X38320232Y-45815316D01*
X38348707Y-45782327D01*
X38447196Y-45668228D01*
X38447200Y-45668223D01*
X38449720Y-45665303D01*
X38451626Y-45661947D01*
X38451630Y-45661942D01*
X38545695Y-45496356D01*
X38547604Y-45492996D01*
X38554733Y-45471567D01*
X38576039Y-45407517D01*
X38609605Y-45365167D01*
X38662540Y-45354300D01*
X38710076Y-45380003D01*
X38730000Y-45432453D01*
X38730000Y-47265208D01*
X38711518Y-47315988D01*
X38664718Y-47343008D01*
X38611500Y-47333624D01*
X38575372Y-47288041D01*
X38559891Y-47236765D01*
X38558774Y-47233065D01*
X38556963Y-47229660D01*
X38556961Y-47229654D01*
X38467551Y-47061500D01*
X38465739Y-47058092D01*
X38458919Y-47049729D01*
X38342930Y-46907514D01*
X38340490Y-46904522D01*
X38328415Y-46894532D01*
X38190773Y-46780665D01*
X38190772Y-46780664D01*
X38187798Y-46778204D01*
X38169979Y-46768569D01*
X38108780Y-46735479D01*
X38013479Y-46683950D01*
X37824172Y-46625350D01*
X37627089Y-46604636D01*
X37623243Y-46604986D01*
X37623242Y-46604986D01*
X37575487Y-46609332D01*
X37429735Y-46622596D01*
X37426028Y-46623687D01*
X37243338Y-46677456D01*
X37243335Y-46677457D01*
X37239629Y-46678548D01*
X37064010Y-46770359D01*
X37061003Y-46772777D01*
X37061001Y-46772778D01*
X37051192Y-46780665D01*
X36909570Y-46894532D01*
X36782189Y-47046339D01*
X36780327Y-47049727D01*
X36780325Y-47049729D01*
X36711995Y-47174021D01*
X36686720Y-47219996D01*
X36626800Y-47408889D01*
X36604710Y-47605823D01*
X36621292Y-47803297D01*
X36675915Y-47993790D01*
X36712961Y-48065872D01*
X36727721Y-48094592D01*
X36734494Y-48148205D01*
X36713318Y-48186564D01*
X35113521Y-49786361D01*
X35064545Y-49809199D01*
X35057660Y-49809500D01*
X34121340Y-49809500D01*
X34070560Y-49791018D01*
X34043540Y-49744218D01*
X34052924Y-49691000D01*
X34065479Y-49674639D01*
X34476360Y-49263759D01*
X35014140Y-48725979D01*
X35017140Y-48723131D01*
X35042744Y-48700077D01*
X35048915Y-48694521D01*
X35059481Y-48670790D01*
X35065396Y-48659897D01*
X35075021Y-48645076D01*
X35075022Y-48645075D01*
X35079543Y-48638112D01*
X35080960Y-48629164D01*
X35086816Y-48609396D01*
X35087121Y-48608710D01*
X35087121Y-48608709D01*
X35090500Y-48601120D01*
X35090500Y-48575144D01*
X35091473Y-48562786D01*
X35094237Y-48545336D01*
X35094237Y-48545334D01*
X35095536Y-48537132D01*
X35093192Y-48528383D01*
X35090500Y-48507938D01*
X35090500Y-48072757D01*
X35108982Y-48021977D01*
X35113639Y-48016896D01*
X35186241Y-47944294D01*
X35245275Y-47828433D01*
X35249179Y-47803789D01*
X35264644Y-47706143D01*
X35265617Y-47700000D01*
X35250701Y-47605823D01*
X35246248Y-47577708D01*
X35246247Y-47577706D01*
X35245275Y-47571567D01*
X35186241Y-47455706D01*
X35094294Y-47363759D01*
X34978433Y-47304725D01*
X34972294Y-47303753D01*
X34972292Y-47303752D01*
X34856143Y-47285356D01*
X34850000Y-47284383D01*
X34843857Y-47285356D01*
X34727708Y-47303752D01*
X34727706Y-47303753D01*
X34721567Y-47304725D01*
X34605706Y-47363759D01*
X34513759Y-47455706D01*
X34454725Y-47571567D01*
X34453753Y-47577706D01*
X34453752Y-47577708D01*
X34449299Y-47605823D01*
X34434383Y-47700000D01*
X34435356Y-47706143D01*
X34450822Y-47803789D01*
X34454725Y-47828433D01*
X34513759Y-47944294D01*
X34586361Y-48016896D01*
X34609199Y-48065872D01*
X34609500Y-48072757D01*
X34609500Y-48417659D01*
X34591018Y-48468439D01*
X34586361Y-48473520D01*
X33623521Y-49436361D01*
X33574545Y-49459199D01*
X33567660Y-49459500D01*
X33032340Y-49459500D01*
X32981560Y-49441018D01*
X32976479Y-49436361D01*
X32960562Y-49420444D01*
X32937724Y-49371468D01*
X32951710Y-49319270D01*
X32980557Y-49294194D01*
X33088752Y-49239066D01*
X33088758Y-49239062D01*
X33094294Y-49236241D01*
X33186241Y-49144294D01*
X33245275Y-49028433D01*
X33265617Y-48900000D01*
X33245275Y-48771567D01*
X33186241Y-48655706D01*
X33113639Y-48583104D01*
X33090801Y-48534128D01*
X33090500Y-48527243D01*
X33090500Y-47858367D01*
X33090608Y-47854232D01*
X33091670Y-47833971D01*
X33092846Y-47811538D01*
X33083535Y-47787282D01*
X33080019Y-47775413D01*
X33074616Y-47749994D01*
X33069294Y-47742670D01*
X33059449Y-47724537D01*
X33059181Y-47723838D01*
X33059180Y-47723837D01*
X33056206Y-47716088D01*
X33037842Y-47697724D01*
X33029795Y-47688304D01*
X33014521Y-47667281D01*
X33006671Y-47662749D01*
X32990314Y-47650196D01*
X28013639Y-42673521D01*
X27990801Y-42624545D01*
X27990500Y-42617660D01*
X27990500Y-42308367D01*
X27990608Y-42304232D01*
X27992411Y-42269827D01*
X27992846Y-42261538D01*
X27983535Y-42237282D01*
X27980019Y-42225413D01*
X27974616Y-42199994D01*
X27969294Y-42192670D01*
X27959449Y-42174537D01*
X27959181Y-42173838D01*
X27959180Y-42173837D01*
X27956206Y-42166088D01*
X27937842Y-42147724D01*
X27929795Y-42138304D01*
X27914521Y-42117281D01*
X27906671Y-42112749D01*
X27890314Y-42100196D01*
X27475988Y-41685870D01*
X27473140Y-41682870D01*
X27473128Y-41682856D01*
X27444521Y-41651085D01*
X27436935Y-41647708D01*
X27436933Y-41647706D01*
X27420794Y-41640521D01*
X27409900Y-41634606D01*
X27395079Y-41624981D01*
X27395076Y-41624980D01*
X27388113Y-41620458D01*
X27379663Y-41619119D01*
X27379168Y-41619041D01*
X27359397Y-41613185D01*
X27351120Y-41609500D01*
X27325143Y-41609500D01*
X27312785Y-41608527D01*
X27295336Y-41605763D01*
X27295334Y-41605763D01*
X27287132Y-41604464D01*
X27278513Y-41606774D01*
X27278384Y-41606808D01*
X27257937Y-41609500D01*
X26590771Y-41609500D01*
X26539991Y-41591018D01*
X26512971Y-41544218D01*
X26512743Y-41518143D01*
X26514644Y-41506140D01*
X26515617Y-41500000D01*
X26495275Y-41371567D01*
X26436241Y-41255706D01*
X26405896Y-41225361D01*
X26383058Y-41176385D01*
X26397044Y-41124187D01*
X26441310Y-41093192D01*
X26461757Y-41090500D01*
X29741625Y-41090500D01*
X29745760Y-41090608D01*
X29780172Y-41092412D01*
X29780174Y-41092412D01*
X29788462Y-41092846D01*
X29812718Y-41083535D01*
X29824587Y-41080019D01*
X29850006Y-41074616D01*
X29857330Y-41069294D01*
X29875463Y-41059449D01*
X29876162Y-41059181D01*
X29876163Y-41059180D01*
X29883912Y-41056206D01*
X29902276Y-41037842D01*
X29911696Y-41029795D01*
X29932719Y-41014521D01*
X29937251Y-41006671D01*
X29949804Y-40990314D01*
X30726479Y-40213639D01*
X30775455Y-40190801D01*
X30782340Y-40190500D01*
X32791625Y-40190500D01*
X32795760Y-40190608D01*
X32830172Y-40192412D01*
X32830174Y-40192412D01*
X32838462Y-40192846D01*
X32862718Y-40183535D01*
X32874587Y-40180019D01*
X32900006Y-40174616D01*
X32907330Y-40169294D01*
X32925463Y-40159449D01*
X32926162Y-40159181D01*
X32926163Y-40159180D01*
X32933912Y-40156206D01*
X32952276Y-40137842D01*
X32961696Y-40129795D01*
X32982719Y-40114521D01*
X32987251Y-40106671D01*
X32999804Y-40090314D01*
X34364130Y-38725988D01*
X34367130Y-38723140D01*
X34392743Y-38700078D01*
X34398915Y-38694521D01*
X34402996Y-38685356D01*
X34407783Y-38674603D01*
X34435571Y-38645262D01*
X34433723Y-38642719D01*
X34438753Y-38639065D01*
X34444294Y-38636241D01*
X34536241Y-38544294D01*
X34595275Y-38428433D01*
X34615617Y-38300000D01*
X34598410Y-38191358D01*
X34608721Y-38138312D01*
X34650717Y-38104304D01*
X34676437Y-38100000D01*
X35000000Y-38100000D01*
X36250000Y-36800000D01*
X36250000Y-36304816D01*
X36250973Y-36292458D01*
X36264644Y-36206143D01*
X36265617Y-36200000D01*
X36250973Y-36107542D01*
X36250000Y-36095184D01*
X36250000Y-36082722D01*
X36268482Y-36031942D01*
X36273139Y-36026861D01*
X36400000Y-35900000D01*
X36400000Y-35740994D01*
X37030774Y-35740994D01*
X37032112Y-35745988D01*
X37037844Y-35750867D01*
X37044166Y-35755261D01*
X37210324Y-35848123D01*
X37217358Y-35851197D01*
X37398394Y-35910018D01*
X37405907Y-35911670D01*
X37594903Y-35934206D01*
X37602604Y-35934367D01*
X37792381Y-35919765D01*
X37799952Y-35918431D01*
X37983293Y-35867240D01*
X37990454Y-35864462D01*
X38160350Y-35778642D01*
X38166852Y-35774516D01*
X38201566Y-35747395D01*
X38207585Y-35737763D01*
X38206946Y-35733220D01*
X37629851Y-35156125D01*
X37619557Y-35151325D01*
X37613263Y-35153011D01*
X37035574Y-35730700D01*
X37030774Y-35740994D01*
X36400000Y-35740994D01*
X36400000Y-35004816D01*
X36400973Y-34992458D01*
X36414084Y-34909676D01*
X36605535Y-34909676D01*
X36621463Y-35099361D01*
X36622850Y-35106916D01*
X36675318Y-35289895D01*
X36678146Y-35297037D01*
X36765157Y-35466342D01*
X36769316Y-35472796D01*
X36792328Y-35501830D01*
X36801999Y-35507779D01*
X36806631Y-35507095D01*
X37383875Y-34929851D01*
X37388675Y-34919557D01*
X37386989Y-34913263D01*
X36809675Y-34335949D01*
X36799381Y-34331149D01*
X36794485Y-34332461D01*
X36785089Y-34343659D01*
X36780741Y-34350009D01*
X36689043Y-34516806D01*
X36686012Y-34523878D01*
X36628459Y-34705312D01*
X36626861Y-34712828D01*
X36605642Y-34901996D01*
X36605535Y-34909676D01*
X36414084Y-34909676D01*
X36414644Y-34906143D01*
X36415617Y-34900000D01*
X36400973Y-34807542D01*
X36400000Y-34795184D01*
X36400000Y-34101729D01*
X37031991Y-34101729D01*
X37032722Y-34106448D01*
X37610149Y-34683875D01*
X37620443Y-34688675D01*
X37626737Y-34686989D01*
X38203710Y-34110016D01*
X38208510Y-34099722D01*
X38207224Y-34094923D01*
X38190493Y-34081082D01*
X38184120Y-34076784D01*
X38016680Y-33986249D01*
X38009599Y-33983272D01*
X37827765Y-33926986D01*
X37820224Y-33925438D01*
X37630928Y-33905542D01*
X37623238Y-33905488D01*
X37433678Y-33922739D01*
X37426122Y-33924180D01*
X37243526Y-33977921D01*
X37236389Y-33980805D01*
X37067714Y-34068987D01*
X37061270Y-34073203D01*
X37037875Y-34092013D01*
X37031991Y-34101729D01*
X36400000Y-34101729D01*
X36400000Y-33504816D01*
X36400973Y-33492458D01*
X36414644Y-33406143D01*
X36415617Y-33400000D01*
X36400973Y-33307542D01*
X36400000Y-33295184D01*
X36400000Y-32678907D01*
X36418482Y-32628127D01*
X36423139Y-32623046D01*
X36495615Y-32550570D01*
X36544591Y-32527732D01*
X36596789Y-32541718D01*
G37*
G04 #@! TD.AperFunction*
M02*
