G04 #@! TF.GenerationSoftware,KiCad,Pcbnew,(5.99.0-11424-g2f41dd4074)*
G04 #@! TF.CreationDate,2021-09-18T21:26:06+03:00*
G04 #@! TF.ProjectId,goldfish,676f6c64-6669-4736-982e-6b696361645f,C*
G04 #@! TF.SameCoordinates,Original*
G04 #@! TF.FileFunction,Legend,Bot*
G04 #@! TF.FilePolarity,Positive*
%FSLAX46Y46*%
G04 Gerber Fmt 4.6, Leading zero omitted, Abs format (unit mm)*
G04 Created by KiCad (PCBNEW (5.99.0-11424-g2f41dd4074)) date 2021-09-18 21:26:06*
%MOMM*%
%LPD*%
G01*
G04 APERTURE LIST*
%ADD10C,0.150000*%
%ADD11C,0.100000*%
G04 APERTURE END LIST*
D10*
X23446800Y-35986800D02*
X23446800Y-31313200D01*
X36604000Y-32481600D02*
X34572000Y-32481600D01*
X23446800Y-31313200D02*
X22888000Y-31313200D01*
X22888000Y-35586800D02*
X23446800Y-35586800D01*
D11*
X32673333Y-53789028D02*
X32806666Y-53789028D01*
X32806666Y-53998552D02*
X32806666Y-53598552D01*
X32616190Y-53598552D01*
X32387619Y-53598552D02*
X32349523Y-53598552D01*
X32311428Y-53617600D01*
X32292380Y-53636647D01*
X32273333Y-53674742D01*
X32254285Y-53750933D01*
X32254285Y-53846171D01*
X32273333Y-53922361D01*
X32292380Y-53960457D01*
X32311428Y-53979504D01*
X32349523Y-53998552D01*
X32387619Y-53998552D01*
X32425714Y-53979504D01*
X32444761Y-53960457D01*
X32463809Y-53922361D01*
X32482857Y-53846171D01*
X32482857Y-53750933D01*
X32463809Y-53674742D01*
X32444761Y-53636647D01*
X32425714Y-53617600D01*
X32387619Y-53598552D01*
X23830971Y-50436190D02*
X23830971Y-50302857D01*
X23621447Y-50245714D02*
X23621447Y-50436190D01*
X24021447Y-50436190D01*
X24021447Y-50245714D01*
X24021447Y-49902857D02*
X24021447Y-49979047D01*
X24002400Y-50017142D01*
X23983352Y-50036190D01*
X23926209Y-50074285D01*
X23850019Y-50093333D01*
X23697638Y-50093333D01*
X23659542Y-50074285D01*
X23640495Y-50055238D01*
X23621447Y-50017142D01*
X23621447Y-49940952D01*
X23640495Y-49902857D01*
X23659542Y-49883809D01*
X23697638Y-49864761D01*
X23792876Y-49864761D01*
X23830971Y-49883809D01*
X23850019Y-49902857D01*
X23869066Y-49940952D01*
X23869066Y-50017142D01*
X23850019Y-50055238D01*
X23830971Y-50074285D01*
X23792876Y-50093333D01*
X23556351Y-54043242D02*
X23529413Y-54097117D01*
X23529413Y-54124054D01*
X23542882Y-54164460D01*
X23583288Y-54204867D01*
X23623694Y-54218335D01*
X23650632Y-54218335D01*
X23691038Y-54204867D01*
X23798787Y-54097117D01*
X23515945Y-53814274D01*
X23421664Y-53908555D01*
X23408195Y-53948961D01*
X23408195Y-53975899D01*
X23421664Y-54016305D01*
X23448601Y-54043242D01*
X23489007Y-54056711D01*
X23515945Y-54056711D01*
X23556351Y-54043242D01*
X23650632Y-53948961D01*
X23098415Y-54231804D02*
X23233102Y-54097117D01*
X23381258Y-54218335D01*
X23354320Y-54218335D01*
X23313914Y-54231804D01*
X23246571Y-54299148D01*
X23233102Y-54339554D01*
X23233102Y-54366491D01*
X23246571Y-54406897D01*
X23313914Y-54474241D01*
X23354320Y-54487709D01*
X23381258Y-54487709D01*
X23421664Y-54474241D01*
X23489007Y-54406897D01*
X23502476Y-54366491D01*
X23502476Y-54339554D01*
X36118571Y-52871904D02*
X36099523Y-52814761D01*
X36080476Y-52795714D01*
X36042380Y-52776666D01*
X35985238Y-52776666D01*
X35947142Y-52795714D01*
X35928095Y-52814761D01*
X35909047Y-52852857D01*
X35909047Y-53005238D01*
X36309047Y-53005238D01*
X36309047Y-52871904D01*
X36290000Y-52833809D01*
X36270952Y-52814761D01*
X36232857Y-52795714D01*
X36194761Y-52795714D01*
X36156666Y-52814761D01*
X36137619Y-52833809D01*
X36118571Y-52871904D01*
X36118571Y-53005238D01*
X36270952Y-52624285D02*
X36290000Y-52605238D01*
X36309047Y-52567142D01*
X36309047Y-52471904D01*
X36290000Y-52433809D01*
X36270952Y-52414761D01*
X36232857Y-52395714D01*
X36194761Y-52395714D01*
X36137619Y-52414761D01*
X35909047Y-52643333D01*
X35909047Y-52395714D01*
X36124571Y-50321904D02*
X36105523Y-50264761D01*
X36086476Y-50245714D01*
X36048380Y-50226666D01*
X35991238Y-50226666D01*
X35953142Y-50245714D01*
X35934095Y-50264761D01*
X35915047Y-50302857D01*
X35915047Y-50455238D01*
X36315047Y-50455238D01*
X36315047Y-50321904D01*
X36296000Y-50283809D01*
X36276952Y-50264761D01*
X36238857Y-50245714D01*
X36200761Y-50245714D01*
X36162666Y-50264761D01*
X36143619Y-50283809D01*
X36124571Y-50321904D01*
X36124571Y-50455238D01*
X36315047Y-50093333D02*
X36315047Y-49845714D01*
X36162666Y-49979047D01*
X36162666Y-49921904D01*
X36143619Y-49883809D01*
X36124571Y-49864761D01*
X36086476Y-49845714D01*
X35991238Y-49845714D01*
X35953142Y-49864761D01*
X35934095Y-49883809D01*
X35915047Y-49921904D01*
X35915047Y-50036190D01*
X35934095Y-50074285D01*
X35953142Y-50093333D01*
X23621447Y-37755238D02*
X24021447Y-37755238D01*
X24021447Y-37660000D01*
X24002400Y-37602857D01*
X23964304Y-37564761D01*
X23926209Y-37545714D01*
X23850019Y-37526666D01*
X23792876Y-37526666D01*
X23716685Y-37545714D01*
X23678590Y-37564761D01*
X23640495Y-37602857D01*
X23621447Y-37660000D01*
X23621447Y-37755238D01*
X23621447Y-37145714D02*
X23621447Y-37374285D01*
X23621447Y-37260000D02*
X24021447Y-37260000D01*
X23964304Y-37298095D01*
X23926209Y-37336190D01*
X23907161Y-37374285D01*
X23446409Y-29610753D02*
X23792819Y-29810753D01*
X23840438Y-29728274D01*
X23852514Y-29669263D01*
X23838570Y-29617224D01*
X23815103Y-29581681D01*
X23758644Y-29527090D01*
X23709156Y-29498519D01*
X23633650Y-29476919D01*
X23591134Y-29474367D01*
X23539095Y-29488311D01*
X23494028Y-29528274D01*
X23446409Y-29610753D01*
X23950304Y-29461791D02*
X23976324Y-29454819D01*
X24011867Y-29431351D01*
X24059486Y-29348873D01*
X24062038Y-29306358D01*
X24055066Y-29280338D01*
X24031598Y-29244795D01*
X23998607Y-29225747D01*
X23939596Y-29213671D01*
X23627362Y-29297334D01*
X23751171Y-29082890D01*
X24307200Y-33954761D02*
X24326247Y-33992857D01*
X24326247Y-34050000D01*
X24307200Y-34107142D01*
X24269104Y-34145238D01*
X24231009Y-34164285D01*
X24154819Y-34183333D01*
X24097676Y-34183333D01*
X24021485Y-34164285D01*
X23983390Y-34145238D01*
X23945295Y-34107142D01*
X23926247Y-34050000D01*
X23926247Y-34011904D01*
X23945295Y-33954761D01*
X23964342Y-33935714D01*
X24097676Y-33935714D01*
X24097676Y-34011904D01*
X23926247Y-33764285D02*
X24326247Y-33764285D01*
X23926247Y-33535714D01*
X24326247Y-33535714D01*
X23926247Y-33345238D02*
X24326247Y-33345238D01*
X24326247Y-33250000D01*
X24307200Y-33192857D01*
X24269104Y-33154761D01*
X24231009Y-33135714D01*
X24154819Y-33116666D01*
X24097676Y-33116666D01*
X24021485Y-33135714D01*
X23983390Y-33154761D01*
X23945295Y-33192857D01*
X23926247Y-33250000D01*
X23926247Y-33345238D01*
X23621447Y-42835238D02*
X24021447Y-42835238D01*
X24021447Y-42740000D01*
X24002400Y-42682857D01*
X23964304Y-42644761D01*
X23926209Y-42625714D01*
X23850019Y-42606666D01*
X23792876Y-42606666D01*
X23716685Y-42625714D01*
X23678590Y-42644761D01*
X23640495Y-42682857D01*
X23621447Y-42740000D01*
X23621447Y-42835238D01*
X23888114Y-42263809D02*
X23621447Y-42263809D01*
X24040495Y-42359047D02*
X23754780Y-42454285D01*
X23754780Y-42206666D01*
X23621447Y-47915238D02*
X24021447Y-47915238D01*
X24021447Y-47820000D01*
X24002400Y-47762857D01*
X23964304Y-47724761D01*
X23926209Y-47705714D01*
X23850019Y-47686666D01*
X23792876Y-47686666D01*
X23716685Y-47705714D01*
X23678590Y-47724761D01*
X23640495Y-47762857D01*
X23621447Y-47820000D01*
X23621447Y-47915238D01*
X24021447Y-47553333D02*
X24021447Y-47286666D01*
X23621447Y-47458095D01*
X23621447Y-40295238D02*
X24021447Y-40295238D01*
X24021447Y-40200000D01*
X24002400Y-40142857D01*
X23964304Y-40104761D01*
X23926209Y-40085714D01*
X23850019Y-40066666D01*
X23792876Y-40066666D01*
X23716685Y-40085714D01*
X23678590Y-40104761D01*
X23640495Y-40142857D01*
X23621447Y-40200000D01*
X23621447Y-40295238D01*
X24021447Y-39819047D02*
X24021447Y-39780952D01*
X24002400Y-39742857D01*
X23983352Y-39723809D01*
X23945257Y-39704761D01*
X23869066Y-39685714D01*
X23773828Y-39685714D01*
X23697638Y-39704761D01*
X23659542Y-39723809D01*
X23640495Y-39742857D01*
X23621447Y-39780952D01*
X23621447Y-39819047D01*
X23640495Y-39857142D01*
X23659542Y-39876190D01*
X23697638Y-39895238D01*
X23773828Y-39914285D01*
X23869066Y-39914285D01*
X23945257Y-39895238D01*
X23983352Y-39876190D01*
X24002400Y-39857142D01*
X24021447Y-39819047D01*
X27812380Y-33729352D02*
X27812380Y-33329352D01*
X27717142Y-33329352D01*
X27660000Y-33348400D01*
X27621904Y-33386495D01*
X27602857Y-33424590D01*
X27583809Y-33500780D01*
X27583809Y-33557923D01*
X27602857Y-33634114D01*
X27621904Y-33672209D01*
X27660000Y-33710304D01*
X27717142Y-33729352D01*
X27812380Y-33729352D01*
X27412380Y-33576971D02*
X27107619Y-33576971D01*
X27260000Y-33729352D02*
X27260000Y-33424590D01*
X36439924Y-29622976D02*
X36475467Y-29646444D01*
X36504038Y-29695931D01*
X36516114Y-29754942D01*
X36502170Y-29806981D01*
X36478703Y-29842524D01*
X36422244Y-29897115D01*
X36372756Y-29925687D01*
X36297250Y-29947286D01*
X36254734Y-29949838D01*
X36202695Y-29935894D01*
X36157628Y-29895931D01*
X36138581Y-29862940D01*
X36126505Y-29803929D01*
X36133477Y-29777909D01*
X36248947Y-29711242D01*
X36287042Y-29777225D01*
X36014771Y-29648495D02*
X36361181Y-29448495D01*
X35900485Y-29450547D01*
X36246896Y-29250547D01*
X35805247Y-29285589D02*
X36151657Y-29085589D01*
X36104038Y-29003111D01*
X36058971Y-28963147D01*
X36006932Y-28949204D01*
X35964417Y-28951755D01*
X35888910Y-28973355D01*
X35839423Y-29001926D01*
X35782964Y-29056517D01*
X35759496Y-29092061D01*
X35745553Y-29144100D01*
X35757628Y-29203111D01*
X35805247Y-29285589D01*
X35857847Y-33373752D02*
X35991180Y-33183276D01*
X36086419Y-33373752D02*
X36086419Y-32973752D01*
X35934038Y-32973752D01*
X35895942Y-32992800D01*
X35876895Y-33011847D01*
X35857847Y-33049942D01*
X35857847Y-33107085D01*
X35876895Y-33145180D01*
X35895942Y-33164228D01*
X35934038Y-33183276D01*
X36086419Y-33183276D01*
X35705466Y-33354704D02*
X35648323Y-33373752D01*
X35553085Y-33373752D01*
X35514990Y-33354704D01*
X35495942Y-33335657D01*
X35476895Y-33297561D01*
X35476895Y-33259466D01*
X35495942Y-33221371D01*
X35514990Y-33202323D01*
X35553085Y-33183276D01*
X35629276Y-33164228D01*
X35667371Y-33145180D01*
X35686419Y-33126133D01*
X35705466Y-33088038D01*
X35705466Y-33049942D01*
X35686419Y-33011847D01*
X35667371Y-32992800D01*
X35629276Y-32973752D01*
X35534038Y-32973752D01*
X35476895Y-32992800D01*
X35362609Y-32973752D02*
X35134038Y-32973752D01*
X35248323Y-33373752D02*
X35248323Y-32973752D01*
X23659542Y-45146666D02*
X23640495Y-45165714D01*
X23621447Y-45222857D01*
X23621447Y-45260952D01*
X23640495Y-45318095D01*
X23678590Y-45356190D01*
X23716685Y-45375238D01*
X23792876Y-45394285D01*
X23850019Y-45394285D01*
X23926209Y-45375238D01*
X23964304Y-45356190D01*
X24002400Y-45318095D01*
X24021447Y-45260952D01*
X24021447Y-45222857D01*
X24002400Y-45165714D01*
X23983352Y-45146666D01*
X24021447Y-44803809D02*
X24021447Y-44880000D01*
X24002400Y-44918095D01*
X23983352Y-44937142D01*
X23926209Y-44975238D01*
X23850019Y-44994285D01*
X23697638Y-44994285D01*
X23659542Y-44975238D01*
X23640495Y-44956190D01*
X23621447Y-44918095D01*
X23621447Y-44841904D01*
X23640495Y-44803809D01*
X23659542Y-44784761D01*
X23697638Y-44765714D01*
X23792876Y-44765714D01*
X23830971Y-44784761D01*
X23850019Y-44803809D01*
X23869066Y-44841904D01*
X23869066Y-44918095D01*
X23850019Y-44956190D01*
X23830971Y-44975238D01*
X23792876Y-44994285D01*
X36315047Y-35707333D02*
X35915047Y-35574000D01*
X36315047Y-35440666D01*
X35953142Y-35078761D02*
X35934095Y-35097809D01*
X35915047Y-35154952D01*
X35915047Y-35193047D01*
X35934095Y-35250190D01*
X35972190Y-35288285D01*
X36010285Y-35307333D01*
X36086476Y-35326380D01*
X36143619Y-35326380D01*
X36219809Y-35307333D01*
X36257904Y-35288285D01*
X36296000Y-35250190D01*
X36315047Y-35193047D01*
X36315047Y-35154952D01*
X36296000Y-35097809D01*
X36276952Y-35078761D01*
X35953142Y-34678761D02*
X35934095Y-34697809D01*
X35915047Y-34754952D01*
X35915047Y-34793047D01*
X35934095Y-34850190D01*
X35972190Y-34888285D01*
X36010285Y-34907333D01*
X36086476Y-34926380D01*
X36143619Y-34926380D01*
X36219809Y-34907333D01*
X36257904Y-34888285D01*
X36296000Y-34850190D01*
X36315047Y-34793047D01*
X36315047Y-34754952D01*
X36296000Y-34697809D01*
X36276952Y-34678761D01*
X36124571Y-37593333D02*
X36124571Y-37726666D01*
X35915047Y-37726666D02*
X36315047Y-37726666D01*
X36315047Y-37536190D01*
X36181714Y-37212380D02*
X35915047Y-37212380D01*
X36334095Y-37307619D02*
X36048380Y-37402857D01*
X36048380Y-37155238D01*
X36124571Y-40133333D02*
X36124571Y-40266666D01*
X35915047Y-40266666D02*
X36315047Y-40266666D01*
X36315047Y-40076190D01*
X36315047Y-39733333D02*
X36315047Y-39923809D01*
X36124571Y-39942857D01*
X36143619Y-39923809D01*
X36162666Y-39885714D01*
X36162666Y-39790476D01*
X36143619Y-39752380D01*
X36124571Y-39733333D01*
X36086476Y-39714285D01*
X35991238Y-39714285D01*
X35953142Y-39733333D01*
X35934095Y-39752380D01*
X35915047Y-39790476D01*
X35915047Y-39885714D01*
X35934095Y-39923809D01*
X35953142Y-39942857D01*
X36124571Y-42622533D02*
X36124571Y-42755866D01*
X35915047Y-42755866D02*
X36315047Y-42755866D01*
X36315047Y-42565390D01*
X36315047Y-42241580D02*
X36315047Y-42317771D01*
X36296000Y-42355866D01*
X36276952Y-42374914D01*
X36219809Y-42413009D01*
X36143619Y-42432057D01*
X35991238Y-42432057D01*
X35953142Y-42413009D01*
X35934095Y-42393961D01*
X35915047Y-42355866D01*
X35915047Y-42279676D01*
X35934095Y-42241580D01*
X35953142Y-42222533D01*
X35991238Y-42203485D01*
X36086476Y-42203485D01*
X36124571Y-42222533D01*
X36143619Y-42241580D01*
X36162666Y-42279676D01*
X36162666Y-42355866D01*
X36143619Y-42393961D01*
X36124571Y-42413009D01*
X36086476Y-42432057D01*
X36124571Y-45213333D02*
X36124571Y-45346666D01*
X35915047Y-45346666D02*
X36315047Y-45346666D01*
X36315047Y-45156190D01*
X36315047Y-45041904D02*
X36315047Y-44775238D01*
X35915047Y-44946666D01*
X36124571Y-47781904D02*
X36105523Y-47724761D01*
X36086476Y-47705714D01*
X36048380Y-47686666D01*
X35991238Y-47686666D01*
X35953142Y-47705714D01*
X35934095Y-47724761D01*
X35915047Y-47762857D01*
X35915047Y-47915238D01*
X36315047Y-47915238D01*
X36315047Y-47781904D01*
X36296000Y-47743809D01*
X36276952Y-47724761D01*
X36238857Y-47705714D01*
X36200761Y-47705714D01*
X36162666Y-47724761D01*
X36143619Y-47743809D01*
X36124571Y-47781904D01*
X36124571Y-47915238D01*
X35915047Y-47305714D02*
X35915047Y-47534285D01*
X35915047Y-47420000D02*
X36315047Y-47420000D01*
X36257904Y-47458095D01*
X36219809Y-47496190D01*
X36200761Y-47534285D01*
X30352380Y-33729352D02*
X30352380Y-33329352D01*
X30257142Y-33329352D01*
X30200000Y-33348400D01*
X30161904Y-33386495D01*
X30142857Y-33424590D01*
X30123809Y-33500780D01*
X30123809Y-33557923D01*
X30142857Y-33634114D01*
X30161904Y-33672209D01*
X30200000Y-33710304D01*
X30257142Y-33729352D01*
X30352380Y-33729352D01*
X29952380Y-33576971D02*
X29647619Y-33576971D01*
X30066666Y-53960457D02*
X30085714Y-53979504D01*
X30142857Y-53998552D01*
X30180952Y-53998552D01*
X30238095Y-53979504D01*
X30276190Y-53941409D01*
X30295238Y-53903314D01*
X30314285Y-53827123D01*
X30314285Y-53769980D01*
X30295238Y-53693790D01*
X30276190Y-53655695D01*
X30238095Y-53617600D01*
X30180952Y-53598552D01*
X30142857Y-53598552D01*
X30085714Y-53617600D01*
X30066666Y-53636647D01*
X29933333Y-53598552D02*
X29666666Y-53598552D01*
X29838095Y-53998552D01*
X22199047Y-25944238D02*
X22599047Y-25944238D01*
X22599047Y-25849000D01*
X22580000Y-25791857D01*
X22541904Y-25753761D01*
X22503809Y-25734714D01*
X22427619Y-25715666D01*
X22370476Y-25715666D01*
X22294285Y-25734714D01*
X22256190Y-25753761D01*
X22218095Y-25791857D01*
X22199047Y-25849000D01*
X22199047Y-25944238D01*
X22599047Y-25582333D02*
X22599047Y-25334714D01*
X22446666Y-25468047D01*
X22446666Y-25410904D01*
X22427619Y-25372809D01*
X22408571Y-25353761D01*
X22370476Y-25334714D01*
X22275238Y-25334714D01*
X22237142Y-25353761D01*
X22218095Y-25372809D01*
X22199047Y-25410904D01*
X22199047Y-25525190D01*
X22218095Y-25563285D01*
X22237142Y-25582333D01*
X23828571Y-52841904D02*
X23809523Y-52784761D01*
X23790476Y-52765714D01*
X23752380Y-52746666D01*
X23695238Y-52746666D01*
X23657142Y-52765714D01*
X23638095Y-52784761D01*
X23619047Y-52822857D01*
X23619047Y-52975238D01*
X24019047Y-52975238D01*
X24019047Y-52841904D01*
X24000000Y-52803809D01*
X23980952Y-52784761D01*
X23942857Y-52765714D01*
X23904761Y-52765714D01*
X23866666Y-52784761D01*
X23847619Y-52803809D01*
X23828571Y-52841904D01*
X23828571Y-52975238D01*
X23885714Y-52403809D02*
X23619047Y-52403809D01*
X24038095Y-52499047D02*
X23752380Y-52594285D01*
X23752380Y-52346666D01*
X36692616Y-54272210D02*
X36638741Y-54245273D01*
X36611804Y-54245273D01*
X36571398Y-54258741D01*
X36530992Y-54299148D01*
X36517523Y-54339554D01*
X36517523Y-54366491D01*
X36530992Y-54406897D01*
X36638741Y-54514647D01*
X36921584Y-54231804D01*
X36827303Y-54137523D01*
X36786897Y-54124054D01*
X36759960Y-54124054D01*
X36719554Y-54137523D01*
X36692616Y-54164460D01*
X36679148Y-54204867D01*
X36679148Y-54231804D01*
X36692616Y-54272210D01*
X36786897Y-54366491D01*
X36517523Y-53827743D02*
X36571398Y-53881618D01*
X36584867Y-53922024D01*
X36584867Y-53948961D01*
X36571398Y-54016305D01*
X36530992Y-54083648D01*
X36423242Y-54191398D01*
X36382836Y-54204867D01*
X36355899Y-54204867D01*
X36315493Y-54191398D01*
X36261618Y-54137523D01*
X36248149Y-54097117D01*
X36248149Y-54070180D01*
X36261618Y-54029773D01*
X36328961Y-53962430D01*
X36369367Y-53948961D01*
X36396305Y-53948961D01*
X36436711Y-53962430D01*
X36490586Y-54016305D01*
X36504054Y-54056711D01*
X36504054Y-54083648D01*
X36490586Y-54124054D01*
X35223333Y-53821428D02*
X35356666Y-53821428D01*
X35356666Y-54030952D02*
X35356666Y-53630952D01*
X35166190Y-53630952D01*
X34804285Y-54030952D02*
X35032857Y-54030952D01*
X34918571Y-54030952D02*
X34918571Y-53630952D01*
X34956666Y-53688095D01*
X34994761Y-53726190D01*
X35032857Y-53745238D01*
X27755238Y-53998552D02*
X27755238Y-53598552D01*
X27660000Y-53598552D01*
X27602857Y-53617600D01*
X27564761Y-53655695D01*
X27545714Y-53693790D01*
X27526666Y-53769980D01*
X27526666Y-53827123D01*
X27545714Y-53903314D01*
X27564761Y-53941409D01*
X27602857Y-53979504D01*
X27660000Y-53998552D01*
X27755238Y-53998552D01*
X27183809Y-53598552D02*
X27260000Y-53598552D01*
X27298095Y-53617600D01*
X27317142Y-53636647D01*
X27355238Y-53693790D01*
X27374285Y-53769980D01*
X27374285Y-53922361D01*
X27355238Y-53960457D01*
X27336190Y-53979504D01*
X27298095Y-53998552D01*
X27221904Y-53998552D01*
X27183809Y-53979504D01*
X27164761Y-53960457D01*
X27145714Y-53922361D01*
X27145714Y-53827123D01*
X27164761Y-53789028D01*
X27183809Y-53769980D01*
X27221904Y-53750933D01*
X27298095Y-53750933D01*
X27336190Y-53769980D01*
X27355238Y-53789028D01*
X27374285Y-53827123D01*
X25081904Y-53789028D02*
X25024761Y-53808076D01*
X25005714Y-53827123D01*
X24986666Y-53865219D01*
X24986666Y-53922361D01*
X25005714Y-53960457D01*
X25024761Y-53979504D01*
X25062857Y-53998552D01*
X25215238Y-53998552D01*
X25215238Y-53598552D01*
X25081904Y-53598552D01*
X25043809Y-53617600D01*
X25024761Y-53636647D01*
X25005714Y-53674742D01*
X25005714Y-53712838D01*
X25024761Y-53750933D01*
X25043809Y-53769980D01*
X25081904Y-53789028D01*
X25215238Y-53789028D01*
X24853333Y-53598552D02*
X24586666Y-53598552D01*
X24758095Y-53998552D01*
X37439047Y-25493390D02*
X37629523Y-25626723D01*
X37439047Y-25721961D02*
X37839047Y-25721961D01*
X37839047Y-25569580D01*
X37820000Y-25531485D01*
X37800952Y-25512438D01*
X37762857Y-25493390D01*
X37705714Y-25493390D01*
X37667619Y-25512438D01*
X37648571Y-25531485D01*
X37629523Y-25569580D01*
X37629523Y-25721961D01*
X37553333Y-25341009D02*
X37553333Y-25150533D01*
X37439047Y-25379104D02*
X37839047Y-25245771D01*
X37439047Y-25112438D01*
X37839047Y-25017200D02*
X37439047Y-24921961D01*
X37724761Y-24845771D01*
X37439047Y-24769580D01*
X37839047Y-24674342D01*
G36*
X34690000Y-48320000D02*
G01*
X34490000Y-48320000D01*
X34490000Y-47880000D01*
X34143334Y-47880000D01*
X34143334Y-47693334D01*
X34490000Y-47693334D01*
X34490000Y-47413334D01*
X34090000Y-47413334D01*
X34090000Y-47213334D01*
X34690000Y-47213334D01*
X34690000Y-48320000D01*
G37*
G36*
X32452287Y-48880790D02*
G01*
X32643334Y-49254913D01*
X32650416Y-48506667D01*
X32956667Y-48506667D01*
X32956667Y-50160000D01*
X32650000Y-50160000D01*
X32650000Y-49785936D01*
X32568443Y-49646126D01*
X32567710Y-49644869D01*
X32535557Y-49590563D01*
X32507898Y-49545300D01*
X32487662Y-49513776D01*
X32477773Y-49500684D01*
X32477702Y-49500651D01*
X32469990Y-49511492D01*
X32453371Y-49543704D01*
X32429293Y-49594183D01*
X32399204Y-49659826D01*
X32364553Y-49737530D01*
X32326788Y-49824193D01*
X32184915Y-50153334D01*
X32010112Y-50157059D01*
X31939576Y-50158373D01*
X31891369Y-50158440D01*
X31862058Y-50156740D01*
X31847752Y-50152766D01*
X31844561Y-50146008D01*
X31848595Y-50135960D01*
X31849567Y-50134108D01*
X31862008Y-50108843D01*
X31883541Y-50063807D01*
X31912594Y-50002378D01*
X31947596Y-49927934D01*
X31986976Y-49843852D01*
X32029161Y-49753509D01*
X32072582Y-49660284D01*
X32115665Y-49567553D01*
X32156840Y-49478694D01*
X32194536Y-49397085D01*
X32227180Y-49326102D01*
X32253202Y-49269124D01*
X32271030Y-49229528D01*
X32279093Y-49210692D01*
X32281592Y-49201268D01*
X32281595Y-49186267D01*
X32276389Y-49166077D01*
X32264563Y-49137747D01*
X32244705Y-49098328D01*
X32215404Y-49044868D01*
X32175249Y-48974417D01*
X32122828Y-48884025D01*
X32087313Y-48823080D01*
X32041544Y-48744643D01*
X32000489Y-48674403D01*
X31966322Y-48616074D01*
X31941216Y-48573368D01*
X31927344Y-48550000D01*
X31901159Y-48506667D01*
X32261241Y-48506667D01*
X32452287Y-48880790D01*
G37*
G36*
X33503334Y-50160000D02*
G01*
X33196667Y-50160000D01*
X33196667Y-48506667D01*
X33503334Y-48506667D01*
X33503334Y-50160000D01*
G37*
G36*
X29330000Y-50160000D02*
G01*
X29023334Y-50160000D01*
X29023334Y-48506667D01*
X29330000Y-48506667D01*
X29330000Y-50160000D01*
G37*
G36*
X31860568Y-47213644D02*
G01*
X31955069Y-47224022D01*
X32032876Y-47254314D01*
X32096358Y-47305859D01*
X32147888Y-47380000D01*
X32150395Y-47384704D01*
X32158678Y-47402211D01*
X32165013Y-47421480D01*
X32169658Y-47446069D01*
X32172876Y-47479536D01*
X32174925Y-47525438D01*
X32176066Y-47587333D01*
X32176560Y-47668779D01*
X32176667Y-47773334D01*
X32176578Y-47856544D01*
X32176079Y-47944022D01*
X32174938Y-48010988D01*
X32172932Y-48060924D01*
X32169837Y-48097311D01*
X32165428Y-48123632D01*
X32159482Y-48143368D01*
X32151774Y-48160000D01*
X32103011Y-48231413D01*
X32038840Y-48285052D01*
X31956753Y-48320876D01*
X31880388Y-48332823D01*
X31797333Y-48327261D01*
X31717773Y-48305804D01*
X31651723Y-48270117D01*
X31615015Y-48231989D01*
X31578534Y-48171880D01*
X31550283Y-48101001D01*
X31534304Y-48027696D01*
X31526286Y-47960000D01*
X31726835Y-47960000D01*
X31741687Y-48018984D01*
X31759846Y-48070545D01*
X31789163Y-48108257D01*
X31831192Y-48128157D01*
X31841535Y-48129948D01*
X31886695Y-48124996D01*
X31930373Y-48104923D01*
X31960205Y-48074838D01*
X31961475Y-48071955D01*
X31967093Y-48043898D01*
X31972123Y-47995624D01*
X31976399Y-47932439D01*
X31979756Y-47859650D01*
X31982028Y-47782561D01*
X31983051Y-47706479D01*
X31982658Y-47636709D01*
X31980684Y-47578556D01*
X31976963Y-47537326D01*
X31972310Y-47514104D01*
X31947964Y-47459445D01*
X31908979Y-47425192D01*
X31857273Y-47413334D01*
X31844660Y-47413876D01*
X31798750Y-47428958D01*
X31765081Y-47465931D01*
X31742008Y-47526410D01*
X31726835Y-47586667D01*
X31526329Y-47586667D01*
X31534727Y-47515211D01*
X31540900Y-47474904D01*
X31569378Y-47381936D01*
X31615229Y-47309015D01*
X31678127Y-47256452D01*
X31757747Y-47224553D01*
X31853762Y-47213626D01*
X31860568Y-47213644D01*
G37*
G36*
X34383334Y-50160000D02*
G01*
X34383334Y-49522966D01*
X34193334Y-49517721D01*
X34141302Y-49516122D01*
X34077170Y-49513112D01*
X34029949Y-49508724D01*
X33993663Y-49502067D01*
X33962339Y-49492246D01*
X33930000Y-49478369D01*
X33899019Y-49463167D01*
X33831184Y-49420622D01*
X33779424Y-49370009D01*
X33736053Y-49304436D01*
X33721659Y-49277762D01*
X33711187Y-49254258D01*
X33704146Y-49229232D01*
X33699853Y-49197656D01*
X33697630Y-49154500D01*
X33696794Y-49094736D01*
X33696712Y-49041939D01*
X33996995Y-49041939D01*
X33999179Y-49097897D01*
X34007182Y-49138062D01*
X34022297Y-49168298D01*
X34045820Y-49194470D01*
X34052741Y-49200690D01*
X34069563Y-49212679D01*
X34090177Y-49220282D01*
X34120301Y-49224489D01*
X34165652Y-49226287D01*
X34231947Y-49226667D01*
X34383334Y-49226667D01*
X34383334Y-48784372D01*
X34230268Y-48788853D01*
X34188172Y-48790172D01*
X34134886Y-48792729D01*
X34099168Y-48796774D01*
X34075303Y-48803553D01*
X34057574Y-48814312D01*
X34040268Y-48830298D01*
X34030539Y-48840469D01*
X34015700Y-48860966D01*
X34006779Y-48886295D01*
X34001759Y-48923735D01*
X33998621Y-48980563D01*
X33996995Y-49041939D01*
X33696712Y-49041939D01*
X33696667Y-49013334D01*
X33696760Y-48948054D01*
X33697482Y-48883339D01*
X33699462Y-48836378D01*
X33703326Y-48802140D01*
X33709699Y-48775595D01*
X33719208Y-48751714D01*
X33732478Y-48725467D01*
X33769225Y-48668366D01*
X33841120Y-48595761D01*
X33929323Y-48542241D01*
X33949175Y-48534275D01*
X33979532Y-48525678D01*
X34018206Y-48519022D01*
X34069784Y-48513739D01*
X34138853Y-48509260D01*
X34230000Y-48505019D01*
X34288415Y-48502925D01*
X34376078Y-48500888D01*
X34458692Y-48500162D01*
X34529063Y-48500791D01*
X34580000Y-48502821D01*
X34690000Y-48510601D01*
X34690000Y-50160000D01*
X34383334Y-50160000D01*
G37*
G36*
X29836667Y-49115791D02*
G01*
X29836669Y-49152274D01*
X29836737Y-49289886D01*
X29836980Y-49403921D01*
X29837500Y-49496876D01*
X29838401Y-49571248D01*
X29839783Y-49629533D01*
X29841749Y-49674228D01*
X29844402Y-49707828D01*
X29847844Y-49732831D01*
X29852176Y-49751733D01*
X29857502Y-49767029D01*
X29863923Y-49781218D01*
X29880992Y-49809197D01*
X29926617Y-49850876D01*
X29983221Y-49874506D01*
X30044976Y-49879994D01*
X30106056Y-49867246D01*
X30160633Y-49836168D01*
X30202880Y-49786667D01*
X30204768Y-49783365D01*
X30210822Y-49771277D01*
X30215853Y-49756928D01*
X30219976Y-49737877D01*
X30223307Y-49711683D01*
X30225960Y-49675906D01*
X30228050Y-49628106D01*
X30229691Y-49565841D01*
X30230999Y-49486672D01*
X30232087Y-49388158D01*
X30233072Y-49267859D01*
X30234066Y-49123334D01*
X30238132Y-48506667D01*
X30530955Y-48506667D01*
X30526682Y-49163334D01*
X30525963Y-49272526D01*
X30524916Y-49410727D01*
X30523654Y-49526387D01*
X30521936Y-49621953D01*
X30519521Y-49699870D01*
X30516171Y-49762585D01*
X30511643Y-49812544D01*
X30505699Y-49852193D01*
X30498097Y-49883978D01*
X30488597Y-49910346D01*
X30476959Y-49933742D01*
X30462943Y-49956613D01*
X30446308Y-49981404D01*
X30400773Y-50039316D01*
X30326787Y-50102129D01*
X30236260Y-50146854D01*
X30223532Y-50151383D01*
X30184459Y-50162375D01*
X30142139Y-50168574D01*
X30088798Y-50170796D01*
X30016667Y-50169854D01*
X29974833Y-50168486D01*
X29916113Y-50164755D01*
X29872006Y-50158241D01*
X29834771Y-50147593D01*
X29796667Y-50131460D01*
X29779048Y-50122742D01*
X29691340Y-50062853D01*
X29622883Y-49984557D01*
X29573780Y-49888002D01*
X29544134Y-49773334D01*
X29543499Y-49768881D01*
X29540296Y-49730090D01*
X29537431Y-49667791D01*
X29534959Y-49584640D01*
X29532935Y-49483295D01*
X29531414Y-49366413D01*
X29530451Y-49236651D01*
X29530101Y-49096667D01*
X29530000Y-48506667D01*
X29836667Y-48506667D01*
X29836667Y-49115791D01*
G37*
G36*
X31185621Y-48880790D02*
G01*
X31376667Y-49254913D01*
X31383749Y-48506667D01*
X31690000Y-48506667D01*
X31690000Y-50160000D01*
X31383334Y-50160000D01*
X31383334Y-49785936D01*
X31301777Y-49646126D01*
X31301043Y-49644869D01*
X31268890Y-49590563D01*
X31241232Y-49545300D01*
X31220995Y-49513776D01*
X31211107Y-49500684D01*
X31211035Y-49500651D01*
X31203323Y-49511492D01*
X31186704Y-49543704D01*
X31162626Y-49594183D01*
X31132538Y-49659826D01*
X31097887Y-49737530D01*
X31060121Y-49824193D01*
X30918248Y-50153334D01*
X30743446Y-50157059D01*
X30672910Y-50158373D01*
X30624702Y-50158440D01*
X30595391Y-50156740D01*
X30581085Y-50152766D01*
X30577894Y-50146008D01*
X30581928Y-50135960D01*
X30582900Y-50134108D01*
X30595341Y-50108843D01*
X30616874Y-50063807D01*
X30645927Y-50002378D01*
X30680929Y-49927934D01*
X30720309Y-49843852D01*
X30762495Y-49753509D01*
X30805915Y-49660284D01*
X30848998Y-49567553D01*
X30890174Y-49478694D01*
X30927869Y-49397085D01*
X30960514Y-49326102D01*
X30986536Y-49269124D01*
X31004364Y-49229528D01*
X31012426Y-49210692D01*
X31014926Y-49201268D01*
X31014928Y-49186267D01*
X31009722Y-49166077D01*
X30997896Y-49137747D01*
X30978038Y-49098328D01*
X30948737Y-49044868D01*
X30908582Y-48974417D01*
X30856161Y-48884025D01*
X30820646Y-48823080D01*
X30774877Y-48744643D01*
X30733822Y-48674403D01*
X30699655Y-48616074D01*
X30674549Y-48573368D01*
X30660677Y-48550000D01*
X30634492Y-48506667D01*
X30994574Y-48506667D01*
X31185621Y-48880790D01*
G37*
G36*
X28783334Y-50160902D02*
G01*
X28640000Y-50157118D01*
X28496667Y-50153334D01*
X28490000Y-49637934D01*
X28483334Y-49122535D01*
X28364225Y-49397934D01*
X28323468Y-49492106D01*
X28275266Y-49603353D01*
X28225886Y-49717218D01*
X28179242Y-49824666D01*
X28139255Y-49916667D01*
X28033393Y-50160000D01*
X27730000Y-50160000D01*
X27730000Y-48506667D01*
X28009701Y-48506667D01*
X28013184Y-49049679D01*
X28016667Y-49592692D01*
X28472029Y-48513334D01*
X28627682Y-48509577D01*
X28783334Y-48505821D01*
X28783334Y-50160902D01*
G37*
G36*
X26330000Y-50160902D02*
G01*
X26043334Y-50153334D01*
X26036667Y-49637934D01*
X26030000Y-49122535D01*
X25910892Y-49397934D01*
X25870134Y-49492106D01*
X25821933Y-49603353D01*
X25772552Y-49717218D01*
X25725909Y-49824666D01*
X25685921Y-49916667D01*
X25580059Y-50160000D01*
X25276667Y-50160000D01*
X25276667Y-48506667D01*
X25556368Y-48506667D01*
X25559851Y-49049679D01*
X25563334Y-49592692D01*
X26018696Y-48513334D01*
X26174348Y-48509577D01*
X26330000Y-48505821D01*
X26330000Y-50160902D01*
G37*
G36*
X27298578Y-48501405D02*
G01*
X27354161Y-48502249D01*
X27387344Y-48503667D01*
X27463334Y-48509969D01*
X27463334Y-50160000D01*
X26543334Y-50160000D01*
X26543334Y-49866667D01*
X27156667Y-49866667D01*
X27156667Y-49480000D01*
X26622432Y-49480000D01*
X26630000Y-49193334D01*
X26893334Y-49189718D01*
X27156667Y-49186103D01*
X27156667Y-48800000D01*
X26543334Y-48800000D01*
X26543334Y-48510409D01*
X26927344Y-48503887D01*
X26937475Y-48503718D01*
X27040045Y-48502290D01*
X27137259Y-48501427D01*
X27224857Y-48501131D01*
X27298578Y-48501405D01*
G37*
G36*
X32943334Y-48320000D02*
G01*
X32743334Y-48320000D01*
X32743334Y-48195098D01*
X32743330Y-48185360D01*
X32742593Y-48128868D01*
X32738983Y-48088665D01*
X32730218Y-48055650D01*
X32714015Y-48020723D01*
X32688094Y-47974783D01*
X32678720Y-47958825D01*
X32654161Y-47919378D01*
X32635733Y-47893223D01*
X32626860Y-47885362D01*
X32621936Y-47894636D01*
X32607770Y-47925035D01*
X32586403Y-47972521D01*
X32559679Y-48032992D01*
X32529438Y-48102344D01*
X32438008Y-48313334D01*
X32322369Y-48317210D01*
X32270596Y-48318302D01*
X32233664Y-48316903D01*
X32216067Y-48312252D01*
X32213969Y-48303876D01*
X32218803Y-48293167D01*
X32233866Y-48260506D01*
X32257365Y-48209865D01*
X32287679Y-48144730D01*
X32323188Y-48068584D01*
X32362271Y-47984913D01*
X32393020Y-47918849D01*
X32428645Y-47841526D01*
X32459003Y-47774743D01*
X32482567Y-47721894D01*
X32497812Y-47686374D01*
X32503209Y-47671579D01*
X32496937Y-47657361D01*
X32479137Y-47623902D01*
X32451937Y-47575087D01*
X32417466Y-47514735D01*
X32377853Y-47446667D01*
X32339017Y-47379107D01*
X32306021Y-47318978D01*
X32280987Y-47270358D01*
X32265859Y-47237020D01*
X32262576Y-47222735D01*
X32264492Y-47221509D01*
X32286909Y-47217426D01*
X32327107Y-47215474D01*
X32377932Y-47216069D01*
X32483334Y-47220000D01*
X32610000Y-47465801D01*
X32736667Y-47711601D01*
X32743334Y-47465801D01*
X32750000Y-47220000D01*
X32846667Y-47216083D01*
X32943334Y-47212165D01*
X32943334Y-48320000D01*
G37*
G36*
X33688763Y-41237467D02*
G01*
X33739266Y-41332965D01*
X33794213Y-41448675D01*
X33852886Y-41582698D01*
X33914568Y-41733138D01*
X33978543Y-41898098D01*
X34044094Y-42075680D01*
X34110504Y-42263987D01*
X34177056Y-42461123D01*
X34243033Y-42665189D01*
X34307719Y-42874289D01*
X34370397Y-43086525D01*
X34430350Y-43300000D01*
X34437102Y-43324625D01*
X34459612Y-43406012D01*
X34483809Y-43492705D01*
X34505505Y-43569675D01*
X34509995Y-43585573D01*
X34545160Y-43715456D01*
X34579935Y-43852765D01*
X34613448Y-43993369D01*
X34644824Y-44133136D01*
X34673192Y-44267934D01*
X34697676Y-44393632D01*
X34717405Y-44506098D01*
X34731504Y-44601201D01*
X34739101Y-44674809D01*
X34740820Y-44700874D01*
X34747112Y-44796284D01*
X34675223Y-44850336D01*
X34633544Y-44878681D01*
X34569223Y-44917880D01*
X34487541Y-44964773D01*
X34392006Y-45017544D01*
X34286125Y-45074375D01*
X34173409Y-45133449D01*
X34057364Y-45192948D01*
X33941498Y-45251055D01*
X33829321Y-45305952D01*
X33724340Y-45355823D01*
X33630064Y-45398850D01*
X33550000Y-45433216D01*
X33486593Y-45459200D01*
X33140213Y-45600760D01*
X32817294Y-45732037D01*
X32516997Y-45853345D01*
X32238486Y-45965003D01*
X31980923Y-46067328D01*
X31743471Y-46160636D01*
X31525294Y-46245245D01*
X31325553Y-46321471D01*
X31143413Y-46389633D01*
X30978035Y-46450046D01*
X30828582Y-46503028D01*
X30694218Y-46548897D01*
X30574104Y-46587968D01*
X30467405Y-46620559D01*
X30373282Y-46646988D01*
X30290899Y-46667571D01*
X30286781Y-46668516D01*
X30230878Y-46679988D01*
X30179512Y-46688378D01*
X30143334Y-46691927D01*
X30107404Y-46690461D01*
X30023446Y-46675756D01*
X29921692Y-46646222D01*
X29804323Y-46602824D01*
X29673517Y-46546530D01*
X29531453Y-46478303D01*
X29380309Y-46399109D01*
X29222265Y-46309915D01*
X29059499Y-46211684D01*
X28908235Y-46115335D01*
X28688488Y-45969032D01*
X28455157Y-45807179D01*
X28210991Y-45631968D01*
X27958735Y-45445588D01*
X27701138Y-45250230D01*
X27440945Y-45048085D01*
X27180903Y-44841343D01*
X26923760Y-44632194D01*
X26672263Y-44422830D01*
X26429158Y-44215440D01*
X26197192Y-44012215D01*
X25979112Y-43815346D01*
X25777666Y-43627023D01*
X25595599Y-43449437D01*
X25569290Y-43423041D01*
X25477331Y-43329050D01*
X25403722Y-43250523D01*
X25347072Y-43185812D01*
X25305987Y-43133269D01*
X25279074Y-43091245D01*
X25264942Y-43058092D01*
X25263698Y-43053233D01*
X25258125Y-43001744D01*
X25259130Y-42961048D01*
X25383352Y-42961048D01*
X25388969Y-42983556D01*
X25413935Y-43027629D01*
X25457827Y-43086373D01*
X25519501Y-43158715D01*
X25597811Y-43243579D01*
X25691615Y-43339890D01*
X25799767Y-43446572D01*
X25921123Y-43562551D01*
X26054539Y-43686752D01*
X26198871Y-43818098D01*
X26352973Y-43955516D01*
X26515703Y-44097929D01*
X26685914Y-44244263D01*
X26862464Y-44393443D01*
X27044208Y-44544393D01*
X27230000Y-44696039D01*
X27391935Y-44826227D01*
X27723374Y-45087302D01*
X28040519Y-45329603D01*
X28342936Y-45552821D01*
X28630191Y-45756644D01*
X28901854Y-45940763D01*
X29157490Y-46104868D01*
X29396667Y-46248648D01*
X29590000Y-46360488D01*
X29598300Y-46290244D01*
X29598601Y-46287669D01*
X29603132Y-46245357D01*
X29609131Y-46184844D01*
X29615853Y-46113826D01*
X29622553Y-46040000D01*
X29625988Y-46001993D01*
X29635500Y-45901308D01*
X29647034Y-45783843D01*
X29659949Y-45655789D01*
X29673602Y-45523335D01*
X29687353Y-45392673D01*
X29700558Y-45269991D01*
X29712576Y-45161481D01*
X29722766Y-45073334D01*
X29737182Y-44947951D01*
X29751429Y-44815060D01*
X29764897Y-44680857D01*
X29777240Y-44549313D01*
X29788113Y-44424396D01*
X29797171Y-44310077D01*
X29804068Y-44210324D01*
X29808460Y-44129106D01*
X29810000Y-44070394D01*
X29810339Y-44039835D01*
X29814319Y-43997059D01*
X29825645Y-43972982D01*
X29847845Y-43962374D01*
X29884448Y-43960000D01*
X29942709Y-43960000D01*
X29935608Y-44110000D01*
X29935021Y-44122021D01*
X29930889Y-44193703D01*
X29925021Y-44277799D01*
X29917215Y-44376655D01*
X29907273Y-44492621D01*
X29894994Y-44628047D01*
X29880178Y-44785279D01*
X29862625Y-44966667D01*
X29857013Y-45023713D01*
X29845946Y-45133724D01*
X29834766Y-45241041D01*
X29822836Y-45351496D01*
X29809522Y-45470920D01*
X29794188Y-45605144D01*
X29776199Y-45760000D01*
X29773051Y-45787696D01*
X29765911Y-45854395D01*
X29757964Y-45932638D01*
X29749648Y-46017665D01*
X29741404Y-46104718D01*
X29733672Y-46189038D01*
X29726893Y-46265866D01*
X29721505Y-46330442D01*
X29717950Y-46378008D01*
X29716667Y-46403804D01*
X29724330Y-46414877D01*
X29752566Y-46433942D01*
X29796450Y-46456453D01*
X29850532Y-46479895D01*
X29909365Y-46501757D01*
X29967501Y-46519523D01*
X29982310Y-46523524D01*
X30019312Y-46534080D01*
X30042316Y-46541455D01*
X30044318Y-46542064D01*
X30052248Y-46539889D01*
X30059022Y-46527726D01*
X30065053Y-46502802D01*
X30067410Y-46486060D01*
X30200144Y-46486060D01*
X30201315Y-46521983D01*
X30205458Y-46540632D01*
X30212790Y-46545690D01*
X30231756Y-46542630D01*
X30275481Y-46532140D01*
X30336513Y-46515511D01*
X30410333Y-46494064D01*
X30492422Y-46469120D01*
X30578262Y-46441998D01*
X30663334Y-46414020D01*
X30714207Y-46396765D01*
X30887474Y-46336150D01*
X31082876Y-46265288D01*
X31298804Y-46184795D01*
X31533648Y-46095290D01*
X31785799Y-45997389D01*
X32053647Y-45891711D01*
X32335584Y-45778872D01*
X32630000Y-45659490D01*
X32633742Y-45657964D01*
X32717658Y-45623846D01*
X32799577Y-45590735D01*
X32873831Y-45560909D01*
X32934751Y-45536646D01*
X32976667Y-45520223D01*
X32999743Y-45511211D01*
X33062056Y-45486139D01*
X33132332Y-45457138D01*
X33199321Y-45428824D01*
X33240693Y-45411219D01*
X33287702Y-45391637D01*
X33321019Y-45378276D01*
X33335259Y-45373334D01*
X33350088Y-45368796D01*
X33385923Y-45354384D01*
X33438496Y-45331807D01*
X33503976Y-45302819D01*
X33578530Y-45269176D01*
X33658329Y-45232634D01*
X33739540Y-45194948D01*
X33818333Y-45157874D01*
X33890875Y-45123167D01*
X33953337Y-45092583D01*
X34001886Y-45067877D01*
X34079010Y-45027331D01*
X34202655Y-44962130D01*
X34305557Y-44907455D01*
X34389606Y-44862165D01*
X34456691Y-44825119D01*
X34508701Y-44795179D01*
X34547526Y-44771202D01*
X34575055Y-44752049D01*
X34593178Y-44736580D01*
X34603783Y-44723655D01*
X34608761Y-44712133D01*
X34610000Y-44700874D01*
X34609072Y-44684074D01*
X34602999Y-44635832D01*
X34592007Y-44568287D01*
X34576961Y-44485706D01*
X34558728Y-44392354D01*
X34538173Y-44292498D01*
X34516164Y-44190402D01*
X34493566Y-44090332D01*
X34471245Y-43996554D01*
X34450069Y-43913334D01*
X34449228Y-43910164D01*
X34435776Y-43859201D01*
X34418011Y-43791559D01*
X34398148Y-43715678D01*
X34378398Y-43640000D01*
X34378217Y-43639306D01*
X34362836Y-43580686D01*
X34347889Y-43524779D01*
X34332234Y-43467544D01*
X34314731Y-43404939D01*
X34294240Y-43332924D01*
X34269621Y-43247456D01*
X34239732Y-43144495D01*
X34203434Y-43020000D01*
X34186524Y-42962668D01*
X34135585Y-42795955D01*
X34080843Y-42624631D01*
X34023409Y-42451723D01*
X33964391Y-42280258D01*
X33904899Y-42113260D01*
X33846043Y-41953756D01*
X33788932Y-41804772D01*
X33734675Y-41669334D01*
X33684382Y-41550469D01*
X33639163Y-41451201D01*
X33600127Y-41374557D01*
X33545498Y-41275781D01*
X33529848Y-41334557D01*
X33512947Y-41386179D01*
X33465014Y-41486356D01*
X33397756Y-41590185D01*
X33314400Y-41692954D01*
X33218170Y-41789948D01*
X33187914Y-41815793D01*
X33120758Y-41866781D01*
X33039278Y-41923017D01*
X32949585Y-41980502D01*
X32857789Y-42035237D01*
X32770000Y-42083222D01*
X32684774Y-42125938D01*
X32597557Y-42166645D01*
X32505897Y-42206136D01*
X32406242Y-42245770D01*
X32295042Y-42286908D01*
X32168747Y-42330908D01*
X32047072Y-42371390D01*
X32023805Y-42379131D01*
X31856667Y-42432934D01*
X31849119Y-42435271D01*
X31805879Y-42447620D01*
X31749440Y-42462707D01*
X31690000Y-42477788D01*
X31668416Y-42483108D01*
X31596133Y-42500977D01*
X31516552Y-42520712D01*
X31443334Y-42538926D01*
X31398588Y-42549975D01*
X31323089Y-42567973D01*
X31249073Y-42584586D01*
X31170981Y-42600964D01*
X31083254Y-42618255D01*
X30980336Y-42637607D01*
X30856667Y-42660170D01*
X30808861Y-42668922D01*
X30713801Y-42687029D01*
X30627742Y-42704341D01*
X30554137Y-42720104D01*
X30496442Y-42733563D01*
X30458110Y-42743964D01*
X30442597Y-42750554D01*
X30442007Y-42756202D01*
X30441653Y-42761605D01*
X30440145Y-42784590D01*
X30437326Y-42833550D01*
X30433755Y-42899363D01*
X30429637Y-42978308D01*
X30425177Y-43066667D01*
X30425024Y-43069755D01*
X30419103Y-43183011D01*
X30412047Y-43309231D01*
X30404438Y-43438515D01*
X30396858Y-43560960D01*
X30389889Y-43666667D01*
X30389252Y-43675950D01*
X30382053Y-43782532D01*
X30373946Y-43905173D01*
X30365555Y-44034262D01*
X30357507Y-44160185D01*
X30350425Y-44273334D01*
X30349600Y-44286671D01*
X30342382Y-44400468D01*
X30334250Y-44524607D01*
X30325826Y-44649847D01*
X30317730Y-44766947D01*
X30310581Y-44866667D01*
X30304104Y-44955105D01*
X30295445Y-45074061D01*
X30286301Y-45200334D01*
X30277422Y-45323549D01*
X30269558Y-45433334D01*
X30262636Y-45530091D01*
X30254130Y-45648422D01*
X30245404Y-45769336D01*
X30237159Y-45883104D01*
X30230097Y-45980000D01*
X30225395Y-46045649D01*
X30218745Y-46142790D01*
X30212535Y-46238054D01*
X30207299Y-46323203D01*
X30203569Y-46390000D01*
X30201726Y-46429182D01*
X30200144Y-46486060D01*
X30067410Y-46486060D01*
X30070750Y-46462342D01*
X30076526Y-46403572D01*
X30082791Y-46323716D01*
X30089957Y-46220000D01*
X30094582Y-46150375D01*
X30100647Y-46058963D01*
X30107681Y-45952867D01*
X30115283Y-45838106D01*
X30123057Y-45720700D01*
X30130601Y-45606667D01*
X30135505Y-45532586D01*
X30149370Y-45323905D01*
X30161796Y-45138203D01*
X30172972Y-44972743D01*
X30183086Y-44824790D01*
X30192325Y-44691608D01*
X30200878Y-44570462D01*
X30208932Y-44458616D01*
X30216675Y-44353334D01*
X30216821Y-44351370D01*
X30228887Y-44184467D01*
X30241699Y-43999262D01*
X30254716Y-43803984D01*
X30267400Y-43606861D01*
X30279212Y-43416124D01*
X30289612Y-43240000D01*
X30292454Y-43190597D01*
X30297634Y-43101418D01*
X30302687Y-43015401D01*
X30307152Y-42940367D01*
X30310569Y-42884136D01*
X30318158Y-42761605D01*
X30180746Y-42720309D01*
X30074895Y-42687529D01*
X29708980Y-42559546D01*
X29337783Y-42407150D01*
X29078707Y-42285472D01*
X29400094Y-42285472D01*
X29407924Y-42292990D01*
X29432653Y-42304037D01*
X29433912Y-42304505D01*
X29461987Y-42315484D01*
X29508100Y-42334028D01*
X29566141Y-42357665D01*
X29630000Y-42383921D01*
X29672949Y-42401196D01*
X29753122Y-42432035D01*
X29844864Y-42466079D01*
X29939912Y-42500278D01*
X30030000Y-42531580D01*
X30038327Y-42534407D01*
X30139004Y-42567789D01*
X30219220Y-42592286D01*
X30283068Y-42608621D01*
X30334643Y-42617515D01*
X30378039Y-42619689D01*
X30417349Y-42615865D01*
X30456667Y-42606763D01*
X30473223Y-42602532D01*
X30518839Y-42592189D01*
X30583265Y-42578479D01*
X30661894Y-42562356D01*
X30750120Y-42544775D01*
X30843334Y-42526689D01*
X30882984Y-42519062D01*
X31003271Y-42495447D01*
X31118768Y-42472092D01*
X31226417Y-42449666D01*
X31323157Y-42428836D01*
X31405929Y-42410268D01*
X31471674Y-42394630D01*
X31517331Y-42382589D01*
X31539840Y-42374812D01*
X31541678Y-42371390D01*
X31530259Y-42354147D01*
X31498065Y-42324994D01*
X31446507Y-42285282D01*
X31441369Y-42281517D01*
X31311627Y-42186631D01*
X31190984Y-42098775D01*
X31080983Y-42019054D01*
X30983167Y-41948570D01*
X30899078Y-41888427D01*
X30830258Y-41839729D01*
X30778250Y-41803578D01*
X30744596Y-41781079D01*
X30730840Y-41773334D01*
X30730088Y-41773404D01*
X30711560Y-41780767D01*
X30677480Y-41797880D01*
X30634615Y-41821366D01*
X30522488Y-41883335D01*
X30349544Y-41971135D01*
X30180122Y-42046362D01*
X30006677Y-42112022D01*
X29821661Y-42171121D01*
X29617531Y-42226668D01*
X29567033Y-42239565D01*
X29501930Y-42256536D01*
X29449483Y-42270621D01*
X29414099Y-42280630D01*
X29400183Y-42285373D01*
X29400094Y-42285472D01*
X29078707Y-42285472D01*
X28960837Y-42230113D01*
X28577676Y-42028206D01*
X28187832Y-41801201D01*
X27790840Y-41548868D01*
X27683183Y-41476639D01*
X27488468Y-41340860D01*
X27299387Y-41202526D01*
X27118524Y-41063744D01*
X26948461Y-40926622D01*
X26791781Y-40793266D01*
X26651068Y-40665785D01*
X26528903Y-40546284D01*
X26427870Y-40436872D01*
X26361778Y-40360411D01*
X26231449Y-40621510D01*
X26190946Y-40704876D01*
X26130058Y-40836646D01*
X26064392Y-40985108D01*
X25996056Y-41145301D01*
X25927155Y-41312265D01*
X25859797Y-41481040D01*
X25796087Y-41646667D01*
X25782210Y-41683132D01*
X25757193Y-41747360D01*
X25734112Y-41804931D01*
X25716615Y-41846667D01*
X25706966Y-41869328D01*
X25686176Y-41921766D01*
X25670154Y-41966667D01*
X25666706Y-41977110D01*
X25652991Y-42017293D01*
X25633255Y-42074062D01*
X25609595Y-42141411D01*
X25584107Y-42213334D01*
X25567929Y-42259335D01*
X25524687Y-42388085D01*
X25485488Y-42513227D01*
X25451280Y-42631225D01*
X25423013Y-42738542D01*
X25401636Y-42831642D01*
X25388100Y-42906989D01*
X25383352Y-42961048D01*
X25259130Y-42961048D01*
X25259873Y-42930929D01*
X25268598Y-42846290D01*
X25283956Y-42753334D01*
X25291368Y-42718048D01*
X25317037Y-42615587D01*
X25352421Y-42493063D01*
X25396411Y-42353394D01*
X25447901Y-42199498D01*
X25505784Y-42034292D01*
X25568951Y-41860694D01*
X25636296Y-41681620D01*
X25706711Y-41499990D01*
X25779089Y-41318719D01*
X25852323Y-41140726D01*
X25925305Y-40968928D01*
X25996928Y-40806242D01*
X26066084Y-40655587D01*
X26131667Y-40519878D01*
X26256021Y-40270369D01*
X26486905Y-40270369D01*
X26492516Y-40285227D01*
X26498280Y-40294347D01*
X26524992Y-40327048D01*
X26567751Y-40373207D01*
X26623634Y-40430057D01*
X26689717Y-40494831D01*
X26763075Y-40564760D01*
X26840785Y-40637078D01*
X26919923Y-40709017D01*
X26997566Y-40777811D01*
X27070788Y-40840690D01*
X27136667Y-40894890D01*
X27160177Y-40913604D01*
X27307423Y-41027889D01*
X27464967Y-41145710D01*
X27627770Y-41263524D01*
X27790793Y-41377790D01*
X27948999Y-41484967D01*
X28097348Y-41581514D01*
X28230802Y-41663888D01*
X28243116Y-41671092D01*
X28289349Y-41695797D01*
X28327674Y-41712848D01*
X28350802Y-41718904D01*
X28378799Y-41714474D01*
X28429073Y-41702970D01*
X28498009Y-41685343D01*
X28582195Y-41662537D01*
X28678219Y-41635496D01*
X28782672Y-41605164D01*
X28892142Y-41572484D01*
X29003218Y-41538400D01*
X29013477Y-41535197D01*
X29116421Y-41502120D01*
X29223566Y-41466177D01*
X29331960Y-41428494D01*
X29438652Y-41390199D01*
X29540693Y-41352418D01*
X29635131Y-41316280D01*
X29719015Y-41282910D01*
X29751509Y-41269302D01*
X31670841Y-41269302D01*
X31676259Y-41277365D01*
X31689381Y-41289666D01*
X31711847Y-41307332D01*
X31745294Y-41331491D01*
X31791361Y-41363271D01*
X31851688Y-41403799D01*
X31927912Y-41454205D01*
X32021673Y-41515614D01*
X32134608Y-41589156D01*
X32268357Y-41675957D01*
X32351537Y-41729825D01*
X32439006Y-41786341D01*
X32517633Y-41837009D01*
X32584714Y-41880092D01*
X32637545Y-41913855D01*
X32673422Y-41936562D01*
X32689642Y-41946475D01*
X32693037Y-41947953D01*
X32715899Y-41948333D01*
X32750929Y-41936625D01*
X32800336Y-41911743D01*
X32866329Y-41872603D01*
X32951119Y-41818120D01*
X33036747Y-41757933D01*
X33158871Y-41655554D01*
X33259222Y-41548639D01*
X33336589Y-41438747D01*
X33389763Y-41327440D01*
X33417535Y-41216279D01*
X33419828Y-41196422D01*
X33419879Y-41158545D01*
X33410224Y-41123488D01*
X33388211Y-41078820D01*
X33375008Y-41057248D01*
X33334258Y-41003461D01*
X33277386Y-40938689D01*
X33207790Y-40866394D01*
X33128865Y-40790037D01*
X33044010Y-40713081D01*
X32956622Y-40638986D01*
X32944310Y-40628942D01*
X32892565Y-40587059D01*
X32848319Y-40551758D01*
X32815934Y-40526494D01*
X32799773Y-40514725D01*
X32799025Y-40514356D01*
X32778949Y-40519179D01*
X32743546Y-40542167D01*
X32695195Y-40581793D01*
X32560462Y-40694712D01*
X32374429Y-40836311D01*
X32179783Y-40970157D01*
X31983950Y-41091199D01*
X31794355Y-41194388D01*
X31784064Y-41199665D01*
X31764177Y-41209862D01*
X31718559Y-41234504D01*
X31685656Y-41253920D01*
X31671100Y-41264889D01*
X31670841Y-41269302D01*
X29751509Y-41269302D01*
X29789395Y-41253436D01*
X29843320Y-41228986D01*
X29877839Y-41210687D01*
X29890000Y-41199665D01*
X29889971Y-41199432D01*
X29887069Y-41195882D01*
X29878508Y-41188918D01*
X29862996Y-41177699D01*
X29839237Y-41161386D01*
X29805937Y-41139137D01*
X29761802Y-41110113D01*
X29705538Y-41073474D01*
X29635849Y-41028378D01*
X29551443Y-40973987D01*
X29451023Y-40909459D01*
X29333297Y-40833954D01*
X29196970Y-40746633D01*
X29040747Y-40646654D01*
X28863334Y-40533178D01*
X28691182Y-40423081D01*
X28519734Y-40313414D01*
X28368452Y-40216620D01*
X28236118Y-40131918D01*
X28121515Y-40058527D01*
X28023429Y-39995667D01*
X27940641Y-39942557D01*
X27871936Y-39898417D01*
X27816096Y-39862467D01*
X27771906Y-39833926D01*
X27738148Y-39812014D01*
X27713607Y-39795949D01*
X27697065Y-39784953D01*
X27644130Y-39749288D01*
X27557065Y-39792956D01*
X27532783Y-39804994D01*
X27441514Y-39848566D01*
X27332003Y-39898879D01*
X27209287Y-39953745D01*
X27078401Y-40010979D01*
X26944381Y-40068393D01*
X26812263Y-40123801D01*
X26687084Y-40175016D01*
X26573878Y-40219853D01*
X26547689Y-40230121D01*
X26510179Y-40246281D01*
X26491355Y-40258542D01*
X26486905Y-40270369D01*
X26256021Y-40270369D01*
X26301182Y-40179757D01*
X26532258Y-40088113D01*
X26846438Y-39959453D01*
X27163668Y-39821019D01*
X27467317Y-39679700D01*
X27753083Y-39537500D01*
X28016667Y-39396423D01*
X28051829Y-39376808D01*
X28121414Y-39337727D01*
X28185097Y-39301426D01*
X28245690Y-39266154D01*
X28246214Y-39265841D01*
X28530000Y-39265841D01*
X28531056Y-39267288D01*
X28548148Y-39280385D01*
X28583580Y-39304626D01*
X28634027Y-39337814D01*
X28696164Y-39377753D01*
X28766667Y-39422245D01*
X28820747Y-39456082D01*
X28967126Y-39547679D01*
X29093037Y-39626487D01*
X29200085Y-39693512D01*
X29289875Y-39749763D01*
X29364012Y-39796247D01*
X29424102Y-39833970D01*
X29471748Y-39863940D01*
X29508556Y-39887165D01*
X29536131Y-39904651D01*
X29556077Y-39917406D01*
X29570000Y-39926438D01*
X29575436Y-39929946D01*
X29604517Y-39948337D01*
X29652574Y-39978472D01*
X29716916Y-40018672D01*
X29794854Y-40067259D01*
X29883696Y-40122556D01*
X29980753Y-40182885D01*
X30083334Y-40246568D01*
X30102140Y-40258238D01*
X30210310Y-40325440D01*
X30317000Y-40391847D01*
X30418679Y-40455252D01*
X30511813Y-40513448D01*
X30592871Y-40564229D01*
X30658320Y-40605387D01*
X30704627Y-40634716D01*
X30722135Y-40645855D01*
X30776583Y-40680129D01*
X30821301Y-40707727D01*
X30852059Y-40726063D01*
X30864627Y-40732549D01*
X30882918Y-40726331D01*
X30920682Y-40710605D01*
X30972619Y-40687707D01*
X31033732Y-40659935D01*
X31099023Y-40629588D01*
X31163497Y-40598965D01*
X31222155Y-40570363D01*
X31270000Y-40546083D01*
X31283168Y-40539091D01*
X31348185Y-40502495D01*
X31423051Y-40457636D01*
X31504811Y-40406544D01*
X31590512Y-40351248D01*
X31677197Y-40293779D01*
X31761911Y-40236165D01*
X31841700Y-40180438D01*
X31913608Y-40128627D01*
X31974680Y-40082761D01*
X32021962Y-40044871D01*
X32052498Y-40016987D01*
X32063334Y-40001137D01*
X32061799Y-39998550D01*
X32042716Y-39982584D01*
X32003253Y-39954484D01*
X31945212Y-39915432D01*
X31870396Y-39866610D01*
X31780609Y-39809200D01*
X31677654Y-39744385D01*
X31563334Y-39673345D01*
X31391533Y-39568691D01*
X31200391Y-39455483D01*
X31009067Y-39345342D01*
X30820045Y-39239573D01*
X30635811Y-39139481D01*
X30458847Y-39046370D01*
X30291638Y-38961547D01*
X30136667Y-38886316D01*
X29996419Y-38821982D01*
X29873378Y-38769849D01*
X29770028Y-38731224D01*
X29704967Y-38710500D01*
X29619210Y-38689995D01*
X29544638Y-38683616D01*
X29474114Y-38691698D01*
X29400503Y-38714579D01*
X29316667Y-38752594D01*
X29301186Y-38760931D01*
X29261395Y-38784293D01*
X29207000Y-38817639D01*
X29141094Y-38858951D01*
X29066774Y-38906208D01*
X28987136Y-38957390D01*
X28905274Y-39010480D01*
X28824284Y-39063456D01*
X28747262Y-39114299D01*
X28677302Y-39160990D01*
X28617501Y-39201510D01*
X28570953Y-39233837D01*
X28540755Y-39255954D01*
X28530000Y-39265841D01*
X28246214Y-39265841D01*
X28306004Y-39230158D01*
X28368853Y-39191686D01*
X28437050Y-39148986D01*
X28513405Y-39100306D01*
X28600732Y-39043892D01*
X28701843Y-38977994D01*
X28819551Y-38900858D01*
X28956667Y-38810732D01*
X29042484Y-38755162D01*
X29152312Y-38687760D01*
X29247008Y-38635274D01*
X29329754Y-38596432D01*
X29403733Y-38569966D01*
X29472127Y-38554606D01*
X29538117Y-38549082D01*
X29604887Y-38552125D01*
X29625427Y-38554723D01*
X29712187Y-38573629D01*
X29818350Y-38606809D01*
X29942144Y-38653267D01*
X30081801Y-38712009D01*
X30235551Y-38782040D01*
X30401623Y-38862366D01*
X30578249Y-38951992D01*
X30763657Y-39049923D01*
X30956079Y-39155164D01*
X31153744Y-39266722D01*
X31354883Y-39383601D01*
X31557726Y-39504806D01*
X31760503Y-39629344D01*
X31961444Y-39756220D01*
X32158779Y-39884438D01*
X32333021Y-40001137D01*
X32350739Y-40013004D01*
X32535553Y-40140924D01*
X32711453Y-40267203D01*
X32876667Y-40390846D01*
X33008669Y-40494686D01*
X33142985Y-40607035D01*
X33260420Y-40712940D01*
X33359329Y-40810841D01*
X33438067Y-40899181D01*
X33494989Y-40976403D01*
X33519581Y-41012144D01*
X33562966Y-41068110D01*
X33605077Y-41115839D01*
X33639023Y-41158545D01*
X33643420Y-41164077D01*
X33688763Y-41237467D01*
G37*
G36*
X33362081Y-47256098D02*
G01*
X33364707Y-47263078D01*
X33376160Y-47297229D01*
X33393163Y-47350872D01*
X33414346Y-47419584D01*
X33438340Y-47498943D01*
X33463774Y-47584525D01*
X33474377Y-47620153D01*
X33498984Y-47699916D01*
X33520594Y-47765872D01*
X33538169Y-47815050D01*
X33550669Y-47844480D01*
X33557055Y-47851192D01*
X33559092Y-47846155D01*
X33568358Y-47818246D01*
X33583222Y-47770426D01*
X33602488Y-47706635D01*
X33624962Y-47630811D01*
X33649446Y-47546893D01*
X33660472Y-47508990D01*
X33684520Y-47427527D01*
X33706243Y-47355545D01*
X33724393Y-47297084D01*
X33737727Y-47256186D01*
X33744997Y-47236893D01*
X33754505Y-47225740D01*
X33774004Y-47218079D01*
X33808499Y-47214328D01*
X33863803Y-47213334D01*
X33970000Y-47213334D01*
X33970000Y-48320000D01*
X33783334Y-48320000D01*
X33782281Y-47990000D01*
X33781229Y-47660000D01*
X33756347Y-47733334D01*
X33755073Y-47737105D01*
X33740789Y-47780550D01*
X33721335Y-47841066D01*
X33699104Y-47911159D01*
X33676492Y-47983334D01*
X33621519Y-48160000D01*
X33480639Y-48160000D01*
X33399297Y-47896667D01*
X33317954Y-47633334D01*
X33317311Y-47976667D01*
X33316667Y-48320000D01*
X33129705Y-48320000D01*
X33136667Y-47220000D01*
X33344219Y-47212196D01*
X33362081Y-47256098D01*
G37*
M02*
