G04 #@! TF.GenerationSoftware,KiCad,Pcbnew,(5.99.0-11424-g2f41dd4074)*
G04 #@! TF.CreationDate,2021-09-18T21:26:06+03:00*
G04 #@! TF.ProjectId,goldfish,676f6c64-6669-4736-982e-6b696361645f,C*
G04 #@! TF.SameCoordinates,Original*
G04 #@! TF.FileFunction,Soldermask,Top*
G04 #@! TF.FilePolarity,Negative*
%FSLAX46Y46*%
G04 Gerber Fmt 4.6, Leading zero omitted, Abs format (unit mm)*
G04 Created by KiCad (PCBNEW (5.99.0-11424-g2f41dd4074)) date 2021-09-18 21:26:06*
%MOMM*%
%LPD*%
G01*
G04 APERTURE LIST*
G04 Aperture macros list*
%AMRoundRect*
0 Rectangle with rounded corners*
0 $1 Rounding radius*
0 $2 $3 $4 $5 $6 $7 $8 $9 X,Y pos of 4 corners*
0 Add a 4 corners polygon primitive as box body*
4,1,4,$2,$3,$4,$5,$6,$7,$8,$9,$2,$3,0*
0 Add four circle primitives for the rounded corners*
1,1,$1+$1,$2,$3*
1,1,$1+$1,$4,$5*
1,1,$1+$1,$6,$7*
1,1,$1+$1,$8,$9*
0 Add four rect primitives between the rounded corners*
20,1,$1+$1,$2,$3,$4,$5,0*
20,1,$1+$1,$4,$5,$6,$7,0*
20,1,$1+$1,$6,$7,$8,$9,0*
20,1,$1+$1,$8,$9,$2,$3,0*%
%AMRotRect*
0 Rectangle, with rotation*
0 The origin of the aperture is its center*
0 $1 length*
0 $2 width*
0 $3 Rotation angle, in degrees counterclockwise*
0 Add horizontal line*
21,1,$1,$2,0,0,$3*%
G04 Aperture macros list end*
%ADD10RoundRect,0.062500X-0.380070X0.291682X0.291682X-0.380070X0.380070X-0.291682X-0.291682X0.380070X0*%
%ADD11RoundRect,0.062500X-0.380070X-0.291682X-0.291682X-0.380070X0.380070X0.291682X0.291682X0.380070X0*%
%ADD12RotRect,5.200000X5.200000X315.000000*%
%ADD13RoundRect,0.147500X-0.147500X-0.172500X0.147500X-0.172500X0.147500X0.172500X-0.147500X0.172500X0*%
%ADD14RoundRect,0.147500X0.172500X-0.147500X0.172500X0.147500X-0.172500X0.147500X-0.172500X-0.147500X0*%
%ADD15R,1.200000X1.400000*%
%ADD16R,1.500000X2.400000*%
%ADD17R,1.500000X1.050000*%
%ADD18R,0.230000X0.850000*%
%ADD19C,0.600000*%
%ADD20R,0.460000X0.850000*%
%ADD21R,0.700000X2.300000*%
%ADD22O,1.200000X2.300000*%
%ADD23C,1.700000*%
%ADD24RoundRect,0.147500X-0.172500X0.147500X-0.172500X-0.147500X0.172500X-0.147500X0.172500X0.147500X0*%
%ADD25RoundRect,0.147500X0.147500X0.172500X-0.147500X0.172500X-0.147500X-0.172500X0.147500X-0.172500X0*%
G04 APERTURE END LIST*
D10*
X30107798Y-40872264D03*
X29754245Y-41225818D03*
X29400691Y-41579371D03*
X29047138Y-41932924D03*
X28693585Y-42286478D03*
X28340031Y-42640031D03*
X27986478Y-42993585D03*
X27632924Y-43347138D03*
X27279371Y-43700691D03*
X26925818Y-44054245D03*
X26572264Y-44407798D03*
D11*
X26572264Y-45592202D03*
X26925818Y-45945755D03*
X27279371Y-46299309D03*
X27632924Y-46652862D03*
X27986478Y-47006415D03*
X28340031Y-47359969D03*
X28693585Y-47713522D03*
X29047138Y-48067076D03*
X29400691Y-48420629D03*
X29754245Y-48774182D03*
X30107798Y-49127736D03*
D10*
X31292202Y-49127736D03*
X31645755Y-48774182D03*
X31999309Y-48420629D03*
X32352862Y-48067076D03*
X32706415Y-47713522D03*
X33059969Y-47359969D03*
X33413522Y-47006415D03*
X33767076Y-46652862D03*
X34120629Y-46299309D03*
X34474182Y-45945755D03*
X34827736Y-45592202D03*
D11*
X34827736Y-44407798D03*
X34474182Y-44054245D03*
X34120629Y-43700691D03*
X33767076Y-43347138D03*
X33413522Y-42993585D03*
X33059969Y-42640031D03*
X32706415Y-42286478D03*
X32352862Y-41932924D03*
X31999309Y-41579371D03*
X31645755Y-41225818D03*
X31292202Y-40872264D03*
D12*
X30700000Y-45000000D03*
D13*
X24815000Y-48200000D03*
X25785000Y-48200000D03*
D14*
X28300000Y-52485000D03*
X28300000Y-51515000D03*
D15*
X26700000Y-52100000D03*
X26700000Y-49900000D03*
X25100000Y-49900000D03*
X25100000Y-52100000D03*
D14*
X28650000Y-38335000D03*
X28650000Y-37365000D03*
X29850000Y-38985000D03*
X29850000Y-38015000D03*
D13*
X24665000Y-35500000D03*
X25635000Y-35500000D03*
D14*
X27450000Y-38585000D03*
X27450000Y-37615000D03*
X32250000Y-39235000D03*
X32250000Y-38265000D03*
D16*
X25500000Y-39600000D03*
D17*
X25500000Y-37225000D03*
D14*
X27400000Y-40785000D03*
X27400000Y-39815000D03*
D13*
X34615000Y-37600000D03*
X35585000Y-37600000D03*
D18*
X32200000Y-31615000D03*
X31800000Y-31615000D03*
X31400000Y-31615000D03*
X31000000Y-31615000D03*
X30600000Y-31615000D03*
X30200000Y-31615000D03*
X29800000Y-31615000D03*
X29400000Y-31615000D03*
X29000000Y-31615000D03*
X28600000Y-31615000D03*
X28200000Y-31615000D03*
X27800000Y-31615000D03*
X26600000Y-31615000D03*
X27000000Y-31615000D03*
X27400000Y-31615000D03*
D19*
X28000000Y-30690000D03*
X28800000Y-30690000D03*
X29600000Y-30690000D03*
X30400000Y-30690000D03*
X31200000Y-30690000D03*
X32000000Y-30690000D03*
D18*
X32600000Y-31615000D03*
X33000000Y-31615000D03*
X33400000Y-31615000D03*
D20*
X26085000Y-31615000D03*
X33915000Y-31615000D03*
D21*
X24800000Y-26090000D03*
X35200000Y-26090000D03*
D22*
X24450000Y-31140000D03*
X35550000Y-26090000D03*
X24450000Y-26090000D03*
X35550000Y-31140000D03*
D23*
X35080000Y-55240000D03*
X32540000Y-55240000D03*
X30000000Y-55240000D03*
X27460000Y-55240000D03*
X24920000Y-55240000D03*
X27460000Y-34920000D03*
X30000000Y-34920000D03*
X22380000Y-55240000D03*
X22380000Y-52700000D03*
X22380000Y-50160000D03*
X22380000Y-47620000D03*
X22380000Y-45080000D03*
X22380000Y-42540000D03*
X22380000Y-40000000D03*
X22380000Y-37460000D03*
X22380000Y-34920000D03*
X22380000Y-32380000D03*
X22380000Y-29840000D03*
X22380000Y-27300000D03*
X37620000Y-27300000D03*
X37620000Y-29840000D03*
X37620000Y-32380000D03*
X37620000Y-34920000D03*
X37620000Y-37460000D03*
X37620000Y-40000000D03*
X37620000Y-42540000D03*
X37620000Y-45080000D03*
X37620000Y-47620000D03*
X37620000Y-50160000D03*
X37620000Y-52700000D03*
X37620000Y-55240000D03*
D13*
X24665000Y-33100000D03*
X25635000Y-33100000D03*
X24665000Y-34300000D03*
X25635000Y-34300000D03*
D14*
X31050000Y-38385000D03*
X31050000Y-37415000D03*
D24*
X35200000Y-41615000D03*
X35200000Y-42585000D03*
X32550000Y-50065000D03*
X32550000Y-51035000D03*
D25*
X25785000Y-47000000D03*
X24815000Y-47000000D03*
D14*
X33450000Y-39035000D03*
X33450000Y-38065000D03*
M02*
