G04 #@! TF.GenerationSoftware,KiCad,Pcbnew,(5.99.0-11424-g2f41dd4074)*
G04 #@! TF.CreationDate,2021-09-18T21:26:06+03:00*
G04 #@! TF.ProjectId,goldfish,676f6c64-6669-4736-982e-6b696361645f,C*
G04 #@! TF.SameCoordinates,Original*
G04 #@! TF.FileFunction,Soldermask,Bot*
G04 #@! TF.FilePolarity,Negative*
%FSLAX46Y46*%
G04 Gerber Fmt 4.6, Leading zero omitted, Abs format (unit mm)*
G04 Created by KiCad (PCBNEW (5.99.0-11424-g2f41dd4074)) date 2021-09-18 21:26:06*
%MOMM*%
%LPD*%
G01*
G04 APERTURE LIST*
%ADD10C,0.600000*%
%ADD11O,1.200000X2.300000*%
%ADD12C,1.700000*%
G04 APERTURE END LIST*
D10*
X28000000Y-30690000D03*
X28800000Y-30690000D03*
X29600000Y-30690000D03*
X30400000Y-30690000D03*
X31200000Y-30690000D03*
X32000000Y-30690000D03*
D11*
X24450000Y-31140000D03*
X35550000Y-26090000D03*
X24450000Y-26090000D03*
X35550000Y-31140000D03*
D12*
X35080000Y-55240000D03*
X32540000Y-55240000D03*
X30000000Y-55240000D03*
X27460000Y-55240000D03*
X24920000Y-55240000D03*
X27460000Y-34920000D03*
X30000000Y-34920000D03*
X22380000Y-55240000D03*
X22380000Y-52700000D03*
X22380000Y-50160000D03*
X22380000Y-47620000D03*
X22380000Y-45080000D03*
X22380000Y-42540000D03*
X22380000Y-40000000D03*
X22380000Y-37460000D03*
X22380000Y-34920000D03*
X22380000Y-32380000D03*
X22380000Y-29840000D03*
X22380000Y-27300000D03*
X37620000Y-27300000D03*
X37620000Y-29840000D03*
X37620000Y-32380000D03*
X37620000Y-34920000D03*
X37620000Y-37460000D03*
X37620000Y-40000000D03*
X37620000Y-42540000D03*
X37620000Y-45080000D03*
X37620000Y-47620000D03*
X37620000Y-50160000D03*
X37620000Y-52700000D03*
X37620000Y-55240000D03*
M02*
