%FSLAX45Y45*%
G04 Gerber Fmt 4.5, Leading zero omitted, Abs format (unit mm)*
G04 Created by KiCad (PCBNEW (5.99.0-11424-g2f41dd4074)) date 2021-09-18 21:26:08*
%MOMM*%
%LPD*%
G01*
G04 APERTURE LIST*
%TA.AperFunction,Profile*%
%ADD10C,0.150000*%
%TD*%
%ADD11C,0.200000*%
%ADD12C,0.030000*%
%ADD13C,0.040000*%
%ADD14C,0.060000*%
%ADD15C,0.100000*%
G04 APERTURE END LIST*
D10*
X2111000Y-5524000D02*
G75*
G03*
X2238000Y-5651000I127000J0D01*
G01*
X3889000Y-2476000D02*
G75*
G03*
X3762000Y-2349000I-127000J0D01*
G01*
X2111000Y-2476000D02*
X2111000Y-5524000D01*
X3762000Y-5651000D02*
G75*
G03*
X3889000Y-5524000I0J127000D01*
G01*
X3889000Y-5524000D02*
X3889000Y-2476000D01*
X2238000Y-5651000D02*
X3762000Y-5651000D01*
X2238000Y-2349000D02*
G75*
G03*
X2111000Y-2476000I0J-127000D01*
G01*
D11*
D12*
X2285000Y-4620000D02*
X2315000Y-4650000D01*
X2315000Y-4620000D02*
X2285000Y-4650000D01*
X2385000Y-3245000D02*
X2415000Y-3275000D01*
X2415000Y-3245000D02*
X2385000Y-3275000D01*
X2385000Y-4715000D02*
X2415000Y-4745000D01*
X2415000Y-4715000D02*
X2385000Y-4745000D01*
X2385000Y-4855000D02*
X2415000Y-4885000D01*
X2415000Y-4855000D02*
X2385000Y-4885000D01*
X2385000Y-4995000D02*
X2415000Y-5025000D01*
X2415000Y-4995000D02*
X2385000Y-5025000D01*
X2385000Y-5135000D02*
X2415000Y-5165000D01*
X2415000Y-5135000D02*
X2385000Y-5165000D01*
X2385000Y-5275000D02*
X2415000Y-5305000D01*
X2415000Y-5275000D02*
X2385000Y-5305000D01*
X2420000Y-3715000D02*
X2450000Y-3745000D01*
X2450000Y-3715000D02*
X2420000Y-3745000D01*
X2420000Y-3855000D02*
X2450000Y-3885000D01*
X2450000Y-3855000D02*
X2420000Y-3885000D01*
X2430000Y-2755000D02*
X2460000Y-2785000D01*
X2460000Y-2755000D02*
X2430000Y-2785000D01*
X2430000Y-2940000D02*
X2460000Y-2970000D01*
X2460000Y-2940000D02*
X2430000Y-2970000D01*
X2480000Y-3610000D02*
X2510000Y-3640000D01*
X2510000Y-3610000D02*
X2480000Y-3640000D01*
X2500000Y-3230000D02*
X2530000Y-3260000D01*
X2530000Y-3230000D02*
X2500000Y-3260000D01*
X2525000Y-4485000D02*
X2555000Y-4515000D01*
X2555000Y-4485000D02*
X2525000Y-4515000D01*
X2535000Y-3060000D02*
X2565000Y-3090000D01*
X2565000Y-3060000D02*
X2535000Y-3090000D01*
X2560000Y-4195000D02*
X2590000Y-4225000D01*
X2590000Y-4195000D02*
X2560000Y-4225000D01*
X2560000Y-4545000D02*
X2590000Y-4575000D01*
X2590000Y-4545000D02*
X2560000Y-4575000D01*
X2580000Y-4445000D02*
X2610000Y-4475000D01*
X2610000Y-4445000D02*
X2580000Y-4475000D01*
X2595000Y-4135000D02*
X2625000Y-4165000D01*
X2625000Y-4135000D02*
X2595000Y-4165000D01*
X2610000Y-3345000D02*
X2640000Y-3375000D01*
X2640000Y-3345000D02*
X2610000Y-3375000D01*
X2620000Y-3570000D02*
X2650000Y-3600000D01*
X2650000Y-3570000D02*
X2620000Y-3600000D01*
X2630000Y-4305000D02*
X2660000Y-4335000D01*
X2660000Y-4305000D02*
X2630000Y-4335000D01*
X2645000Y-3230000D02*
X2675000Y-3260000D01*
X2675000Y-3230000D02*
X2645000Y-3260000D01*
X2651000Y-3985000D02*
X2681000Y-4015000D01*
X2681000Y-3985000D02*
X2651000Y-4015000D01*
X2655000Y-3735000D02*
X2685000Y-3765000D01*
X2685000Y-3735000D02*
X2655000Y-3765000D01*
X2660000Y-3295000D02*
X2690000Y-3325000D01*
X2690000Y-3295000D02*
X2660000Y-3325000D01*
X2665000Y-4120000D02*
X2695000Y-4150000D01*
X2695000Y-4120000D02*
X2665000Y-4150000D01*
X2675000Y-4255000D02*
X2705000Y-4285000D01*
X2705000Y-4255000D02*
X2675000Y-4285000D01*
X2710000Y-3060000D02*
X2740000Y-3090000D01*
X2740000Y-3060000D02*
X2710000Y-3090000D01*
X2740000Y-3230000D02*
X2770000Y-3260000D01*
X2770000Y-3230000D02*
X2740000Y-3260000D01*
X2785000Y-4810000D02*
X2815000Y-4840000D01*
X2815000Y-4810000D02*
X2785000Y-4840000D01*
X2800000Y-4875000D02*
X2830000Y-4905000D01*
X2830000Y-4875000D02*
X2800000Y-4905000D01*
X2800000Y-4945000D02*
X2830000Y-4975000D01*
X2830000Y-4945000D02*
X2800000Y-4975000D01*
X2800000Y-5065000D02*
X2830000Y-5095000D01*
X2830000Y-5065000D02*
X2800000Y-5095000D01*
X2810000Y-3230000D02*
X2840000Y-3260000D01*
X2840000Y-3230000D02*
X2810000Y-3260000D01*
X2825000Y-3650000D02*
X2855000Y-3680000D01*
X2855000Y-3650000D02*
X2825000Y-3680000D01*
X2860000Y-4905000D02*
X2890000Y-4935000D01*
X2890000Y-4905000D02*
X2860000Y-4935000D01*
X2865000Y-3325000D02*
X2895000Y-3355000D01*
X2895000Y-3325000D02*
X2865000Y-3355000D01*
X2910000Y-4950000D02*
X2940000Y-4980000D01*
X2940000Y-4950000D02*
X2910000Y-4980000D01*
X2910000Y-5020000D02*
X2940000Y-5050000D01*
X2940000Y-5020000D02*
X2910000Y-5050000D01*
X2910000Y-5160000D02*
X2940000Y-5190000D01*
X2940000Y-5160000D02*
X2910000Y-5190000D01*
X2945000Y-3255000D02*
X2975000Y-3285000D01*
X2975000Y-3255000D02*
X2945000Y-3285000D01*
X2960000Y-3675000D02*
X2990000Y-3705000D01*
X2990000Y-3675000D02*
X2960000Y-3705000D01*
X3010000Y-3240000D02*
X3040000Y-3270000D01*
X3040000Y-3240000D02*
X3010000Y-3270000D01*
X3045000Y-4950000D02*
X3075000Y-4980000D01*
X3075000Y-4950000D02*
X3045000Y-4980000D01*
X3050000Y-3895000D02*
X3080000Y-3925000D01*
X3080000Y-3895000D02*
X3050000Y-3925000D01*
X3055000Y-3585000D02*
X3085000Y-3615000D01*
X3085000Y-3585000D02*
X3055000Y-3615000D01*
X3075000Y-4030000D02*
X3105000Y-4060000D01*
X3105000Y-4030000D02*
X3075000Y-4060000D01*
X3080000Y-5005000D02*
X3110000Y-5035000D01*
X3110000Y-5005000D02*
X3080000Y-5035000D01*
X3080000Y-5205000D02*
X3110000Y-5235000D01*
X3110000Y-5205000D02*
X3080000Y-5235000D01*
X3110000Y-3230000D02*
X3140000Y-3260000D01*
X3140000Y-3230000D02*
X3110000Y-3260000D01*
X3115000Y-3465000D02*
X3145000Y-3495000D01*
X3145000Y-3465000D02*
X3115000Y-3495000D01*
X3115000Y-3915000D02*
X3145000Y-3945000D01*
X3145000Y-3915000D02*
X3115000Y-3945000D01*
X3130000Y-3335000D02*
X3160000Y-3365000D01*
X3160000Y-3335000D02*
X3130000Y-3365000D01*
X3140000Y-3660000D02*
X3170000Y-3690000D01*
X3170000Y-3660000D02*
X3140000Y-3690000D01*
X3165000Y-5065000D02*
X3195000Y-5095000D01*
X3195000Y-5065000D02*
X3165000Y-5095000D01*
X3230000Y-3230000D02*
X3260000Y-3260000D01*
X3260000Y-3230000D02*
X3230000Y-3260000D01*
X3260000Y-3060000D02*
X3290000Y-3090000D01*
X3290000Y-3060000D02*
X3260000Y-3090000D01*
X3270000Y-3730000D02*
X3300000Y-3760000D01*
X3300000Y-3730000D02*
X3270000Y-3760000D01*
X3270000Y-4875000D02*
X3300000Y-4905000D01*
X3300000Y-4875000D02*
X3270000Y-4905000D01*
X3290000Y-3350000D02*
X3320000Y-3380000D01*
X3320000Y-3350000D02*
X3290000Y-3380000D01*
X3300000Y-5160000D02*
X3330000Y-5190000D01*
X3330000Y-5160000D02*
X3300000Y-5190000D01*
X3325000Y-3230000D02*
X3355000Y-3260000D01*
X3355000Y-3230000D02*
X3325000Y-3260000D01*
X3330000Y-4905000D02*
X3360000Y-4935000D01*
X3360000Y-4905000D02*
X3330000Y-4935000D01*
X3405000Y-3815000D02*
X3435000Y-3845000D01*
X3435000Y-3815000D02*
X3405000Y-3845000D01*
X3435000Y-3060000D02*
X3465000Y-3090000D01*
X3465000Y-3060000D02*
X3435000Y-3090000D01*
X3440000Y-3350000D02*
X3470000Y-3380000D01*
X3470000Y-3350000D02*
X3440000Y-3380000D01*
X3450000Y-3670000D02*
X3480000Y-3700000D01*
X3480000Y-3670000D02*
X3450000Y-3700000D01*
X3450000Y-3935000D02*
X3480000Y-3965000D01*
X3480000Y-3935000D02*
X3450000Y-3965000D01*
X3470000Y-3230000D02*
X3500000Y-3260000D01*
X3500000Y-3230000D02*
X3470000Y-3260000D01*
X3470000Y-4755000D02*
X3500000Y-4785000D01*
X3500000Y-4755000D02*
X3470000Y-4785000D01*
X3470000Y-5155000D02*
X3500000Y-5185000D01*
X3500000Y-5155000D02*
X3470000Y-5185000D01*
X3505000Y-3895000D02*
X3535000Y-3925000D01*
X3535000Y-3895000D02*
X3505000Y-3925000D01*
X3540000Y-2755000D02*
X3570000Y-2785000D01*
X3570000Y-2755000D02*
X3540000Y-2785000D01*
X3540000Y-2940000D02*
X3570000Y-2970000D01*
X3570000Y-2940000D02*
X3540000Y-2970000D01*
X3550000Y-4345000D02*
X3580000Y-4375000D01*
X3580000Y-4345000D02*
X3550000Y-4375000D01*
X3555000Y-4415000D02*
X3585000Y-4445000D01*
X3585000Y-4415000D02*
X3555000Y-4445000D01*
X3565000Y-3820000D02*
X3595000Y-3850000D01*
X3595000Y-3820000D02*
X3565000Y-3850000D01*
X3570000Y-3605000D02*
X3600000Y-3635000D01*
X3600000Y-3605000D02*
X3570000Y-3635000D01*
X3585000Y-3325000D02*
X3615000Y-3355000D01*
X3615000Y-3325000D02*
X3585000Y-3355000D01*
X3585000Y-3475000D02*
X3615000Y-3505000D01*
X3615000Y-3475000D02*
X3585000Y-3505000D01*
X3620000Y-4440000D02*
X3650000Y-4470000D01*
X3650000Y-4440000D02*
X3620000Y-4470000D01*
D13*
X2820000Y-3069000D02*
G75*
G03*
X2820000Y-3069000I-20000J0D01*
G01*
X2900000Y-3069000D02*
G75*
G03*
X2900000Y-3069000I-20000J0D01*
G01*
X2980000Y-3069000D02*
G75*
G03*
X2980000Y-3069000I-20000J0D01*
G01*
X3060000Y-3069000D02*
G75*
G03*
X3060000Y-3069000I-20000J0D01*
G01*
X3140000Y-3069000D02*
G75*
G03*
X3140000Y-3069000I-20000J0D01*
G01*
X3220000Y-3069000D02*
G75*
G03*
X3220000Y-3069000I-20000J0D01*
G01*
D14*
X2445000Y-2579000D02*
X2445000Y-2639000D01*
X2415000Y-2609000D02*
X2475000Y-2609000D01*
D11*
X2465000Y-2664000D02*
X2465000Y-2554000D01*
X2425000Y-2664000D02*
X2425000Y-2554000D01*
X2465000Y-2554000D02*
G75*
G03*
X2425000Y-2554000I-20000J0D01*
G01*
X2425000Y-2664000D02*
G75*
G03*
X2465000Y-2664000I20000J0D01*
G01*
D14*
X2445000Y-3084000D02*
X2445000Y-3144000D01*
X2415000Y-3114000D02*
X2475000Y-3114000D01*
D11*
X2465000Y-3169000D02*
X2465000Y-3059000D01*
X2425000Y-3169000D02*
X2425000Y-3059000D01*
X2465000Y-3059000D02*
G75*
G03*
X2425000Y-3059000I-20000J0D01*
G01*
X2425000Y-3169000D02*
G75*
G03*
X2465000Y-3169000I20000J0D01*
G01*
D14*
X3555000Y-2579000D02*
X3555000Y-2639000D01*
X3525000Y-2609000D02*
X3585000Y-2609000D01*
D11*
X3575000Y-2664000D02*
X3575000Y-2554000D01*
X3535000Y-2664000D02*
X3535000Y-2554000D01*
X3575000Y-2554000D02*
G75*
G03*
X3535000Y-2554000I-20000J0D01*
G01*
X3535000Y-2664000D02*
G75*
G03*
X3575000Y-2664000I20000J0D01*
G01*
D14*
X3555000Y-3084000D02*
X3555000Y-3144000D01*
X3525000Y-3114000D02*
X3585000Y-3114000D01*
D11*
X3575000Y-3169000D02*
X3575000Y-3059000D01*
X3535000Y-3169000D02*
X3535000Y-3059000D01*
X3575000Y-3059000D02*
G75*
G03*
X3535000Y-3059000I-20000J0D01*
G01*
X3535000Y-3169000D02*
G75*
G03*
X3575000Y-3169000I20000J0D01*
G01*
D15*
X2273356Y-2765356D02*
X2273356Y-2694644D01*
X2202644Y-2694644D01*
X2202644Y-2765356D01*
X2273356Y-2765356D01*
X2273356Y-3019356D02*
X2273356Y-2948644D01*
X2202644Y-2948644D01*
X2202644Y-3019356D01*
X2273356Y-3019356D01*
X2273356Y-3273356D02*
X2273356Y-3202644D01*
X2202644Y-3202644D01*
X2202644Y-3273356D01*
X2273356Y-3273356D01*
X2273356Y-3527356D02*
X2273356Y-3456644D01*
X2202644Y-3456644D01*
X2202644Y-3527356D01*
X2273356Y-3527356D01*
X2273356Y-3781356D02*
X2273356Y-3710644D01*
X2202644Y-3710644D01*
X2202644Y-3781356D01*
X2273356Y-3781356D01*
X2273356Y-4035356D02*
X2273356Y-3964644D01*
X2202644Y-3964644D01*
X2202644Y-4035356D01*
X2273356Y-4035356D01*
X2273356Y-4289356D02*
X2273356Y-4218644D01*
X2202644Y-4218644D01*
X2202644Y-4289356D01*
X2273356Y-4289356D01*
X2273356Y-4543356D02*
X2273356Y-4472644D01*
X2202644Y-4472644D01*
X2202644Y-4543356D01*
X2273356Y-4543356D01*
X2273356Y-4797356D02*
X2273356Y-4726644D01*
X2202644Y-4726644D01*
X2202644Y-4797356D01*
X2273356Y-4797356D01*
X2273356Y-5051356D02*
X2273356Y-4980644D01*
X2202644Y-4980644D01*
X2202644Y-5051356D01*
X2273356Y-5051356D01*
X2273356Y-5305356D02*
X2273356Y-5234644D01*
X2202644Y-5234644D01*
X2202644Y-5305356D01*
X2273356Y-5305356D01*
X2273356Y-5559356D02*
X2273356Y-5488644D01*
X2202644Y-5488644D01*
X2202644Y-5559356D01*
X2273356Y-5559356D01*
X2527356Y-5559356D02*
X2527356Y-5488644D01*
X2456644Y-5488644D01*
X2456644Y-5559356D01*
X2527356Y-5559356D01*
X2781356Y-3527356D02*
X2781356Y-3456644D01*
X2710644Y-3456644D01*
X2710644Y-3527356D01*
X2781356Y-3527356D01*
X2781356Y-5559356D02*
X2781356Y-5488644D01*
X2710644Y-5488644D01*
X2710644Y-5559356D01*
X2781356Y-5559356D01*
X3035356Y-3527356D02*
X3035356Y-3456644D01*
X2964644Y-3456644D01*
X2964644Y-3527356D01*
X3035356Y-3527356D01*
X3035356Y-5559356D02*
X3035356Y-5488644D01*
X2964644Y-5488644D01*
X2964644Y-5559356D01*
X3035356Y-5559356D01*
X3289356Y-5559356D02*
X3289356Y-5488644D01*
X3218644Y-5488644D01*
X3218644Y-5559356D01*
X3289356Y-5559356D01*
X3543356Y-5559356D02*
X3543356Y-5488644D01*
X3472644Y-5488644D01*
X3472644Y-5559356D01*
X3543356Y-5559356D01*
X3797356Y-2765356D02*
X3797356Y-2694644D01*
X3726644Y-2694644D01*
X3726644Y-2765356D01*
X3797356Y-2765356D01*
X3797356Y-3019356D02*
X3797356Y-2948644D01*
X3726644Y-2948644D01*
X3726644Y-3019356D01*
X3797356Y-3019356D01*
X3797356Y-3273356D02*
X3797356Y-3202644D01*
X3726644Y-3202644D01*
X3726644Y-3273356D01*
X3797356Y-3273356D01*
X3797356Y-3527356D02*
X3797356Y-3456644D01*
X3726644Y-3456644D01*
X3726644Y-3527356D01*
X3797356Y-3527356D01*
X3797356Y-3781356D02*
X3797356Y-3710644D01*
X3726644Y-3710644D01*
X3726644Y-3781356D01*
X3797356Y-3781356D01*
X3797356Y-4035356D02*
X3797356Y-3964644D01*
X3726644Y-3964644D01*
X3726644Y-4035356D01*
X3797356Y-4035356D01*
X3797356Y-4289356D02*
X3797356Y-4218644D01*
X3726644Y-4218644D01*
X3726644Y-4289356D01*
X3797356Y-4289356D01*
X3797356Y-4543356D02*
X3797356Y-4472644D01*
X3726644Y-4472644D01*
X3726644Y-4543356D01*
X3797356Y-4543356D01*
X3797356Y-4797356D02*
X3797356Y-4726644D01*
X3726644Y-4726644D01*
X3726644Y-4797356D01*
X3797356Y-4797356D01*
X3797356Y-5051356D02*
X3797356Y-4980644D01*
X3726644Y-4980644D01*
X3726644Y-5051356D01*
X3797356Y-5051356D01*
X3797356Y-5305356D02*
X3797356Y-5234644D01*
X3726644Y-5234644D01*
X3726644Y-5305356D01*
X3797356Y-5305356D01*
X3797356Y-5559356D02*
X3797356Y-5488644D01*
X3726644Y-5488644D01*
X3726644Y-5559356D01*
X3797356Y-5559356D01*
D11*
X2346119Y-5983976D02*
X2346119Y-5783976D01*
X2393738Y-5783976D01*
X2422310Y-5793500D01*
X2441357Y-5812548D01*
X2450881Y-5831595D01*
X2460405Y-5869690D01*
X2460405Y-5898262D01*
X2450881Y-5936357D01*
X2441357Y-5955405D01*
X2422310Y-5974452D01*
X2393738Y-5983976D01*
X2346119Y-5983976D01*
X2546119Y-5983976D02*
X2546119Y-5850643D01*
X2546119Y-5888738D02*
X2555643Y-5869690D01*
X2565167Y-5860167D01*
X2584214Y-5850643D01*
X2603262Y-5850643D01*
X2669929Y-5983976D02*
X2669929Y-5850643D01*
X2669929Y-5783976D02*
X2660405Y-5793500D01*
X2669929Y-5803024D01*
X2679452Y-5793500D01*
X2669929Y-5783976D01*
X2669929Y-5803024D01*
X2793738Y-5983976D02*
X2774690Y-5974452D01*
X2765167Y-5955405D01*
X2765167Y-5783976D01*
X2898500Y-5983976D02*
X2879452Y-5974452D01*
X2869928Y-5955405D01*
X2869928Y-5783976D01*
X3127071Y-5983976D02*
X3127071Y-5783976D01*
X3193738Y-5926833D01*
X3260405Y-5783976D01*
X3260405Y-5983976D01*
X3441357Y-5983976D02*
X3441357Y-5879214D01*
X3431833Y-5860167D01*
X3412786Y-5850643D01*
X3374690Y-5850643D01*
X3355643Y-5860167D01*
X3441357Y-5974452D02*
X3422309Y-5983976D01*
X3374690Y-5983976D01*
X3355643Y-5974452D01*
X3346119Y-5955405D01*
X3346119Y-5936357D01*
X3355643Y-5917309D01*
X3374690Y-5907786D01*
X3422309Y-5907786D01*
X3441357Y-5898262D01*
X3536595Y-5850643D02*
X3536595Y-6050643D01*
X3536595Y-5860167D02*
X3555643Y-5850643D01*
X3593738Y-5850643D01*
X3612786Y-5860167D01*
X3622309Y-5869690D01*
X3631833Y-5888738D01*
X3631833Y-5945881D01*
X3622309Y-5964928D01*
X3612786Y-5974452D01*
X3593738Y-5983976D01*
X3555643Y-5983976D01*
X3536595Y-5974452D01*
X3717548Y-5964928D02*
X3727071Y-5974452D01*
X3717548Y-5983976D01*
X3708024Y-5974452D01*
X3717548Y-5964928D01*
X3717548Y-5983976D01*
X3717548Y-5860167D02*
X3727071Y-5869690D01*
X3717548Y-5879214D01*
X3708024Y-5869690D01*
X3717548Y-5860167D01*
X3717548Y-5879214D01*
D12*
X2058500Y-6298500D02*
X2088500Y-6328500D01*
X2088500Y-6298500D02*
X2058500Y-6328500D01*
D11*
X2384214Y-6203976D02*
X2403262Y-6203976D01*
X2422310Y-6213500D01*
X2431833Y-6223024D01*
X2441357Y-6242071D01*
X2450881Y-6280167D01*
X2450881Y-6327786D01*
X2441357Y-6365881D01*
X2431833Y-6384928D01*
X2422310Y-6394452D01*
X2403262Y-6403976D01*
X2384214Y-6403976D01*
X2365167Y-6394452D01*
X2355643Y-6384928D01*
X2346119Y-6365881D01*
X2336595Y-6327786D01*
X2336595Y-6280167D01*
X2346119Y-6242071D01*
X2355643Y-6223024D01*
X2365167Y-6213500D01*
X2384214Y-6203976D01*
X2536595Y-6384928D02*
X2546119Y-6394452D01*
X2536595Y-6403976D01*
X2527071Y-6394452D01*
X2536595Y-6384928D01*
X2536595Y-6403976D01*
X2612786Y-6203976D02*
X2736595Y-6203976D01*
X2669929Y-6280167D01*
X2698500Y-6280167D01*
X2717548Y-6289690D01*
X2727071Y-6299214D01*
X2736595Y-6318262D01*
X2736595Y-6365881D01*
X2727071Y-6384928D01*
X2717548Y-6394452D01*
X2698500Y-6403976D01*
X2641357Y-6403976D01*
X2622310Y-6394452D01*
X2612786Y-6384928D01*
X2860405Y-6203976D02*
X2879452Y-6203976D01*
X2898500Y-6213500D01*
X2908024Y-6223024D01*
X2917548Y-6242071D01*
X2927071Y-6280167D01*
X2927071Y-6327786D01*
X2917548Y-6365881D01*
X2908024Y-6384928D01*
X2898500Y-6394452D01*
X2879452Y-6403976D01*
X2860405Y-6403976D01*
X2841357Y-6394452D01*
X2831833Y-6384928D01*
X2822309Y-6365881D01*
X2812786Y-6327786D01*
X2812786Y-6280167D01*
X2822309Y-6242071D01*
X2831833Y-6223024D01*
X2841357Y-6213500D01*
X2860405Y-6203976D01*
X3050881Y-6203976D02*
X3069928Y-6203976D01*
X3088976Y-6213500D01*
X3098500Y-6223024D01*
X3108024Y-6242071D01*
X3117548Y-6280167D01*
X3117548Y-6327786D01*
X3108024Y-6365881D01*
X3098500Y-6384928D01*
X3088976Y-6394452D01*
X3069928Y-6403976D01*
X3050881Y-6403976D01*
X3031833Y-6394452D01*
X3022309Y-6384928D01*
X3012786Y-6365881D01*
X3003262Y-6327786D01*
X3003262Y-6280167D01*
X3012786Y-6242071D01*
X3022309Y-6223024D01*
X3031833Y-6213500D01*
X3050881Y-6203976D01*
X3203262Y-6403976D02*
X3203262Y-6270643D01*
X3203262Y-6289690D02*
X3212786Y-6280167D01*
X3231833Y-6270643D01*
X3260405Y-6270643D01*
X3279452Y-6280167D01*
X3288976Y-6299214D01*
X3288976Y-6403976D01*
X3288976Y-6299214D02*
X3298500Y-6280167D01*
X3317548Y-6270643D01*
X3346119Y-6270643D01*
X3365167Y-6280167D01*
X3374690Y-6299214D01*
X3374690Y-6403976D01*
X3469928Y-6403976D02*
X3469928Y-6270643D01*
X3469928Y-6289690D02*
X3479452Y-6280167D01*
X3498500Y-6270643D01*
X3527071Y-6270643D01*
X3546119Y-6280167D01*
X3555643Y-6299214D01*
X3555643Y-6403976D01*
X3555643Y-6299214D02*
X3565167Y-6280167D01*
X3584214Y-6270643D01*
X3612786Y-6270643D01*
X3631833Y-6280167D01*
X3641357Y-6299214D01*
X3641357Y-6403976D01*
X4031833Y-6194452D02*
X3860405Y-6451595D01*
X4288976Y-6203976D02*
X4308024Y-6203976D01*
X4327071Y-6213500D01*
X4336595Y-6223024D01*
X4346119Y-6242071D01*
X4355643Y-6280167D01*
X4355643Y-6327786D01*
X4346119Y-6365881D01*
X4336595Y-6384928D01*
X4327071Y-6394452D01*
X4308024Y-6403976D01*
X4288976Y-6403976D01*
X4269929Y-6394452D01*
X4260405Y-6384928D01*
X4250881Y-6365881D01*
X4241357Y-6327786D01*
X4241357Y-6280167D01*
X4250881Y-6242071D01*
X4260405Y-6223024D01*
X4269929Y-6213500D01*
X4288976Y-6203976D01*
X4441357Y-6384928D02*
X4450881Y-6394452D01*
X4441357Y-6403976D01*
X4431833Y-6394452D01*
X4441357Y-6384928D01*
X4441357Y-6403976D01*
X4574690Y-6203976D02*
X4593738Y-6203976D01*
X4612786Y-6213500D01*
X4622310Y-6223024D01*
X4631833Y-6242071D01*
X4641357Y-6280167D01*
X4641357Y-6327786D01*
X4631833Y-6365881D01*
X4622310Y-6384928D01*
X4612786Y-6394452D01*
X4593738Y-6403976D01*
X4574690Y-6403976D01*
X4555643Y-6394452D01*
X4546119Y-6384928D01*
X4536595Y-6365881D01*
X4527071Y-6327786D01*
X4527071Y-6280167D01*
X4536595Y-6242071D01*
X4546119Y-6223024D01*
X4555643Y-6213500D01*
X4574690Y-6203976D01*
X4831833Y-6403976D02*
X4717548Y-6403976D01*
X4774690Y-6403976D02*
X4774690Y-6203976D01*
X4755643Y-6232548D01*
X4736595Y-6251595D01*
X4717548Y-6261119D01*
X5022310Y-6403976D02*
X4908024Y-6403976D01*
X4965167Y-6403976D02*
X4965167Y-6203976D01*
X4946119Y-6232548D01*
X4927071Y-6251595D01*
X4908024Y-6261119D01*
X5136595Y-6289690D02*
X5117548Y-6280167D01*
X5108024Y-6270643D01*
X5098500Y-6251595D01*
X5098500Y-6242071D01*
X5108024Y-6223024D01*
X5117548Y-6213500D01*
X5136595Y-6203976D01*
X5174690Y-6203976D01*
X5193738Y-6213500D01*
X5203262Y-6223024D01*
X5212786Y-6242071D01*
X5212786Y-6251595D01*
X5203262Y-6270643D01*
X5193738Y-6280167D01*
X5174690Y-6289690D01*
X5136595Y-6289690D01*
X5117548Y-6299214D01*
X5108024Y-6308738D01*
X5098500Y-6327786D01*
X5098500Y-6365881D01*
X5108024Y-6384928D01*
X5117548Y-6394452D01*
X5136595Y-6403976D01*
X5174690Y-6403976D01*
X5193738Y-6394452D01*
X5203262Y-6384928D01*
X5212786Y-6365881D01*
X5212786Y-6327786D01*
X5203262Y-6308738D01*
X5193738Y-6299214D01*
X5174690Y-6289690D01*
X5288976Y-6203976D02*
X5288976Y-6242071D01*
X5365167Y-6203976D02*
X5365167Y-6242071D01*
X5660405Y-6480167D02*
X5650881Y-6470643D01*
X5631833Y-6442071D01*
X5622309Y-6423024D01*
X5612786Y-6394452D01*
X5603262Y-6346833D01*
X5603262Y-6308738D01*
X5612786Y-6261119D01*
X5622309Y-6232548D01*
X5631833Y-6213500D01*
X5650881Y-6184928D01*
X5660405Y-6175405D01*
X5765167Y-6289690D02*
X5746119Y-6280167D01*
X5736595Y-6270643D01*
X5727071Y-6251595D01*
X5727071Y-6242071D01*
X5736595Y-6223024D01*
X5746119Y-6213500D01*
X5765167Y-6203976D01*
X5803262Y-6203976D01*
X5822309Y-6213500D01*
X5831833Y-6223024D01*
X5841357Y-6242071D01*
X5841357Y-6251595D01*
X5831833Y-6270643D01*
X5822309Y-6280167D01*
X5803262Y-6289690D01*
X5765167Y-6289690D01*
X5746119Y-6299214D01*
X5736595Y-6308738D01*
X5727071Y-6327786D01*
X5727071Y-6365881D01*
X5736595Y-6384928D01*
X5746119Y-6394452D01*
X5765167Y-6403976D01*
X5803262Y-6403976D01*
X5822309Y-6394452D01*
X5831833Y-6384928D01*
X5841357Y-6365881D01*
X5841357Y-6327786D01*
X5831833Y-6308738D01*
X5822309Y-6299214D01*
X5803262Y-6289690D01*
X5917548Y-6223024D02*
X5927071Y-6213500D01*
X5946119Y-6203976D01*
X5993738Y-6203976D01*
X6012786Y-6213500D01*
X6022309Y-6223024D01*
X6031833Y-6242071D01*
X6031833Y-6261119D01*
X6022309Y-6289690D01*
X5908024Y-6403976D01*
X6031833Y-6403976D01*
X6269928Y-6403976D02*
X6269928Y-6203976D01*
X6355643Y-6403976D02*
X6355643Y-6299214D01*
X6346119Y-6280167D01*
X6327071Y-6270643D01*
X6298500Y-6270643D01*
X6279452Y-6280167D01*
X6269928Y-6289690D01*
X6479452Y-6403976D02*
X6460405Y-6394452D01*
X6450881Y-6384928D01*
X6441357Y-6365881D01*
X6441357Y-6308738D01*
X6450881Y-6289690D01*
X6460405Y-6280167D01*
X6479452Y-6270643D01*
X6508024Y-6270643D01*
X6527071Y-6280167D01*
X6536595Y-6289690D01*
X6546119Y-6308738D01*
X6546119Y-6365881D01*
X6536595Y-6384928D01*
X6527071Y-6394452D01*
X6508024Y-6403976D01*
X6479452Y-6403976D01*
X6660405Y-6403976D02*
X6641357Y-6394452D01*
X6631833Y-6375405D01*
X6631833Y-6203976D01*
X6812786Y-6394452D02*
X6793738Y-6403976D01*
X6755643Y-6403976D01*
X6736595Y-6394452D01*
X6727071Y-6375405D01*
X6727071Y-6299214D01*
X6736595Y-6280167D01*
X6755643Y-6270643D01*
X6793738Y-6270643D01*
X6812786Y-6280167D01*
X6822309Y-6299214D01*
X6822309Y-6318262D01*
X6727071Y-6337309D01*
X6898500Y-6394452D02*
X6917548Y-6403976D01*
X6955643Y-6403976D01*
X6974690Y-6394452D01*
X6984214Y-6375405D01*
X6984214Y-6365881D01*
X6974690Y-6346833D01*
X6955643Y-6337309D01*
X6927071Y-6337309D01*
X6908024Y-6327786D01*
X6898500Y-6308738D01*
X6898500Y-6299214D01*
X6908024Y-6280167D01*
X6927071Y-6270643D01*
X6955643Y-6270643D01*
X6974690Y-6280167D01*
X7050881Y-6480167D02*
X7060405Y-6470643D01*
X7079452Y-6442071D01*
X7088976Y-6423024D01*
X7098500Y-6394452D01*
X7108024Y-6346833D01*
X7108024Y-6308738D01*
X7098500Y-6261119D01*
X7088976Y-6232548D01*
X7079452Y-6213500D01*
X7060405Y-6184928D01*
X7050881Y-6175405D01*
D13*
X2088500Y-6577500D02*
G75*
G03*
X2088500Y-6577500I-20000J0D01*
G01*
D11*
X2384214Y-6467976D02*
X2403262Y-6467976D01*
X2422310Y-6477500D01*
X2431833Y-6487024D01*
X2441357Y-6506071D01*
X2450881Y-6544167D01*
X2450881Y-6591786D01*
X2441357Y-6629881D01*
X2431833Y-6648928D01*
X2422310Y-6658452D01*
X2403262Y-6667976D01*
X2384214Y-6667976D01*
X2365167Y-6658452D01*
X2355643Y-6648928D01*
X2346119Y-6629881D01*
X2336595Y-6591786D01*
X2336595Y-6544167D01*
X2346119Y-6506071D01*
X2355643Y-6487024D01*
X2365167Y-6477500D01*
X2384214Y-6467976D01*
X2536595Y-6648928D02*
X2546119Y-6658452D01*
X2536595Y-6667976D01*
X2527071Y-6658452D01*
X2536595Y-6648928D01*
X2536595Y-6667976D01*
X2717548Y-6534643D02*
X2717548Y-6667976D01*
X2669929Y-6458452D02*
X2622310Y-6601309D01*
X2746119Y-6601309D01*
X2860405Y-6467976D02*
X2879452Y-6467976D01*
X2898500Y-6477500D01*
X2908024Y-6487024D01*
X2917548Y-6506071D01*
X2927071Y-6544167D01*
X2927071Y-6591786D01*
X2917548Y-6629881D01*
X2908024Y-6648928D01*
X2898500Y-6658452D01*
X2879452Y-6667976D01*
X2860405Y-6667976D01*
X2841357Y-6658452D01*
X2831833Y-6648928D01*
X2822309Y-6629881D01*
X2812786Y-6591786D01*
X2812786Y-6544167D01*
X2822309Y-6506071D01*
X2831833Y-6487024D01*
X2841357Y-6477500D01*
X2860405Y-6467976D01*
X3050881Y-6467976D02*
X3069928Y-6467976D01*
X3088976Y-6477500D01*
X3098500Y-6487024D01*
X3108024Y-6506071D01*
X3117548Y-6544167D01*
X3117548Y-6591786D01*
X3108024Y-6629881D01*
X3098500Y-6648928D01*
X3088976Y-6658452D01*
X3069928Y-6667976D01*
X3050881Y-6667976D01*
X3031833Y-6658452D01*
X3022309Y-6648928D01*
X3012786Y-6629881D01*
X3003262Y-6591786D01*
X3003262Y-6544167D01*
X3012786Y-6506071D01*
X3022309Y-6487024D01*
X3031833Y-6477500D01*
X3050881Y-6467976D01*
X3203262Y-6667976D02*
X3203262Y-6534643D01*
X3203262Y-6553690D02*
X3212786Y-6544167D01*
X3231833Y-6534643D01*
X3260405Y-6534643D01*
X3279452Y-6544167D01*
X3288976Y-6563214D01*
X3288976Y-6667976D01*
X3288976Y-6563214D02*
X3298500Y-6544167D01*
X3317548Y-6534643D01*
X3346119Y-6534643D01*
X3365167Y-6544167D01*
X3374690Y-6563214D01*
X3374690Y-6667976D01*
X3469928Y-6667976D02*
X3469928Y-6534643D01*
X3469928Y-6553690D02*
X3479452Y-6544167D01*
X3498500Y-6534643D01*
X3527071Y-6534643D01*
X3546119Y-6544167D01*
X3555643Y-6563214D01*
X3555643Y-6667976D01*
X3555643Y-6563214D02*
X3565167Y-6544167D01*
X3584214Y-6534643D01*
X3612786Y-6534643D01*
X3631833Y-6544167D01*
X3641357Y-6563214D01*
X3641357Y-6667976D01*
X4031833Y-6458452D02*
X3860405Y-6715595D01*
X4288976Y-6467976D02*
X4308024Y-6467976D01*
X4327071Y-6477500D01*
X4336595Y-6487024D01*
X4346119Y-6506071D01*
X4355643Y-6544167D01*
X4355643Y-6591786D01*
X4346119Y-6629881D01*
X4336595Y-6648928D01*
X4327071Y-6658452D01*
X4308024Y-6667976D01*
X4288976Y-6667976D01*
X4269929Y-6658452D01*
X4260405Y-6648928D01*
X4250881Y-6629881D01*
X4241357Y-6591786D01*
X4241357Y-6544167D01*
X4250881Y-6506071D01*
X4260405Y-6487024D01*
X4269929Y-6477500D01*
X4288976Y-6467976D01*
X4441357Y-6648928D02*
X4450881Y-6658452D01*
X4441357Y-6667976D01*
X4431833Y-6658452D01*
X4441357Y-6648928D01*
X4441357Y-6667976D01*
X4574690Y-6467976D02*
X4593738Y-6467976D01*
X4612786Y-6477500D01*
X4622310Y-6487024D01*
X4631833Y-6506071D01*
X4641357Y-6544167D01*
X4641357Y-6591786D01*
X4631833Y-6629881D01*
X4622310Y-6648928D01*
X4612786Y-6658452D01*
X4593738Y-6667976D01*
X4574690Y-6667976D01*
X4555643Y-6658452D01*
X4546119Y-6648928D01*
X4536595Y-6629881D01*
X4527071Y-6591786D01*
X4527071Y-6544167D01*
X4536595Y-6506071D01*
X4546119Y-6487024D01*
X4555643Y-6477500D01*
X4574690Y-6467976D01*
X4831833Y-6667976D02*
X4717548Y-6667976D01*
X4774690Y-6667976D02*
X4774690Y-6467976D01*
X4755643Y-6496548D01*
X4736595Y-6515595D01*
X4717548Y-6525119D01*
X5012786Y-6467976D02*
X4917548Y-6467976D01*
X4908024Y-6563214D01*
X4917548Y-6553690D01*
X4936595Y-6544167D01*
X4984214Y-6544167D01*
X5003262Y-6553690D01*
X5012786Y-6563214D01*
X5022310Y-6582262D01*
X5022310Y-6629881D01*
X5012786Y-6648928D01*
X5003262Y-6658452D01*
X4984214Y-6667976D01*
X4936595Y-6667976D01*
X4917548Y-6658452D01*
X4908024Y-6648928D01*
X5088976Y-6467976D02*
X5222310Y-6467976D01*
X5136595Y-6667976D01*
X5288976Y-6467976D02*
X5288976Y-6506071D01*
X5365167Y-6467976D02*
X5365167Y-6506071D01*
X5660405Y-6744167D02*
X5650881Y-6734643D01*
X5631833Y-6706071D01*
X5622309Y-6687024D01*
X5612786Y-6658452D01*
X5603262Y-6610833D01*
X5603262Y-6572738D01*
X5612786Y-6525119D01*
X5622309Y-6496548D01*
X5631833Y-6477500D01*
X5650881Y-6448928D01*
X5660405Y-6439405D01*
X5822309Y-6467976D02*
X5784214Y-6467976D01*
X5765167Y-6477500D01*
X5755643Y-6487024D01*
X5736595Y-6515595D01*
X5727071Y-6553690D01*
X5727071Y-6629881D01*
X5736595Y-6648928D01*
X5746119Y-6658452D01*
X5765167Y-6667976D01*
X5803262Y-6667976D01*
X5822309Y-6658452D01*
X5831833Y-6648928D01*
X5841357Y-6629881D01*
X5841357Y-6582262D01*
X5831833Y-6563214D01*
X5822309Y-6553690D01*
X5803262Y-6544167D01*
X5765167Y-6544167D01*
X5746119Y-6553690D01*
X5736595Y-6563214D01*
X5727071Y-6582262D01*
X6079452Y-6667976D02*
X6079452Y-6467976D01*
X6165167Y-6667976D02*
X6165167Y-6563214D01*
X6155643Y-6544167D01*
X6136595Y-6534643D01*
X6108024Y-6534643D01*
X6088976Y-6544167D01*
X6079452Y-6553690D01*
X6288976Y-6667976D02*
X6269928Y-6658452D01*
X6260405Y-6648928D01*
X6250881Y-6629881D01*
X6250881Y-6572738D01*
X6260405Y-6553690D01*
X6269928Y-6544167D01*
X6288976Y-6534643D01*
X6317548Y-6534643D01*
X6336595Y-6544167D01*
X6346119Y-6553690D01*
X6355643Y-6572738D01*
X6355643Y-6629881D01*
X6346119Y-6648928D01*
X6336595Y-6658452D01*
X6317548Y-6667976D01*
X6288976Y-6667976D01*
X6469928Y-6667976D02*
X6450881Y-6658452D01*
X6441357Y-6639405D01*
X6441357Y-6467976D01*
X6622309Y-6658452D02*
X6603262Y-6667976D01*
X6565167Y-6667976D01*
X6546119Y-6658452D01*
X6536595Y-6639405D01*
X6536595Y-6563214D01*
X6546119Y-6544167D01*
X6565167Y-6534643D01*
X6603262Y-6534643D01*
X6622309Y-6544167D01*
X6631833Y-6563214D01*
X6631833Y-6582262D01*
X6536595Y-6601309D01*
X6708024Y-6658452D02*
X6727071Y-6667976D01*
X6765167Y-6667976D01*
X6784214Y-6658452D01*
X6793738Y-6639405D01*
X6793738Y-6629881D01*
X6784214Y-6610833D01*
X6765167Y-6601309D01*
X6736595Y-6601309D01*
X6717548Y-6591786D01*
X6708024Y-6572738D01*
X6708024Y-6563214D01*
X6717548Y-6544167D01*
X6736595Y-6534643D01*
X6765167Y-6534643D01*
X6784214Y-6544167D01*
X6860405Y-6744167D02*
X6869928Y-6734643D01*
X6888976Y-6706071D01*
X6898500Y-6687024D01*
X6908024Y-6658452D01*
X6917548Y-6610833D01*
X6917548Y-6572738D01*
X6908024Y-6525119D01*
X6898500Y-6496548D01*
X6888976Y-6477500D01*
X6869928Y-6448928D01*
X6860405Y-6439405D01*
D14*
X2058500Y-6811500D02*
X2058500Y-6871500D01*
X2028500Y-6841500D02*
X2088500Y-6841500D01*
D11*
X2384214Y-6731976D02*
X2403262Y-6731976D01*
X2422310Y-6741500D01*
X2431833Y-6751024D01*
X2441357Y-6770071D01*
X2450881Y-6808167D01*
X2450881Y-6855786D01*
X2441357Y-6893881D01*
X2431833Y-6912928D01*
X2422310Y-6922452D01*
X2403262Y-6931976D01*
X2384214Y-6931976D01*
X2365167Y-6922452D01*
X2355643Y-6912928D01*
X2346119Y-6893881D01*
X2336595Y-6855786D01*
X2336595Y-6808167D01*
X2346119Y-6770071D01*
X2355643Y-6751024D01*
X2365167Y-6741500D01*
X2384214Y-6731976D01*
X2536595Y-6912928D02*
X2546119Y-6922452D01*
X2536595Y-6931976D01*
X2527071Y-6922452D01*
X2536595Y-6912928D01*
X2536595Y-6931976D01*
X2717548Y-6731976D02*
X2679452Y-6731976D01*
X2660405Y-6741500D01*
X2650881Y-6751024D01*
X2631833Y-6779595D01*
X2622310Y-6817690D01*
X2622310Y-6893881D01*
X2631833Y-6912928D01*
X2641357Y-6922452D01*
X2660405Y-6931976D01*
X2698500Y-6931976D01*
X2717548Y-6922452D01*
X2727071Y-6912928D01*
X2736595Y-6893881D01*
X2736595Y-6846262D01*
X2727071Y-6827214D01*
X2717548Y-6817690D01*
X2698500Y-6808167D01*
X2660405Y-6808167D01*
X2641357Y-6817690D01*
X2631833Y-6827214D01*
X2622310Y-6846262D01*
X2860405Y-6731976D02*
X2879452Y-6731976D01*
X2898500Y-6741500D01*
X2908024Y-6751024D01*
X2917548Y-6770071D01*
X2927071Y-6808167D01*
X2927071Y-6855786D01*
X2917548Y-6893881D01*
X2908024Y-6912928D01*
X2898500Y-6922452D01*
X2879452Y-6931976D01*
X2860405Y-6931976D01*
X2841357Y-6922452D01*
X2831833Y-6912928D01*
X2822309Y-6893881D01*
X2812786Y-6855786D01*
X2812786Y-6808167D01*
X2822309Y-6770071D01*
X2831833Y-6751024D01*
X2841357Y-6741500D01*
X2860405Y-6731976D01*
X3050881Y-6731976D02*
X3069928Y-6731976D01*
X3088976Y-6741500D01*
X3098500Y-6751024D01*
X3108024Y-6770071D01*
X3117548Y-6808167D01*
X3117548Y-6855786D01*
X3108024Y-6893881D01*
X3098500Y-6912928D01*
X3088976Y-6922452D01*
X3069928Y-6931976D01*
X3050881Y-6931976D01*
X3031833Y-6922452D01*
X3022309Y-6912928D01*
X3012786Y-6893881D01*
X3003262Y-6855786D01*
X3003262Y-6808167D01*
X3012786Y-6770071D01*
X3022309Y-6751024D01*
X3031833Y-6741500D01*
X3050881Y-6731976D01*
X3203262Y-6931976D02*
X3203262Y-6798643D01*
X3203262Y-6817690D02*
X3212786Y-6808167D01*
X3231833Y-6798643D01*
X3260405Y-6798643D01*
X3279452Y-6808167D01*
X3288976Y-6827214D01*
X3288976Y-6931976D01*
X3288976Y-6827214D02*
X3298500Y-6808167D01*
X3317548Y-6798643D01*
X3346119Y-6798643D01*
X3365167Y-6808167D01*
X3374690Y-6827214D01*
X3374690Y-6931976D01*
X3469928Y-6931976D02*
X3469928Y-6798643D01*
X3469928Y-6817690D02*
X3479452Y-6808167D01*
X3498500Y-6798643D01*
X3527071Y-6798643D01*
X3546119Y-6808167D01*
X3555643Y-6827214D01*
X3555643Y-6931976D01*
X3555643Y-6827214D02*
X3565167Y-6808167D01*
X3584214Y-6798643D01*
X3612786Y-6798643D01*
X3631833Y-6808167D01*
X3641357Y-6827214D01*
X3641357Y-6931976D01*
X4031833Y-6722452D02*
X3860405Y-6979595D01*
X4288976Y-6731976D02*
X4308024Y-6731976D01*
X4327071Y-6741500D01*
X4336595Y-6751024D01*
X4346119Y-6770071D01*
X4355643Y-6808167D01*
X4355643Y-6855786D01*
X4346119Y-6893881D01*
X4336595Y-6912928D01*
X4327071Y-6922452D01*
X4308024Y-6931976D01*
X4288976Y-6931976D01*
X4269929Y-6922452D01*
X4260405Y-6912928D01*
X4250881Y-6893881D01*
X4241357Y-6855786D01*
X4241357Y-6808167D01*
X4250881Y-6770071D01*
X4260405Y-6751024D01*
X4269929Y-6741500D01*
X4288976Y-6731976D01*
X4441357Y-6912928D02*
X4450881Y-6922452D01*
X4441357Y-6931976D01*
X4431833Y-6922452D01*
X4441357Y-6912928D01*
X4441357Y-6931976D01*
X4574690Y-6731976D02*
X4593738Y-6731976D01*
X4612786Y-6741500D01*
X4622310Y-6751024D01*
X4631833Y-6770071D01*
X4641357Y-6808167D01*
X4641357Y-6855786D01*
X4631833Y-6893881D01*
X4622310Y-6912928D01*
X4612786Y-6922452D01*
X4593738Y-6931976D01*
X4574690Y-6931976D01*
X4555643Y-6922452D01*
X4546119Y-6912928D01*
X4536595Y-6893881D01*
X4527071Y-6855786D01*
X4527071Y-6808167D01*
X4536595Y-6770071D01*
X4546119Y-6751024D01*
X4555643Y-6741500D01*
X4574690Y-6731976D01*
X4717548Y-6751024D02*
X4727071Y-6741500D01*
X4746119Y-6731976D01*
X4793738Y-6731976D01*
X4812786Y-6741500D01*
X4822310Y-6751024D01*
X4831833Y-6770071D01*
X4831833Y-6789119D01*
X4822310Y-6817690D01*
X4708024Y-6931976D01*
X4831833Y-6931976D01*
X4898500Y-6731976D02*
X5022310Y-6731976D01*
X4955643Y-6808167D01*
X4984214Y-6808167D01*
X5003262Y-6817690D01*
X5012786Y-6827214D01*
X5022310Y-6846262D01*
X5022310Y-6893881D01*
X5012786Y-6912928D01*
X5003262Y-6922452D01*
X4984214Y-6931976D01*
X4927071Y-6931976D01*
X4908024Y-6922452D01*
X4898500Y-6912928D01*
X5193738Y-6731976D02*
X5155643Y-6731976D01*
X5136595Y-6741500D01*
X5127071Y-6751024D01*
X5108024Y-6779595D01*
X5098500Y-6817690D01*
X5098500Y-6893881D01*
X5108024Y-6912928D01*
X5117548Y-6922452D01*
X5136595Y-6931976D01*
X5174690Y-6931976D01*
X5193738Y-6922452D01*
X5203262Y-6912928D01*
X5212786Y-6893881D01*
X5212786Y-6846262D01*
X5203262Y-6827214D01*
X5193738Y-6817690D01*
X5174690Y-6808167D01*
X5136595Y-6808167D01*
X5117548Y-6817690D01*
X5108024Y-6827214D01*
X5098500Y-6846262D01*
X5288976Y-6731976D02*
X5288976Y-6770071D01*
X5365167Y-6731976D02*
X5365167Y-6770071D01*
X5660405Y-7008167D02*
X5650881Y-6998643D01*
X5631833Y-6970071D01*
X5622309Y-6951024D01*
X5612786Y-6922452D01*
X5603262Y-6874833D01*
X5603262Y-6836738D01*
X5612786Y-6789119D01*
X5622309Y-6760548D01*
X5631833Y-6741500D01*
X5650881Y-6712928D01*
X5660405Y-6703405D01*
X5774690Y-6731976D02*
X5793738Y-6731976D01*
X5812786Y-6741500D01*
X5822309Y-6751024D01*
X5831833Y-6770071D01*
X5841357Y-6808167D01*
X5841357Y-6855786D01*
X5831833Y-6893881D01*
X5822309Y-6912928D01*
X5812786Y-6922452D01*
X5793738Y-6931976D01*
X5774690Y-6931976D01*
X5755643Y-6922452D01*
X5746119Y-6912928D01*
X5736595Y-6893881D01*
X5727071Y-6855786D01*
X5727071Y-6808167D01*
X5736595Y-6770071D01*
X5746119Y-6751024D01*
X5755643Y-6741500D01*
X5774690Y-6731976D01*
X6079452Y-6931976D02*
X6079452Y-6731976D01*
X6165167Y-6931976D02*
X6165167Y-6827214D01*
X6155643Y-6808167D01*
X6136595Y-6798643D01*
X6108024Y-6798643D01*
X6088976Y-6808167D01*
X6079452Y-6817690D01*
X6288976Y-6931976D02*
X6269928Y-6922452D01*
X6260405Y-6912928D01*
X6250881Y-6893881D01*
X6250881Y-6836738D01*
X6260405Y-6817690D01*
X6269928Y-6808167D01*
X6288976Y-6798643D01*
X6317548Y-6798643D01*
X6336595Y-6808167D01*
X6346119Y-6817690D01*
X6355643Y-6836738D01*
X6355643Y-6893881D01*
X6346119Y-6912928D01*
X6336595Y-6922452D01*
X6317548Y-6931976D01*
X6288976Y-6931976D01*
X6469928Y-6931976D02*
X6450881Y-6922452D01*
X6441357Y-6903405D01*
X6441357Y-6731976D01*
X6622309Y-6922452D02*
X6603262Y-6931976D01*
X6565167Y-6931976D01*
X6546119Y-6922452D01*
X6536595Y-6903405D01*
X6536595Y-6827214D01*
X6546119Y-6808167D01*
X6565167Y-6798643D01*
X6603262Y-6798643D01*
X6622309Y-6808167D01*
X6631833Y-6827214D01*
X6631833Y-6846262D01*
X6536595Y-6865309D01*
X6708024Y-6922452D02*
X6727071Y-6931976D01*
X6765167Y-6931976D01*
X6784214Y-6922452D01*
X6793738Y-6903405D01*
X6793738Y-6893881D01*
X6784214Y-6874833D01*
X6765167Y-6865309D01*
X6736595Y-6865309D01*
X6717548Y-6855786D01*
X6708024Y-6836738D01*
X6708024Y-6827214D01*
X6717548Y-6808167D01*
X6736595Y-6798643D01*
X6765167Y-6798643D01*
X6784214Y-6808167D01*
X7031833Y-6855786D02*
X7184214Y-6855786D01*
X7108024Y-6931976D02*
X7108024Y-6779595D01*
X7517548Y-6798643D02*
X7517548Y-6931976D01*
X7469928Y-6722452D02*
X7422309Y-6865309D01*
X7546119Y-6865309D01*
X7765167Y-6922452D02*
X7784214Y-6931976D01*
X7822309Y-6931976D01*
X7841357Y-6922452D01*
X7850881Y-6903405D01*
X7850881Y-6893881D01*
X7841357Y-6874833D01*
X7822309Y-6865309D01*
X7793738Y-6865309D01*
X7774690Y-6855786D01*
X7765167Y-6836738D01*
X7765167Y-6827214D01*
X7774690Y-6808167D01*
X7793738Y-6798643D01*
X7822309Y-6798643D01*
X7841357Y-6808167D01*
X7965167Y-6931976D02*
X7946119Y-6922452D01*
X7936595Y-6903405D01*
X7936595Y-6731976D01*
X8069928Y-6931976D02*
X8050881Y-6922452D01*
X8041357Y-6912928D01*
X8031833Y-6893881D01*
X8031833Y-6836738D01*
X8041357Y-6817690D01*
X8050881Y-6808167D01*
X8069928Y-6798643D01*
X8098500Y-6798643D01*
X8117548Y-6808167D01*
X8127071Y-6817690D01*
X8136595Y-6836738D01*
X8136595Y-6893881D01*
X8127071Y-6912928D01*
X8117548Y-6922452D01*
X8098500Y-6931976D01*
X8069928Y-6931976D01*
X8193738Y-6798643D02*
X8269928Y-6798643D01*
X8222309Y-6731976D02*
X8222309Y-6903405D01*
X8231833Y-6922452D01*
X8250881Y-6931976D01*
X8269928Y-6931976D01*
X8327071Y-6922452D02*
X8346119Y-6931976D01*
X8384214Y-6931976D01*
X8403262Y-6922452D01*
X8412786Y-6903405D01*
X8412786Y-6893881D01*
X8403262Y-6874833D01*
X8384214Y-6865309D01*
X8355643Y-6865309D01*
X8336595Y-6855786D01*
X8327071Y-6836738D01*
X8327071Y-6827214D01*
X8336595Y-6808167D01*
X8355643Y-6798643D01*
X8384214Y-6798643D01*
X8403262Y-6808167D01*
X8479452Y-7008167D02*
X8488976Y-6998643D01*
X8508024Y-6970071D01*
X8517548Y-6951024D01*
X8527071Y-6922452D01*
X8536595Y-6874833D01*
X8536595Y-6836738D01*
X8527071Y-6789119D01*
X8517548Y-6760548D01*
X8508024Y-6741500D01*
X8488976Y-6712928D01*
X8479452Y-6703405D01*
D15*
X2073856Y-7140856D02*
X2073856Y-7070144D01*
X2003144Y-7070144D01*
X2003144Y-7140856D01*
X2073856Y-7140856D01*
D11*
X2450881Y-7195976D02*
X2336595Y-7195976D01*
X2393738Y-7195976D02*
X2393738Y-6995976D01*
X2374690Y-7024548D01*
X2355643Y-7043595D01*
X2336595Y-7053119D01*
X2536595Y-7176928D02*
X2546119Y-7186452D01*
X2536595Y-7195976D01*
X2527071Y-7186452D01*
X2536595Y-7176928D01*
X2536595Y-7195976D01*
X2669929Y-6995976D02*
X2688976Y-6995976D01*
X2708024Y-7005500D01*
X2717548Y-7015024D01*
X2727071Y-7034071D01*
X2736595Y-7072167D01*
X2736595Y-7119786D01*
X2727071Y-7157881D01*
X2717548Y-7176928D01*
X2708024Y-7186452D01*
X2688976Y-7195976D01*
X2669929Y-7195976D01*
X2650881Y-7186452D01*
X2641357Y-7176928D01*
X2631833Y-7157881D01*
X2622310Y-7119786D01*
X2622310Y-7072167D01*
X2631833Y-7034071D01*
X2641357Y-7015024D01*
X2650881Y-7005500D01*
X2669929Y-6995976D01*
X2860405Y-6995976D02*
X2879452Y-6995976D01*
X2898500Y-7005500D01*
X2908024Y-7015024D01*
X2917548Y-7034071D01*
X2927071Y-7072167D01*
X2927071Y-7119786D01*
X2917548Y-7157881D01*
X2908024Y-7176928D01*
X2898500Y-7186452D01*
X2879452Y-7195976D01*
X2860405Y-7195976D01*
X2841357Y-7186452D01*
X2831833Y-7176928D01*
X2822309Y-7157881D01*
X2812786Y-7119786D01*
X2812786Y-7072167D01*
X2822309Y-7034071D01*
X2831833Y-7015024D01*
X2841357Y-7005500D01*
X2860405Y-6995976D01*
X3050881Y-6995976D02*
X3069928Y-6995976D01*
X3088976Y-7005500D01*
X3098500Y-7015024D01*
X3108024Y-7034071D01*
X3117548Y-7072167D01*
X3117548Y-7119786D01*
X3108024Y-7157881D01*
X3098500Y-7176928D01*
X3088976Y-7186452D01*
X3069928Y-7195976D01*
X3050881Y-7195976D01*
X3031833Y-7186452D01*
X3022309Y-7176928D01*
X3012786Y-7157881D01*
X3003262Y-7119786D01*
X3003262Y-7072167D01*
X3012786Y-7034071D01*
X3022309Y-7015024D01*
X3031833Y-7005500D01*
X3050881Y-6995976D01*
X3203262Y-7195976D02*
X3203262Y-7062643D01*
X3203262Y-7081690D02*
X3212786Y-7072167D01*
X3231833Y-7062643D01*
X3260405Y-7062643D01*
X3279452Y-7072167D01*
X3288976Y-7091214D01*
X3288976Y-7195976D01*
X3288976Y-7091214D02*
X3298500Y-7072167D01*
X3317548Y-7062643D01*
X3346119Y-7062643D01*
X3365167Y-7072167D01*
X3374690Y-7091214D01*
X3374690Y-7195976D01*
X3469928Y-7195976D02*
X3469928Y-7062643D01*
X3469928Y-7081690D02*
X3479452Y-7072167D01*
X3498500Y-7062643D01*
X3527071Y-7062643D01*
X3546119Y-7072167D01*
X3555643Y-7091214D01*
X3555643Y-7195976D01*
X3555643Y-7091214D02*
X3565167Y-7072167D01*
X3584214Y-7062643D01*
X3612786Y-7062643D01*
X3631833Y-7072167D01*
X3641357Y-7091214D01*
X3641357Y-7195976D01*
X4031833Y-6986452D02*
X3860405Y-7243595D01*
X4288976Y-6995976D02*
X4308024Y-6995976D01*
X4327071Y-7005500D01*
X4336595Y-7015024D01*
X4346119Y-7034071D01*
X4355643Y-7072167D01*
X4355643Y-7119786D01*
X4346119Y-7157881D01*
X4336595Y-7176928D01*
X4327071Y-7186452D01*
X4308024Y-7195976D01*
X4288976Y-7195976D01*
X4269929Y-7186452D01*
X4260405Y-7176928D01*
X4250881Y-7157881D01*
X4241357Y-7119786D01*
X4241357Y-7072167D01*
X4250881Y-7034071D01*
X4260405Y-7015024D01*
X4269929Y-7005500D01*
X4288976Y-6995976D01*
X4441357Y-7176928D02*
X4450881Y-7186452D01*
X4441357Y-7195976D01*
X4431833Y-7186452D01*
X4441357Y-7176928D01*
X4441357Y-7195976D01*
X4574690Y-6995976D02*
X4593738Y-6995976D01*
X4612786Y-7005500D01*
X4622310Y-7015024D01*
X4631833Y-7034071D01*
X4641357Y-7072167D01*
X4641357Y-7119786D01*
X4631833Y-7157881D01*
X4622310Y-7176928D01*
X4612786Y-7186452D01*
X4593738Y-7195976D01*
X4574690Y-7195976D01*
X4555643Y-7186452D01*
X4546119Y-7176928D01*
X4536595Y-7157881D01*
X4527071Y-7119786D01*
X4527071Y-7072167D01*
X4536595Y-7034071D01*
X4546119Y-7015024D01*
X4555643Y-7005500D01*
X4574690Y-6995976D01*
X4708024Y-6995976D02*
X4831833Y-6995976D01*
X4765167Y-7072167D01*
X4793738Y-7072167D01*
X4812786Y-7081690D01*
X4822310Y-7091214D01*
X4831833Y-7110262D01*
X4831833Y-7157881D01*
X4822310Y-7176928D01*
X4812786Y-7186452D01*
X4793738Y-7195976D01*
X4736595Y-7195976D01*
X4717548Y-7186452D01*
X4708024Y-7176928D01*
X4927071Y-7195976D02*
X4965167Y-7195976D01*
X4984214Y-7186452D01*
X4993738Y-7176928D01*
X5012786Y-7148357D01*
X5022310Y-7110262D01*
X5022310Y-7034071D01*
X5012786Y-7015024D01*
X5003262Y-7005500D01*
X4984214Y-6995976D01*
X4946119Y-6995976D01*
X4927071Y-7005500D01*
X4917548Y-7015024D01*
X4908024Y-7034071D01*
X4908024Y-7081690D01*
X4917548Y-7100738D01*
X4927071Y-7110262D01*
X4946119Y-7119786D01*
X4984214Y-7119786D01*
X5003262Y-7110262D01*
X5012786Y-7100738D01*
X5022310Y-7081690D01*
X5193738Y-7062643D02*
X5193738Y-7195976D01*
X5146119Y-6986452D02*
X5098500Y-7129309D01*
X5222310Y-7129309D01*
X5288976Y-6995976D02*
X5288976Y-7034071D01*
X5365167Y-6995976D02*
X5365167Y-7034071D01*
X5660405Y-7272167D02*
X5650881Y-7262643D01*
X5631833Y-7234071D01*
X5622309Y-7215024D01*
X5612786Y-7186452D01*
X5603262Y-7138833D01*
X5603262Y-7100738D01*
X5612786Y-7053119D01*
X5622309Y-7024548D01*
X5631833Y-7005500D01*
X5650881Y-6976928D01*
X5660405Y-6967405D01*
X5717548Y-6995976D02*
X5841357Y-6995976D01*
X5774690Y-7072167D01*
X5803262Y-7072167D01*
X5822309Y-7081690D01*
X5831833Y-7091214D01*
X5841357Y-7110262D01*
X5841357Y-7157881D01*
X5831833Y-7176928D01*
X5822309Y-7186452D01*
X5803262Y-7195976D01*
X5746119Y-7195976D01*
X5727071Y-7186452D01*
X5717548Y-7176928D01*
X6031833Y-7195976D02*
X5917548Y-7195976D01*
X5974690Y-7195976D02*
X5974690Y-6995976D01*
X5955643Y-7024548D01*
X5936595Y-7043595D01*
X5917548Y-7053119D01*
X6269928Y-7195976D02*
X6269928Y-6995976D01*
X6355643Y-7195976D02*
X6355643Y-7091214D01*
X6346119Y-7072167D01*
X6327071Y-7062643D01*
X6298500Y-7062643D01*
X6279452Y-7072167D01*
X6269928Y-7081690D01*
X6479452Y-7195976D02*
X6460405Y-7186452D01*
X6450881Y-7176928D01*
X6441357Y-7157881D01*
X6441357Y-7100738D01*
X6450881Y-7081690D01*
X6460405Y-7072167D01*
X6479452Y-7062643D01*
X6508024Y-7062643D01*
X6527071Y-7072167D01*
X6536595Y-7081690D01*
X6546119Y-7100738D01*
X6546119Y-7157881D01*
X6536595Y-7176928D01*
X6527071Y-7186452D01*
X6508024Y-7195976D01*
X6479452Y-7195976D01*
X6660405Y-7195976D02*
X6641357Y-7186452D01*
X6631833Y-7167405D01*
X6631833Y-6995976D01*
X6812786Y-7186452D02*
X6793738Y-7195976D01*
X6755643Y-7195976D01*
X6736595Y-7186452D01*
X6727071Y-7167405D01*
X6727071Y-7091214D01*
X6736595Y-7072167D01*
X6755643Y-7062643D01*
X6793738Y-7062643D01*
X6812786Y-7072167D01*
X6822309Y-7091214D01*
X6822309Y-7110262D01*
X6727071Y-7129309D01*
X6898500Y-7186452D02*
X6917548Y-7195976D01*
X6955643Y-7195976D01*
X6974690Y-7186452D01*
X6984214Y-7167405D01*
X6984214Y-7157881D01*
X6974690Y-7138833D01*
X6955643Y-7129309D01*
X6927071Y-7129309D01*
X6908024Y-7119786D01*
X6898500Y-7100738D01*
X6898500Y-7091214D01*
X6908024Y-7072167D01*
X6927071Y-7062643D01*
X6955643Y-7062643D01*
X6974690Y-7072167D01*
X7050881Y-7272167D02*
X7060405Y-7262643D01*
X7079452Y-7234071D01*
X7088976Y-7215024D01*
X7098500Y-7186452D01*
X7108024Y-7138833D01*
X7108024Y-7100738D01*
X7098500Y-7053119D01*
X7088976Y-7024548D01*
X7079452Y-7005500D01*
X7060405Y-6976928D01*
X7050881Y-6967405D01*
M02*
