G04 #@! TF.GenerationSoftware,KiCad,Pcbnew,(5.99.0-11424-g2f41dd4074)*
G04 #@! TF.CreationDate,2021-09-18T21:26:06+03:00*
G04 #@! TF.ProjectId,goldfish,676f6c64-6669-4736-982e-6b696361645f,C*
G04 #@! TF.SameCoordinates,Original*
G04 #@! TF.FileFunction,Other,User*
%FSLAX46Y46*%
G04 Gerber Fmt 4.6, Leading zero omitted, Abs format (unit mm)*
G04 Created by KiCad (PCBNEW (5.99.0-11424-g2f41dd4074)) date 2021-09-18 21:26:06*
%MOMM*%
%LPD*%
G01*
G04 APERTURE LIST*
%ADD10C,0.050000*%
G04 APERTURE END LIST*
D10*
X30700000Y-39173440D02*
X24873440Y-45000000D01*
X30700000Y-50826560D02*
X36526560Y-45000000D01*
X36526560Y-45000000D02*
X30700000Y-39173440D01*
X24873440Y-45000000D02*
X30700000Y-50826560D01*
X24370000Y-47730000D02*
X26230000Y-47730000D01*
X24370000Y-48670000D02*
X24370000Y-47730000D01*
X26230000Y-48670000D02*
X24370000Y-48670000D01*
X26230000Y-47730000D02*
X26230000Y-48670000D01*
X28770000Y-52930000D02*
X27830000Y-52930000D01*
X27830000Y-51070000D02*
X28770000Y-51070000D01*
X28770000Y-51070000D02*
X28770000Y-52930000D01*
X27830000Y-52930000D02*
X27830000Y-51070000D01*
X24200000Y-53100000D02*
X27600000Y-53100000D01*
X27600000Y-48900000D02*
X24200000Y-48900000D01*
X24200000Y-48900000D02*
X24200000Y-53100000D01*
X27600000Y-53100000D02*
X27600000Y-48900000D01*
X29120000Y-36920000D02*
X29120000Y-38780000D01*
X29120000Y-38780000D02*
X28180000Y-38780000D01*
X28180000Y-38780000D02*
X28180000Y-36920000D01*
X28180000Y-36920000D02*
X29120000Y-36920000D01*
X29380000Y-37570000D02*
X30320000Y-37570000D01*
X30320000Y-37570000D02*
X30320000Y-39430000D01*
X30320000Y-39430000D02*
X29380000Y-39430000D01*
X29380000Y-39430000D02*
X29380000Y-37570000D01*
X26080000Y-35970000D02*
X24220000Y-35970000D01*
X24220000Y-35970000D02*
X24220000Y-35030000D01*
X26080000Y-35030000D02*
X26080000Y-35970000D01*
X24220000Y-35030000D02*
X26080000Y-35030000D01*
X26980000Y-37170000D02*
X27920000Y-37170000D01*
X27920000Y-39030000D02*
X26980000Y-39030000D01*
X27920000Y-37170000D02*
X27920000Y-39030000D01*
X26980000Y-39030000D02*
X26980000Y-37170000D01*
X32720000Y-37820000D02*
X32720000Y-39680000D01*
X32720000Y-39680000D02*
X31780000Y-39680000D01*
X31780000Y-39680000D02*
X31780000Y-37820000D01*
X31780000Y-37820000D02*
X32720000Y-37820000D01*
X24200000Y-41250000D02*
X24200000Y-36250000D01*
X24200000Y-36250000D02*
X26800000Y-36250000D01*
X26800000Y-36250000D02*
X26800000Y-41250000D01*
X26800000Y-41250000D02*
X24200000Y-41250000D01*
X27870000Y-41230000D02*
X26930000Y-41230000D01*
X27870000Y-39370000D02*
X27870000Y-41230000D01*
X26930000Y-41230000D02*
X26930000Y-39370000D01*
X26930000Y-39370000D02*
X27870000Y-39370000D01*
X34170000Y-38070000D02*
X34170000Y-37130000D01*
X36030000Y-38070000D02*
X34170000Y-38070000D01*
X36030000Y-37130000D02*
X36030000Y-38070000D01*
X34170000Y-37130000D02*
X36030000Y-37130000D01*
X26080000Y-32630000D02*
X26080000Y-33570000D01*
X24220000Y-33570000D02*
X24220000Y-32630000D01*
X24220000Y-32630000D02*
X26080000Y-32630000D01*
X26080000Y-33570000D02*
X24220000Y-33570000D01*
X26080000Y-34770000D02*
X24220000Y-34770000D01*
X24220000Y-34770000D02*
X24220000Y-33830000D01*
X26080000Y-33830000D02*
X26080000Y-34770000D01*
X24220000Y-33830000D02*
X26080000Y-33830000D01*
X30580000Y-36970000D02*
X31520000Y-36970000D01*
X31520000Y-38830000D02*
X30580000Y-38830000D01*
X30580000Y-38830000D02*
X30580000Y-36970000D01*
X31520000Y-36970000D02*
X31520000Y-38830000D01*
X35670000Y-41170000D02*
X35670000Y-43030000D01*
X34730000Y-41170000D02*
X35670000Y-41170000D01*
X34730000Y-43030000D02*
X34730000Y-41170000D01*
X35670000Y-43030000D02*
X34730000Y-43030000D01*
X32080000Y-51480000D02*
X32080000Y-49620000D01*
X33020000Y-51480000D02*
X32080000Y-51480000D01*
X32080000Y-49620000D02*
X33020000Y-49620000D01*
X33020000Y-49620000D02*
X33020000Y-51480000D01*
X26230000Y-46530000D02*
X26230000Y-47470000D01*
X24370000Y-46530000D02*
X26230000Y-46530000D01*
X26230000Y-47470000D02*
X24370000Y-47470000D01*
X24370000Y-47470000D02*
X24370000Y-46530000D01*
X32980000Y-37620000D02*
X33920000Y-37620000D01*
X33920000Y-37620000D02*
X33920000Y-39480000D01*
X32980000Y-39480000D02*
X32980000Y-37620000D01*
X33920000Y-39480000D02*
X32980000Y-39480000D01*
M02*
