G04 #@! TF.GenerationSoftware,KiCad,Pcbnew,(5.99.0-11424-g2f41dd4074)*
G04 #@! TF.CreationDate,2021-09-18T21:26:06+03:00*
G04 #@! TF.ProjectId,goldfish,676f6c64-6669-4736-982e-6b696361645f,C*
G04 #@! TF.SameCoordinates,Original*
G04 #@! TF.FileFunction,AssemblyDrawing,Top*
%FSLAX46Y46*%
G04 Gerber Fmt 4.6, Leading zero omitted, Abs format (unit mm)*
G04 Created by KiCad (PCBNEW (5.99.0-11424-g2f41dd4074)) date 2021-09-18 21:26:06*
%MOMM*%
%LPD*%
G01*
G04 APERTURE LIST*
%ADD10C,0.150000*%
%ADD11C,0.100000*%
G04 APERTURE END LIST*
D10*
X30642084Y-51522892D02*
X30305366Y-51186174D01*
X30911458Y-51388205D02*
X29968649Y-51859609D01*
X30440053Y-50916800D01*
X29598259Y-51489220D02*
X29194198Y-51085159D01*
X30103336Y-50580082D02*
X29396229Y-51287189D01*
X29665603Y-50142350D02*
X29194198Y-50613754D01*
X29261542Y-50546411D02*
X29194198Y-50546411D01*
X29093183Y-50512739D01*
X28992168Y-50411724D01*
X28958496Y-50310708D01*
X28992168Y-50209693D01*
X29362557Y-49839304D01*
X28992168Y-50209693D02*
X28891153Y-50243365D01*
X28790137Y-50209693D01*
X28689122Y-50108678D01*
X28655450Y-50007663D01*
X28689122Y-49906647D01*
X29059511Y-49536258D01*
X28419748Y-48963838D02*
X28520763Y-48997510D01*
X28655450Y-49132197D01*
X28689122Y-49233212D01*
X28655450Y-49334228D01*
X28386076Y-49603602D01*
X28285061Y-49637273D01*
X28184046Y-49603602D01*
X28049359Y-49468915D01*
X28015687Y-49367899D01*
X28049359Y-49266884D01*
X28116702Y-49199541D01*
X28520763Y-49468915D01*
X27342252Y-48761808D02*
X27914672Y-48189388D01*
X28015687Y-48155716D01*
X28083031Y-48155716D01*
X28184046Y-48189388D01*
X28285061Y-48290403D01*
X28318733Y-48391419D01*
X27779985Y-48324075D02*
X27881000Y-48357747D01*
X28015687Y-48492434D01*
X28049359Y-48593449D01*
X28049359Y-48660793D01*
X28015687Y-48761808D01*
X27813657Y-48963838D01*
X27712641Y-48997510D01*
X27645298Y-48997510D01*
X27544283Y-48963838D01*
X27409596Y-48829151D01*
X27375924Y-48728136D01*
X27173893Y-47650640D02*
X26803504Y-48021029D01*
X26769832Y-48122045D01*
X26803504Y-48223060D01*
X26938191Y-48357747D01*
X27039206Y-48391419D01*
X27140222Y-47684312D02*
X27241237Y-47717984D01*
X27409596Y-47886342D01*
X27443267Y-47987358D01*
X27409596Y-48088373D01*
X27342252Y-48155716D01*
X27241237Y-48189388D01*
X27140222Y-48155716D01*
X26971863Y-47987358D01*
X26870848Y-47953686D01*
X26197413Y-48088373D02*
X25759680Y-47650640D01*
X26264756Y-47616968D01*
X26163741Y-47515953D01*
X26130069Y-47414938D01*
X26130069Y-47347594D01*
X26163741Y-47246579D01*
X26332100Y-47078220D01*
X26433115Y-47044549D01*
X26500458Y-47044549D01*
X26601474Y-47078220D01*
X26803504Y-47280251D01*
X26837176Y-47381266D01*
X26837176Y-47448610D01*
X25557649Y-47313923D02*
X25490306Y-47313923D01*
X25389291Y-47280251D01*
X25220932Y-47111892D01*
X25187260Y-47010877D01*
X25187260Y-46943533D01*
X25220932Y-46842518D01*
X25288275Y-46775175D01*
X25422962Y-46707831D01*
X26231084Y-46707831D01*
X25793352Y-46270098D01*
X24783199Y-46674159D02*
X25355619Y-46101740D01*
X25389291Y-46000724D01*
X25389291Y-45933381D01*
X25355619Y-45832366D01*
X25220932Y-45697679D01*
X25119917Y-45664007D01*
X25052573Y-45664007D01*
X24951558Y-45697679D01*
X24379138Y-46270098D01*
X23975077Y-45394633D02*
X24446481Y-44923228D01*
X23874062Y-45832366D02*
X24547497Y-45495648D01*
X24109764Y-45057915D01*
X30851522Y-45925973D02*
X31423942Y-45353553D01*
X31457614Y-45252538D01*
X31457614Y-45185194D01*
X31423942Y-45084179D01*
X31289255Y-44949492D01*
X31188240Y-44915820D01*
X31120896Y-44915820D01*
X31019881Y-44949492D01*
X30447461Y-45521912D01*
X30447461Y-44107698D02*
X30851522Y-44511759D01*
X30649492Y-44309729D02*
X29942385Y-45016835D01*
X30110744Y-44983164D01*
X30245431Y-44983164D01*
X30346446Y-45016835D01*
X24328571Y-49008095D02*
X24366666Y-48970000D01*
X24442857Y-48931904D01*
X24633333Y-48931904D01*
X24709523Y-48970000D01*
X24747619Y-49008095D01*
X24785714Y-49084285D01*
X24785714Y-49160476D01*
X24747619Y-49274761D01*
X24290476Y-49731904D01*
X24785714Y-49731904D01*
X25090476Y-49008095D02*
X25128571Y-48970000D01*
X25204761Y-48931904D01*
X25395238Y-48931904D01*
X25471428Y-48970000D01*
X25509523Y-49008095D01*
X25547619Y-49084285D01*
X25547619Y-49160476D01*
X25509523Y-49274761D01*
X25052380Y-49731904D01*
X25547619Y-49731904D01*
X25890476Y-49198571D02*
X25890476Y-49998571D01*
X25890476Y-49236666D02*
X25966666Y-49198571D01*
X26119047Y-49198571D01*
X26195238Y-49236666D01*
X26233333Y-49274761D01*
X26271428Y-49350952D01*
X26271428Y-49579523D01*
X26233333Y-49655714D01*
X26195238Y-49693809D01*
X26119047Y-49731904D01*
X25966666Y-49731904D01*
X25890476Y-49693809D01*
X25133333Y-48557142D02*
X25085714Y-48604761D01*
X24942857Y-48652380D01*
X24847619Y-48652380D01*
X24704761Y-48604761D01*
X24609523Y-48509523D01*
X24561904Y-48414285D01*
X24514285Y-48223809D01*
X24514285Y-48080952D01*
X24561904Y-47890476D01*
X24609523Y-47795238D01*
X24704761Y-47700000D01*
X24847619Y-47652380D01*
X24942857Y-47652380D01*
X25085714Y-47700000D01*
X25133333Y-47747619D01*
X25704761Y-48080952D02*
X25609523Y-48033333D01*
X25561904Y-47985714D01*
X25514285Y-47890476D01*
X25514285Y-47842857D01*
X25561904Y-47747619D01*
X25609523Y-47700000D01*
X25704761Y-47652380D01*
X25895238Y-47652380D01*
X25990476Y-47700000D01*
X26038095Y-47747619D01*
X26085714Y-47842857D01*
X26085714Y-47890476D01*
X26038095Y-47985714D01*
X25990476Y-48033333D01*
X25895238Y-48080952D01*
X25704761Y-48080952D01*
X25609523Y-48128571D01*
X25561904Y-48176190D01*
X25514285Y-48271428D01*
X25514285Y-48461904D01*
X25561904Y-48557142D01*
X25609523Y-48604761D01*
X25704761Y-48652380D01*
X25895238Y-48652380D01*
X25990476Y-48604761D01*
X26038095Y-48557142D01*
X26085714Y-48461904D01*
X26085714Y-48271428D01*
X26038095Y-48176190D01*
X25990476Y-48128571D01*
X25895238Y-48080952D01*
X29108095Y-52971428D02*
X29070000Y-52933333D01*
X29031904Y-52857142D01*
X29031904Y-52666666D01*
X29070000Y-52590476D01*
X29108095Y-52552380D01*
X29184285Y-52514285D01*
X29260476Y-52514285D01*
X29374761Y-52552380D01*
X29831904Y-53009523D01*
X29831904Y-52514285D01*
X29108095Y-52209523D02*
X29070000Y-52171428D01*
X29031904Y-52095238D01*
X29031904Y-51904761D01*
X29070000Y-51828571D01*
X29108095Y-51790476D01*
X29184285Y-51752380D01*
X29260476Y-51752380D01*
X29374761Y-51790476D01*
X29831904Y-52247619D01*
X29831904Y-51752380D01*
X29298571Y-51409523D02*
X30098571Y-51409523D01*
X29336666Y-51409523D02*
X29298571Y-51333333D01*
X29298571Y-51180952D01*
X29336666Y-51104761D01*
X29374761Y-51066666D01*
X29450952Y-51028571D01*
X29679523Y-51028571D01*
X29755714Y-51066666D01*
X29793809Y-51104761D01*
X29831904Y-51180952D01*
X29831904Y-51333333D01*
X29793809Y-51409523D01*
X28657142Y-52166666D02*
X28704761Y-52214285D01*
X28752380Y-52357142D01*
X28752380Y-52452380D01*
X28704761Y-52595238D01*
X28609523Y-52690476D01*
X28514285Y-52738095D01*
X28323809Y-52785714D01*
X28180952Y-52785714D01*
X27990476Y-52738095D01*
X27895238Y-52690476D01*
X27800000Y-52595238D01*
X27752380Y-52452380D01*
X27752380Y-52357142D01*
X27800000Y-52214285D01*
X27847619Y-52166666D01*
X27752380Y-51833333D02*
X27752380Y-51166666D01*
X28752380Y-51595238D01*
X28711904Y-52352380D02*
X28711904Y-52809523D01*
X28711904Y-52580952D02*
X27911904Y-52580952D01*
X28026190Y-52657142D01*
X28102380Y-52733333D01*
X28140476Y-52809523D01*
X27911904Y-51666666D02*
X27911904Y-51819047D01*
X27950000Y-51895238D01*
X27988095Y-51933333D01*
X28102380Y-52009523D01*
X28254761Y-52047619D01*
X28559523Y-52047619D01*
X28635714Y-52009523D01*
X28673809Y-51971428D01*
X28711904Y-51895238D01*
X28711904Y-51742857D01*
X28673809Y-51666666D01*
X28635714Y-51628571D01*
X28559523Y-51590476D01*
X28369047Y-51590476D01*
X28292857Y-51628571D01*
X28254761Y-51666666D01*
X28216666Y-51742857D01*
X28216666Y-51895238D01*
X28254761Y-51971428D01*
X28292857Y-52009523D01*
X28369047Y-52047619D01*
X28711904Y-51247619D02*
X27911904Y-51247619D01*
X28483333Y-50980952D01*
X27911904Y-50714285D01*
X28711904Y-50714285D01*
X28711904Y-50333333D02*
X27911904Y-50333333D01*
X28292857Y-50333333D02*
X28292857Y-49876190D01*
X28711904Y-49876190D02*
X27911904Y-49876190D01*
X28178571Y-49571428D02*
X28178571Y-49152380D01*
X28711904Y-49571428D01*
X28711904Y-49152380D01*
X25352380Y-51809523D02*
X26352380Y-51142857D01*
X25352380Y-51142857D02*
X26352380Y-51809523D01*
X26352380Y-50238095D02*
X26352380Y-50809523D01*
X26352380Y-50523809D02*
X25352380Y-50523809D01*
X25495238Y-50619047D01*
X25590476Y-50714285D01*
X25638095Y-50809523D01*
X29458095Y-38459523D02*
X29420000Y-38421428D01*
X29381904Y-38345238D01*
X29381904Y-38154761D01*
X29420000Y-38078571D01*
X29458095Y-38040476D01*
X29534285Y-38002380D01*
X29610476Y-38002380D01*
X29724761Y-38040476D01*
X30181904Y-38497619D01*
X30181904Y-38002380D01*
X29458095Y-37697619D02*
X29420000Y-37659523D01*
X29381904Y-37583333D01*
X29381904Y-37392857D01*
X29420000Y-37316666D01*
X29458095Y-37278571D01*
X29534285Y-37240476D01*
X29610476Y-37240476D01*
X29724761Y-37278571D01*
X30181904Y-37735714D01*
X30181904Y-37240476D01*
X28483333Y-38302380D02*
X28150000Y-37826190D01*
X27911904Y-38302380D02*
X27911904Y-37302380D01*
X28292857Y-37302380D01*
X28388095Y-37350000D01*
X28435714Y-37397619D01*
X28483333Y-37492857D01*
X28483333Y-37635714D01*
X28435714Y-37730952D01*
X28388095Y-37778571D01*
X28292857Y-37826190D01*
X27911904Y-37826190D01*
X29340476Y-37635714D02*
X29340476Y-38302380D01*
X29102380Y-37254761D02*
X28864285Y-37969047D01*
X29483333Y-37969047D01*
X30658095Y-39109523D02*
X30620000Y-39071428D01*
X30581904Y-38995238D01*
X30581904Y-38804761D01*
X30620000Y-38728571D01*
X30658095Y-38690476D01*
X30734285Y-38652380D01*
X30810476Y-38652380D01*
X30924761Y-38690476D01*
X31381904Y-39147619D01*
X31381904Y-38652380D01*
X30658095Y-38347619D02*
X30620000Y-38309523D01*
X30581904Y-38233333D01*
X30581904Y-38042857D01*
X30620000Y-37966666D01*
X30658095Y-37928571D01*
X30734285Y-37890476D01*
X30810476Y-37890476D01*
X30924761Y-37928571D01*
X31381904Y-38385714D01*
X31381904Y-37890476D01*
X30302380Y-38666666D02*
X29826190Y-39000000D01*
X30302380Y-39238095D02*
X29302380Y-39238095D01*
X29302380Y-38857142D01*
X29350000Y-38761904D01*
X29397619Y-38714285D01*
X29492857Y-38666666D01*
X29635714Y-38666666D01*
X29730952Y-38714285D01*
X29778571Y-38761904D01*
X29826190Y-38857142D01*
X29826190Y-39238095D01*
X29302380Y-37761904D02*
X29302380Y-38238095D01*
X29778571Y-38285714D01*
X29730952Y-38238095D01*
X29683333Y-38142857D01*
X29683333Y-37904761D01*
X29730952Y-37809523D01*
X29778571Y-37761904D01*
X29873809Y-37714285D01*
X30111904Y-37714285D01*
X30207142Y-37761904D01*
X30254761Y-37809523D01*
X30302380Y-37904761D01*
X30302380Y-38142857D01*
X30254761Y-38238095D01*
X30207142Y-38285714D01*
X24673809Y-37031904D02*
X24216666Y-37031904D01*
X24445238Y-37031904D02*
X24445238Y-36231904D01*
X24369047Y-36346190D01*
X24292857Y-36422380D01*
X24216666Y-36460476D01*
X25169047Y-36231904D02*
X25245238Y-36231904D01*
X25321428Y-36270000D01*
X25359523Y-36308095D01*
X25397619Y-36384285D01*
X25435714Y-36536666D01*
X25435714Y-36727142D01*
X25397619Y-36879523D01*
X25359523Y-36955714D01*
X25321428Y-36993809D01*
X25245238Y-37031904D01*
X25169047Y-37031904D01*
X25092857Y-36993809D01*
X25054761Y-36955714D01*
X25016666Y-36879523D01*
X24978571Y-36727142D01*
X24978571Y-36536666D01*
X25016666Y-36384285D01*
X25054761Y-36308095D01*
X25092857Y-36270000D01*
X25169047Y-36231904D01*
X25778571Y-37031904D02*
X25778571Y-36231904D01*
X25854761Y-36727142D02*
X26083333Y-37031904D01*
X26083333Y-36498571D02*
X25778571Y-36803333D01*
X24983333Y-35952380D02*
X24650000Y-35476190D01*
X24411904Y-35952380D02*
X24411904Y-34952380D01*
X24792857Y-34952380D01*
X24888095Y-35000000D01*
X24935714Y-35047619D01*
X24983333Y-35142857D01*
X24983333Y-35285714D01*
X24935714Y-35380952D01*
X24888095Y-35428571D01*
X24792857Y-35476190D01*
X24411904Y-35476190D01*
X25840476Y-34952380D02*
X25650000Y-34952380D01*
X25554761Y-35000000D01*
X25507142Y-35047619D01*
X25411904Y-35190476D01*
X25364285Y-35380952D01*
X25364285Y-35761904D01*
X25411904Y-35857142D01*
X25459523Y-35904761D01*
X25554761Y-35952380D01*
X25745238Y-35952380D01*
X25840476Y-35904761D01*
X25888095Y-35857142D01*
X25935714Y-35761904D01*
X25935714Y-35523809D01*
X25888095Y-35428571D01*
X25840476Y-35380952D01*
X25745238Y-35333333D01*
X25554761Y-35333333D01*
X25459523Y-35380952D01*
X25411904Y-35428571D01*
X25364285Y-35523809D01*
X28981904Y-38233333D02*
X28981904Y-38690476D01*
X28981904Y-38461904D02*
X28181904Y-38461904D01*
X28296190Y-38538095D01*
X28372380Y-38614285D01*
X28410476Y-38690476D01*
X28448571Y-37547619D02*
X28981904Y-37547619D01*
X28448571Y-37890476D02*
X28867619Y-37890476D01*
X28943809Y-37852380D01*
X28981904Y-37776190D01*
X28981904Y-37661904D01*
X28943809Y-37585714D01*
X28905714Y-37547619D01*
X27807142Y-38266666D02*
X27854761Y-38314285D01*
X27902380Y-38457142D01*
X27902380Y-38552380D01*
X27854761Y-38695238D01*
X27759523Y-38790476D01*
X27664285Y-38838095D01*
X27473809Y-38885714D01*
X27330952Y-38885714D01*
X27140476Y-38838095D01*
X27045238Y-38790476D01*
X26950000Y-38695238D01*
X26902380Y-38552380D01*
X26902380Y-38457142D01*
X26950000Y-38314285D01*
X26997619Y-38266666D01*
X27902380Y-37790476D02*
X27902380Y-37600000D01*
X27854761Y-37504761D01*
X27807142Y-37457142D01*
X27664285Y-37361904D01*
X27473809Y-37314285D01*
X27092857Y-37314285D01*
X26997619Y-37361904D01*
X26950000Y-37409523D01*
X26902380Y-37504761D01*
X26902380Y-37695238D01*
X26950000Y-37790476D01*
X26997619Y-37838095D01*
X27092857Y-37885714D01*
X27330952Y-37885714D01*
X27426190Y-37838095D01*
X27473809Y-37790476D01*
X27521428Y-37695238D01*
X27521428Y-37504761D01*
X27473809Y-37409523D01*
X27426190Y-37361904D01*
X27330952Y-37314285D01*
X32981904Y-39530952D02*
X32981904Y-39454761D01*
X33020000Y-39378571D01*
X33058095Y-39340476D01*
X33134285Y-39302380D01*
X33286666Y-39264285D01*
X33477142Y-39264285D01*
X33629523Y-39302380D01*
X33705714Y-39340476D01*
X33743809Y-39378571D01*
X33781904Y-39454761D01*
X33781904Y-39530952D01*
X33743809Y-39607142D01*
X33705714Y-39645238D01*
X33629523Y-39683333D01*
X33477142Y-39721428D01*
X33286666Y-39721428D01*
X33134285Y-39683333D01*
X33058095Y-39645238D01*
X33020000Y-39607142D01*
X32981904Y-39530952D01*
X33248571Y-38578571D02*
X33781904Y-38578571D01*
X33248571Y-38921428D02*
X33667619Y-38921428D01*
X33743809Y-38883333D01*
X33781904Y-38807142D01*
X33781904Y-38692857D01*
X33743809Y-38616666D01*
X33705714Y-38578571D01*
X33781904Y-37778571D02*
X33781904Y-38235714D01*
X33781904Y-38007142D02*
X32981904Y-38007142D01*
X33096190Y-38083333D01*
X33172380Y-38159523D01*
X33210476Y-38235714D01*
X32607142Y-38916666D02*
X32654761Y-38964285D01*
X32702380Y-39107142D01*
X32702380Y-39202380D01*
X32654761Y-39345238D01*
X32559523Y-39440476D01*
X32464285Y-39488095D01*
X32273809Y-39535714D01*
X32130952Y-39535714D01*
X31940476Y-39488095D01*
X31845238Y-39440476D01*
X31750000Y-39345238D01*
X31702380Y-39202380D01*
X31702380Y-39107142D01*
X31750000Y-38964285D01*
X31797619Y-38916666D01*
X32035714Y-38059523D02*
X32702380Y-38059523D01*
X31654761Y-38297619D02*
X32369047Y-38535714D01*
X32369047Y-37916666D01*
X28361904Y-41797619D02*
X27561904Y-41797619D01*
X27561904Y-41607142D01*
X27600000Y-41492857D01*
X27676190Y-41416666D01*
X27752380Y-41378571D01*
X27904761Y-41340476D01*
X28019047Y-41340476D01*
X28171428Y-41378571D01*
X28247619Y-41416666D01*
X28323809Y-41492857D01*
X28361904Y-41607142D01*
X28361904Y-41797619D01*
X28438095Y-41188095D02*
X28438095Y-40578571D01*
X28323809Y-40426190D02*
X28361904Y-40311904D01*
X28361904Y-40121428D01*
X28323809Y-40045238D01*
X28285714Y-40007142D01*
X28209523Y-39969047D01*
X28133333Y-39969047D01*
X28057142Y-40007142D01*
X28019047Y-40045238D01*
X27980952Y-40121428D01*
X27942857Y-40273809D01*
X27904761Y-40350000D01*
X27866666Y-40388095D01*
X27790476Y-40426190D01*
X27714285Y-40426190D01*
X27638095Y-40388095D01*
X27600000Y-40350000D01*
X27561904Y-40273809D01*
X27561904Y-40083333D01*
X27600000Y-39969047D01*
X28323809Y-39283333D02*
X28361904Y-39359523D01*
X28361904Y-39511904D01*
X28323809Y-39588095D01*
X28285714Y-39626190D01*
X28209523Y-39664285D01*
X27980952Y-39664285D01*
X27904761Y-39626190D01*
X27866666Y-39588095D01*
X27828571Y-39511904D01*
X27828571Y-39359523D01*
X27866666Y-39283333D01*
X28361904Y-38940476D02*
X27561904Y-38940476D01*
X28361904Y-38597619D02*
X27942857Y-38597619D01*
X27866666Y-38635714D01*
X27828571Y-38711904D01*
X27828571Y-38826190D01*
X27866666Y-38902380D01*
X27904761Y-38940476D01*
X28361904Y-38102380D02*
X28323809Y-38178571D01*
X28285714Y-38216666D01*
X28209523Y-38254761D01*
X27980952Y-38254761D01*
X27904761Y-38216666D01*
X27866666Y-38178571D01*
X27828571Y-38102380D01*
X27828571Y-37988095D01*
X27866666Y-37911904D01*
X27904761Y-37873809D01*
X27980952Y-37835714D01*
X28209523Y-37835714D01*
X28285714Y-37873809D01*
X28323809Y-37911904D01*
X28361904Y-37988095D01*
X28361904Y-38102380D01*
X27828571Y-37607142D02*
X27828571Y-37302380D01*
X27561904Y-37492857D02*
X28247619Y-37492857D01*
X28323809Y-37454761D01*
X28361904Y-37378571D01*
X28361904Y-37302380D01*
X27828571Y-37150000D02*
X27828571Y-36845238D01*
X27561904Y-37035714D02*
X28247619Y-37035714D01*
X28323809Y-36997619D01*
X28361904Y-36921428D01*
X28361904Y-36845238D01*
X28361904Y-36578571D02*
X27561904Y-36578571D01*
X28057142Y-36502380D02*
X28361904Y-36273809D01*
X27828571Y-36273809D02*
X28133333Y-36578571D01*
X27828571Y-36007142D02*
X28361904Y-35816666D01*
X27828571Y-35626190D02*
X28361904Y-35816666D01*
X28552380Y-35892857D01*
X28590476Y-35930952D01*
X28628571Y-36007142D01*
X23952380Y-39488095D02*
X22952380Y-39488095D01*
X22952380Y-39250000D01*
X23000000Y-39107142D01*
X23095238Y-39011904D01*
X23190476Y-38964285D01*
X23380952Y-38916666D01*
X23523809Y-38916666D01*
X23714285Y-38964285D01*
X23809523Y-39011904D01*
X23904761Y-39107142D01*
X23952380Y-39250000D01*
X23952380Y-39488095D01*
X23952380Y-37964285D02*
X23952380Y-38535714D01*
X23952380Y-38250000D02*
X22952380Y-38250000D01*
X23095238Y-38345238D01*
X23190476Y-38440476D01*
X23238095Y-38535714D01*
X28398571Y-40890476D02*
X28931904Y-40890476D01*
X28093809Y-41080952D02*
X28665238Y-41271428D01*
X28665238Y-40776190D01*
X28398571Y-40128571D02*
X28931904Y-40128571D01*
X28398571Y-40471428D02*
X28817619Y-40471428D01*
X28893809Y-40433333D01*
X28931904Y-40357142D01*
X28931904Y-40242857D01*
X28893809Y-40166666D01*
X28855714Y-40128571D01*
X28131904Y-39823809D02*
X28131904Y-39290476D01*
X28931904Y-39633333D01*
X27757142Y-40466666D02*
X27804761Y-40514285D01*
X27852380Y-40657142D01*
X27852380Y-40752380D01*
X27804761Y-40895238D01*
X27709523Y-40990476D01*
X27614285Y-41038095D01*
X27423809Y-41085714D01*
X27280952Y-41085714D01*
X27090476Y-41038095D01*
X26995238Y-40990476D01*
X26900000Y-40895238D01*
X26852380Y-40752380D01*
X26852380Y-40657142D01*
X26900000Y-40514285D01*
X26947619Y-40466666D01*
X26852380Y-39609523D02*
X26852380Y-39800000D01*
X26900000Y-39895238D01*
X26947619Y-39942857D01*
X27090476Y-40038095D01*
X27280952Y-40085714D01*
X27661904Y-40085714D01*
X27757142Y-40038095D01*
X27804761Y-39990476D01*
X27852380Y-39895238D01*
X27852380Y-39704761D01*
X27804761Y-39609523D01*
X27757142Y-39561904D01*
X27661904Y-39514285D01*
X27423809Y-39514285D01*
X27328571Y-39561904D01*
X27280952Y-39609523D01*
X27233333Y-39704761D01*
X27233333Y-39895238D01*
X27280952Y-39990476D01*
X27328571Y-40038095D01*
X27423809Y-40085714D01*
X34623809Y-39131904D02*
X34166666Y-39131904D01*
X34395238Y-39131904D02*
X34395238Y-38331904D01*
X34319047Y-38446190D01*
X34242857Y-38522380D01*
X34166666Y-38560476D01*
X35119047Y-38331904D02*
X35195238Y-38331904D01*
X35271428Y-38370000D01*
X35309523Y-38408095D01*
X35347619Y-38484285D01*
X35385714Y-38636666D01*
X35385714Y-38827142D01*
X35347619Y-38979523D01*
X35309523Y-39055714D01*
X35271428Y-39093809D01*
X35195238Y-39131904D01*
X35119047Y-39131904D01*
X35042857Y-39093809D01*
X35004761Y-39055714D01*
X34966666Y-38979523D01*
X34928571Y-38827142D01*
X34928571Y-38636666D01*
X34966666Y-38484285D01*
X35004761Y-38408095D01*
X35042857Y-38370000D01*
X35119047Y-38331904D01*
X35728571Y-39131904D02*
X35728571Y-38331904D01*
X35804761Y-38827142D02*
X36033333Y-39131904D01*
X36033333Y-38598571D02*
X35728571Y-38903333D01*
X34933333Y-38052380D02*
X34600000Y-37576190D01*
X34361904Y-38052380D02*
X34361904Y-37052380D01*
X34742857Y-37052380D01*
X34838095Y-37100000D01*
X34885714Y-37147619D01*
X34933333Y-37242857D01*
X34933333Y-37385714D01*
X34885714Y-37480952D01*
X34838095Y-37528571D01*
X34742857Y-37576190D01*
X34361904Y-37576190D01*
X35266666Y-37052380D02*
X35885714Y-37052380D01*
X35552380Y-37433333D01*
X35695238Y-37433333D01*
X35790476Y-37480952D01*
X35838095Y-37528571D01*
X35885714Y-37623809D01*
X35885714Y-37861904D01*
X35838095Y-37957142D01*
X35790476Y-38004761D01*
X35695238Y-38052380D01*
X35409523Y-38052380D01*
X35314285Y-38004761D01*
X35266666Y-37957142D01*
X38451904Y-25394761D02*
X39099523Y-25394761D01*
X39175714Y-25356666D01*
X39213809Y-25318571D01*
X39251904Y-25242380D01*
X39251904Y-25090000D01*
X39213809Y-25013809D01*
X39175714Y-24975714D01*
X39099523Y-24937619D01*
X38451904Y-24937619D01*
X39213809Y-24594761D02*
X39251904Y-24480476D01*
X39251904Y-24290000D01*
X39213809Y-24213809D01*
X39175714Y-24175714D01*
X39099523Y-24137619D01*
X39023333Y-24137619D01*
X38947142Y-24175714D01*
X38909047Y-24213809D01*
X38870952Y-24290000D01*
X38832857Y-24442380D01*
X38794761Y-24518571D01*
X38756666Y-24556666D01*
X38680476Y-24594761D01*
X38604285Y-24594761D01*
X38528095Y-24556666D01*
X38490000Y-24518571D01*
X38451904Y-24442380D01*
X38451904Y-24251904D01*
X38490000Y-24137619D01*
X38832857Y-23528095D02*
X38870952Y-23413809D01*
X38909047Y-23375714D01*
X38985238Y-23337619D01*
X39099523Y-23337619D01*
X39175714Y-23375714D01*
X39213809Y-23413809D01*
X39251904Y-23490000D01*
X39251904Y-23794761D01*
X38451904Y-23794761D01*
X38451904Y-23528095D01*
X38490000Y-23451904D01*
X38528095Y-23413809D01*
X38604285Y-23375714D01*
X38680476Y-23375714D01*
X38756666Y-23413809D01*
X38794761Y-23451904D01*
X38832857Y-23528095D01*
X38832857Y-23794761D01*
X38947142Y-22994761D02*
X38947142Y-22385238D01*
X39175714Y-21547142D02*
X39213809Y-21585238D01*
X39251904Y-21699523D01*
X39251904Y-21775714D01*
X39213809Y-21890000D01*
X39137619Y-21966190D01*
X39061428Y-22004285D01*
X38909047Y-22042380D01*
X38794761Y-22042380D01*
X38642380Y-22004285D01*
X38566190Y-21966190D01*
X38490000Y-21890000D01*
X38451904Y-21775714D01*
X38451904Y-21699523D01*
X38490000Y-21585238D01*
X38528095Y-21547142D01*
X24635714Y-33831904D02*
X24254761Y-33831904D01*
X24216666Y-34212857D01*
X24254761Y-34174761D01*
X24330952Y-34136666D01*
X24521428Y-34136666D01*
X24597619Y-34174761D01*
X24635714Y-34212857D01*
X24673809Y-34289047D01*
X24673809Y-34479523D01*
X24635714Y-34555714D01*
X24597619Y-34593809D01*
X24521428Y-34631904D01*
X24330952Y-34631904D01*
X24254761Y-34593809D01*
X24216666Y-34555714D01*
X25016666Y-34631904D02*
X25016666Y-33831904D01*
X25092857Y-34327142D02*
X25321428Y-34631904D01*
X25321428Y-34098571D02*
X25016666Y-34403333D01*
X26083333Y-34631904D02*
X25626190Y-34631904D01*
X25854761Y-34631904D02*
X25854761Y-33831904D01*
X25778571Y-33946190D01*
X25702380Y-34022380D01*
X25626190Y-34060476D01*
X24983333Y-33552380D02*
X24650000Y-33076190D01*
X24411904Y-33552380D02*
X24411904Y-32552380D01*
X24792857Y-32552380D01*
X24888095Y-32600000D01*
X24935714Y-32647619D01*
X24983333Y-32742857D01*
X24983333Y-32885714D01*
X24935714Y-32980952D01*
X24888095Y-33028571D01*
X24792857Y-33076190D01*
X24411904Y-33076190D01*
X25364285Y-32647619D02*
X25411904Y-32600000D01*
X25507142Y-32552380D01*
X25745238Y-32552380D01*
X25840476Y-32600000D01*
X25888095Y-32647619D01*
X25935714Y-32742857D01*
X25935714Y-32838095D01*
X25888095Y-32980952D01*
X25316666Y-33552380D01*
X25935714Y-33552380D01*
X24635714Y-35031904D02*
X24254761Y-35031904D01*
X24216666Y-35412857D01*
X24254761Y-35374761D01*
X24330952Y-35336666D01*
X24521428Y-35336666D01*
X24597619Y-35374761D01*
X24635714Y-35412857D01*
X24673809Y-35489047D01*
X24673809Y-35679523D01*
X24635714Y-35755714D01*
X24597619Y-35793809D01*
X24521428Y-35831904D01*
X24330952Y-35831904D01*
X24254761Y-35793809D01*
X24216666Y-35755714D01*
X25016666Y-35831904D02*
X25016666Y-35031904D01*
X25092857Y-35527142D02*
X25321428Y-35831904D01*
X25321428Y-35298571D02*
X25016666Y-35603333D01*
X26083333Y-35831904D02*
X25626190Y-35831904D01*
X25854761Y-35831904D02*
X25854761Y-35031904D01*
X25778571Y-35146190D01*
X25702380Y-35222380D01*
X25626190Y-35260476D01*
X24983333Y-34752380D02*
X24650000Y-34276190D01*
X24411904Y-34752380D02*
X24411904Y-33752380D01*
X24792857Y-33752380D01*
X24888095Y-33800000D01*
X24935714Y-33847619D01*
X24983333Y-33942857D01*
X24983333Y-34085714D01*
X24935714Y-34180952D01*
X24888095Y-34228571D01*
X24792857Y-34276190D01*
X24411904Y-34276190D01*
X25935714Y-34752380D02*
X25364285Y-34752380D01*
X25650000Y-34752380D02*
X25650000Y-33752380D01*
X25554761Y-33895238D01*
X25459523Y-33990476D01*
X25364285Y-34038095D01*
X31781904Y-38680952D02*
X31781904Y-38604761D01*
X31820000Y-38528571D01*
X31858095Y-38490476D01*
X31934285Y-38452380D01*
X32086666Y-38414285D01*
X32277142Y-38414285D01*
X32429523Y-38452380D01*
X32505714Y-38490476D01*
X32543809Y-38528571D01*
X32581904Y-38604761D01*
X32581904Y-38680952D01*
X32543809Y-38757142D01*
X32505714Y-38795238D01*
X32429523Y-38833333D01*
X32277142Y-38871428D01*
X32086666Y-38871428D01*
X31934285Y-38833333D01*
X31858095Y-38795238D01*
X31820000Y-38757142D01*
X31781904Y-38680952D01*
X32048571Y-37728571D02*
X32581904Y-37728571D01*
X32048571Y-38071428D02*
X32467619Y-38071428D01*
X32543809Y-38033333D01*
X32581904Y-37957142D01*
X32581904Y-37842857D01*
X32543809Y-37766666D01*
X32505714Y-37728571D01*
X32581904Y-36928571D02*
X32581904Y-37385714D01*
X32581904Y-37157142D02*
X31781904Y-37157142D01*
X31896190Y-37233333D01*
X31972380Y-37309523D01*
X32010476Y-37385714D01*
X31407142Y-38066666D02*
X31454761Y-38114285D01*
X31502380Y-38257142D01*
X31502380Y-38352380D01*
X31454761Y-38495238D01*
X31359523Y-38590476D01*
X31264285Y-38638095D01*
X31073809Y-38685714D01*
X30930952Y-38685714D01*
X30740476Y-38638095D01*
X30645238Y-38590476D01*
X30550000Y-38495238D01*
X30502380Y-38352380D01*
X30502380Y-38257142D01*
X30550000Y-38114285D01*
X30597619Y-38066666D01*
X30502380Y-37161904D02*
X30502380Y-37638095D01*
X30978571Y-37685714D01*
X30930952Y-37638095D01*
X30883333Y-37542857D01*
X30883333Y-37304761D01*
X30930952Y-37209523D01*
X30978571Y-37161904D01*
X31073809Y-37114285D01*
X31311904Y-37114285D01*
X31407142Y-37161904D01*
X31454761Y-37209523D01*
X31502380Y-37304761D01*
X31502380Y-37542857D01*
X31454761Y-37638095D01*
X31407142Y-37685714D01*
X33591904Y-42880952D02*
X33591904Y-42804761D01*
X33630000Y-42728571D01*
X33668095Y-42690476D01*
X33744285Y-42652380D01*
X33896666Y-42614285D01*
X34087142Y-42614285D01*
X34239523Y-42652380D01*
X34315714Y-42690476D01*
X34353809Y-42728571D01*
X34391904Y-42804761D01*
X34391904Y-42880952D01*
X34353809Y-42957142D01*
X34315714Y-42995238D01*
X34239523Y-43033333D01*
X34087142Y-43071428D01*
X33896666Y-43071428D01*
X33744285Y-43033333D01*
X33668095Y-42995238D01*
X33630000Y-42957142D01*
X33591904Y-42880952D01*
X33858571Y-41928571D02*
X34391904Y-41928571D01*
X33858571Y-42271428D02*
X34277619Y-42271428D01*
X34353809Y-42233333D01*
X34391904Y-42157142D01*
X34391904Y-42042857D01*
X34353809Y-41966666D01*
X34315714Y-41928571D01*
X34391904Y-41128571D02*
X34391904Y-41585714D01*
X34391904Y-41357142D02*
X33591904Y-41357142D01*
X33706190Y-41433333D01*
X33782380Y-41509523D01*
X33820476Y-41585714D01*
X34842857Y-41933333D02*
X34795238Y-41885714D01*
X34747619Y-41742857D01*
X34747619Y-41647619D01*
X34795238Y-41504761D01*
X34890476Y-41409523D01*
X34985714Y-41361904D01*
X35176190Y-41314285D01*
X35319047Y-41314285D01*
X35509523Y-41361904D01*
X35604761Y-41409523D01*
X35700000Y-41504761D01*
X35747619Y-41647619D01*
X35747619Y-41742857D01*
X35700000Y-41885714D01*
X35652380Y-41933333D01*
X35747619Y-42266666D02*
X35747619Y-42885714D01*
X35366666Y-42552380D01*
X35366666Y-42695238D01*
X35319047Y-42790476D01*
X35271428Y-42838095D01*
X35176190Y-42885714D01*
X34938095Y-42885714D01*
X34842857Y-42838095D01*
X34795238Y-42790476D01*
X34747619Y-42695238D01*
X34747619Y-42409523D01*
X34795238Y-42314285D01*
X34842857Y-42266666D01*
X30941904Y-51330952D02*
X30941904Y-51254761D01*
X30980000Y-51178571D01*
X31018095Y-51140476D01*
X31094285Y-51102380D01*
X31246666Y-51064285D01*
X31437142Y-51064285D01*
X31589523Y-51102380D01*
X31665714Y-51140476D01*
X31703809Y-51178571D01*
X31741904Y-51254761D01*
X31741904Y-51330952D01*
X31703809Y-51407142D01*
X31665714Y-51445238D01*
X31589523Y-51483333D01*
X31437142Y-51521428D01*
X31246666Y-51521428D01*
X31094285Y-51483333D01*
X31018095Y-51445238D01*
X30980000Y-51407142D01*
X30941904Y-51330952D01*
X31208571Y-50378571D02*
X31741904Y-50378571D01*
X31208571Y-50721428D02*
X31627619Y-50721428D01*
X31703809Y-50683333D01*
X31741904Y-50607142D01*
X31741904Y-50492857D01*
X31703809Y-50416666D01*
X31665714Y-50378571D01*
X31741904Y-49578571D02*
X31741904Y-50035714D01*
X31741904Y-49807142D02*
X30941904Y-49807142D01*
X31056190Y-49883333D01*
X31132380Y-49959523D01*
X31170476Y-50035714D01*
X32192857Y-50383333D02*
X32145238Y-50335714D01*
X32097619Y-50192857D01*
X32097619Y-50097619D01*
X32145238Y-49954761D01*
X32240476Y-49859523D01*
X32335714Y-49811904D01*
X32526190Y-49764285D01*
X32669047Y-49764285D01*
X32859523Y-49811904D01*
X32954761Y-49859523D01*
X33050000Y-49954761D01*
X33097619Y-50097619D01*
X33097619Y-50192857D01*
X33050000Y-50335714D01*
X33002380Y-50383333D01*
X33002380Y-50764285D02*
X33050000Y-50811904D01*
X33097619Y-50907142D01*
X33097619Y-51145238D01*
X33050000Y-51240476D01*
X33002380Y-51288095D01*
X32907142Y-51335714D01*
X32811904Y-51335714D01*
X32669047Y-51288095D01*
X32097619Y-50716666D01*
X32097619Y-51335714D01*
X24519047Y-45391904D02*
X24595238Y-45391904D01*
X24671428Y-45430000D01*
X24709523Y-45468095D01*
X24747619Y-45544285D01*
X24785714Y-45696666D01*
X24785714Y-45887142D01*
X24747619Y-46039523D01*
X24709523Y-46115714D01*
X24671428Y-46153809D01*
X24595238Y-46191904D01*
X24519047Y-46191904D01*
X24442857Y-46153809D01*
X24404761Y-46115714D01*
X24366666Y-46039523D01*
X24328571Y-45887142D01*
X24328571Y-45696666D01*
X24366666Y-45544285D01*
X24404761Y-45468095D01*
X24442857Y-45430000D01*
X24519047Y-45391904D01*
X25471428Y-45658571D02*
X25471428Y-46191904D01*
X25128571Y-45658571D02*
X25128571Y-46077619D01*
X25166666Y-46153809D01*
X25242857Y-46191904D01*
X25357142Y-46191904D01*
X25433333Y-46153809D01*
X25471428Y-46115714D01*
X26271428Y-46191904D02*
X25814285Y-46191904D01*
X26042857Y-46191904D02*
X26042857Y-45391904D01*
X25966666Y-45506190D01*
X25890476Y-45582380D01*
X25814285Y-45620476D01*
X25466666Y-46642857D02*
X25514285Y-46595238D01*
X25657142Y-46547619D01*
X25752380Y-46547619D01*
X25895238Y-46595238D01*
X25990476Y-46690476D01*
X26038095Y-46785714D01*
X26085714Y-46976190D01*
X26085714Y-47119047D01*
X26038095Y-47309523D01*
X25990476Y-47404761D01*
X25895238Y-47500000D01*
X25752380Y-47547619D01*
X25657142Y-47547619D01*
X25514285Y-47500000D01*
X25466666Y-47452380D01*
X24514285Y-46547619D02*
X25085714Y-46547619D01*
X24800000Y-46547619D02*
X24800000Y-47547619D01*
X24895238Y-47404761D01*
X24990476Y-47309523D01*
X25085714Y-47261904D01*
X34181904Y-39330952D02*
X34181904Y-39254761D01*
X34220000Y-39178571D01*
X34258095Y-39140476D01*
X34334285Y-39102380D01*
X34486666Y-39064285D01*
X34677142Y-39064285D01*
X34829523Y-39102380D01*
X34905714Y-39140476D01*
X34943809Y-39178571D01*
X34981904Y-39254761D01*
X34981904Y-39330952D01*
X34943809Y-39407142D01*
X34905714Y-39445238D01*
X34829523Y-39483333D01*
X34677142Y-39521428D01*
X34486666Y-39521428D01*
X34334285Y-39483333D01*
X34258095Y-39445238D01*
X34220000Y-39407142D01*
X34181904Y-39330952D01*
X34448571Y-38378571D02*
X34981904Y-38378571D01*
X34448571Y-38721428D02*
X34867619Y-38721428D01*
X34943809Y-38683333D01*
X34981904Y-38607142D01*
X34981904Y-38492857D01*
X34943809Y-38416666D01*
X34905714Y-38378571D01*
X34981904Y-37578571D02*
X34981904Y-38035714D01*
X34981904Y-37807142D02*
X34181904Y-37807142D01*
X34296190Y-37883333D01*
X34372380Y-37959523D01*
X34410476Y-38035714D01*
X33807142Y-39192857D02*
X33854761Y-39240476D01*
X33902380Y-39383333D01*
X33902380Y-39478571D01*
X33854761Y-39621428D01*
X33759523Y-39716666D01*
X33664285Y-39764285D01*
X33473809Y-39811904D01*
X33330952Y-39811904D01*
X33140476Y-39764285D01*
X33045238Y-39716666D01*
X32950000Y-39621428D01*
X32902380Y-39478571D01*
X32902380Y-39383333D01*
X32950000Y-39240476D01*
X32997619Y-39192857D01*
X33902380Y-38240476D02*
X33902380Y-38811904D01*
X33902380Y-38526190D02*
X32902380Y-38526190D01*
X33045238Y-38621428D01*
X33140476Y-38716666D01*
X33188095Y-38811904D01*
X32902380Y-37621428D02*
X32902380Y-37526190D01*
X32950000Y-37430952D01*
X32997619Y-37383333D01*
X33092857Y-37335714D01*
X33283333Y-37288095D01*
X33521428Y-37288095D01*
X33711904Y-37335714D01*
X33807142Y-37383333D01*
X33854761Y-37430952D01*
X33902380Y-37526190D01*
X33902380Y-37621428D01*
X33854761Y-37716666D01*
X33807142Y-37764285D01*
X33711904Y-37811904D01*
X33521428Y-37859523D01*
X33283333Y-37859523D01*
X33092857Y-37811904D01*
X32997619Y-37764285D01*
X32950000Y-37716666D01*
X32902380Y-37621428D01*
D11*
X29992893Y-40757359D02*
X31407107Y-40757359D01*
X30700000Y-49949747D02*
X25750253Y-45000000D01*
X35649747Y-45000000D02*
X30700000Y-49949747D01*
X31407107Y-40757359D02*
X35649747Y-45000000D01*
X25750253Y-45000000D02*
X29992893Y-40757359D01*
X24800000Y-48450000D02*
X24800000Y-47950000D01*
X25800000Y-48450000D02*
X24800000Y-48450000D01*
X24800000Y-47950000D02*
X25800000Y-47950000D01*
X25800000Y-47950000D02*
X25800000Y-48450000D01*
X28050000Y-52500000D02*
X28050000Y-51500000D01*
X28550000Y-52500000D02*
X28050000Y-52500000D01*
X28550000Y-51500000D02*
X28550000Y-52500000D01*
X28050000Y-51500000D02*
X28550000Y-51500000D01*
X24750000Y-52600000D02*
X24650000Y-52500000D01*
X24650000Y-49500000D02*
X24750000Y-49400000D01*
X27050000Y-49400000D02*
X27150000Y-49500000D01*
X24650000Y-52500000D02*
X24650000Y-49500000D01*
X26150000Y-52600000D02*
X27150000Y-51600000D01*
X24750000Y-49400000D02*
X27050000Y-49400000D01*
X27050000Y-52600000D02*
X24750000Y-52600000D01*
X27150000Y-52500000D02*
X27050000Y-52600000D01*
X27150000Y-49500000D02*
X27150000Y-52500000D01*
X28900000Y-37350000D02*
X28900000Y-38350000D01*
X28400000Y-38350000D02*
X28400000Y-37350000D01*
X28400000Y-37350000D02*
X28900000Y-37350000D01*
X28900000Y-38350000D02*
X28400000Y-38350000D01*
X30100000Y-39000000D02*
X29600000Y-39000000D01*
X30100000Y-38000000D02*
X30100000Y-39000000D01*
X29600000Y-38000000D02*
X30100000Y-38000000D01*
X29600000Y-39000000D02*
X29600000Y-38000000D01*
X25650000Y-35250000D02*
X25650000Y-35750000D01*
X25650000Y-35750000D02*
X24650000Y-35750000D01*
X24650000Y-35750000D02*
X24650000Y-35250000D01*
X24650000Y-35250000D02*
X25650000Y-35250000D01*
X27700000Y-38600000D02*
X27200000Y-38600000D01*
X27200000Y-38600000D02*
X27200000Y-37600000D01*
X27200000Y-37600000D02*
X27700000Y-37600000D01*
X27700000Y-37600000D02*
X27700000Y-38600000D01*
X32500000Y-38250000D02*
X32500000Y-39250000D01*
X32500000Y-39250000D02*
X32000000Y-39250000D01*
X32000000Y-39250000D02*
X32000000Y-38250000D01*
X32000000Y-38250000D02*
X32500000Y-38250000D01*
X24600000Y-40150000D02*
X24600000Y-37350000D01*
X26000000Y-38450000D02*
X25000000Y-38450000D01*
X25000000Y-38450000D02*
X25500000Y-39250000D01*
X26400000Y-37350000D02*
X26400000Y-40150000D01*
X25500000Y-39550000D02*
X25500000Y-39250000D01*
X25500000Y-39250000D02*
X26000000Y-38450000D01*
X26400000Y-40150000D02*
X24600000Y-40150000D01*
X25500000Y-38450000D02*
X25500000Y-38050000D01*
X25500000Y-39250000D02*
X26000000Y-39250000D01*
X25500000Y-39250000D02*
X25000000Y-39250000D01*
X24600000Y-37350000D02*
X26400000Y-37350000D01*
X27650000Y-40800000D02*
X27150000Y-40800000D01*
X27150000Y-40800000D02*
X27150000Y-39800000D01*
X27650000Y-39800000D02*
X27650000Y-40800000D01*
X27150000Y-39800000D02*
X27650000Y-39800000D01*
X34600000Y-37850000D02*
X34600000Y-37350000D01*
X34600000Y-37350000D02*
X35600000Y-37350000D01*
X35600000Y-37350000D02*
X35600000Y-37850000D01*
X35600000Y-37850000D02*
X34600000Y-37850000D01*
X24650000Y-33350000D02*
X24650000Y-32850000D01*
X24650000Y-32850000D02*
X25650000Y-32850000D01*
X25650000Y-32850000D02*
X25650000Y-33350000D01*
X25650000Y-33350000D02*
X24650000Y-33350000D01*
X25650000Y-34050000D02*
X25650000Y-34550000D01*
X24650000Y-34550000D02*
X24650000Y-34050000D01*
X24650000Y-34050000D02*
X25650000Y-34050000D01*
X25650000Y-34550000D02*
X24650000Y-34550000D01*
X31300000Y-38400000D02*
X30800000Y-38400000D01*
X31300000Y-37400000D02*
X31300000Y-38400000D01*
X30800000Y-37400000D02*
X31300000Y-37400000D01*
X30800000Y-38400000D02*
X30800000Y-37400000D01*
X34950000Y-41600000D02*
X35450000Y-41600000D01*
X34950000Y-42600000D02*
X34950000Y-41600000D01*
X35450000Y-41600000D02*
X35450000Y-42600000D01*
X35450000Y-42600000D02*
X34950000Y-42600000D01*
X32800000Y-50050000D02*
X32800000Y-51050000D01*
X32800000Y-51050000D02*
X32300000Y-51050000D01*
X32300000Y-50050000D02*
X32800000Y-50050000D01*
X32300000Y-51050000D02*
X32300000Y-50050000D01*
X24800000Y-47250000D02*
X24800000Y-46750000D01*
X25800000Y-47250000D02*
X24800000Y-47250000D01*
X24800000Y-46750000D02*
X25800000Y-46750000D01*
X25800000Y-46750000D02*
X25800000Y-47250000D01*
X33200000Y-38050000D02*
X33700000Y-38050000D01*
X33200000Y-39050000D02*
X33200000Y-38050000D01*
X33700000Y-38050000D02*
X33700000Y-39050000D01*
X33700000Y-39050000D02*
X33200000Y-39050000D01*
M02*
