M48
; DRILL file {KiCad (5.99.0-11424-g2f41dd4074)} date Sat Sep 18 21:26:07 2021
; FORMAT={-:-/ absolute / metric / decimal}
; #@! TF.CreationDate,2021-09-18T21:26:07+03:00
; #@! TF.GenerationSoftware,Kicad,Pcbnew,(5.99.0-11424-g2f41dd4074)
; #@! TF.FileFunction,MixedPlating,1,2
FMAT,2
METRIC
; #@! TA.AperFunction,Plated,PTH,ViaDrill
T1C0.300
; #@! TA.AperFunction,Plated,PTH,ComponentDrill
T2C0.400
; #@! TA.AperFunction,Plated,PTH,ComponentDrill
T3C0.600
; #@! TA.AperFunction,Plated,PTH,ComponentDrill
T4C1.000
%
G90
G05
T1
X23.0Y-46.35
X24.0Y-32.6
X24.0Y-47.3
X24.0Y-48.7
X24.0Y-50.1
X24.0Y-51.5
X24.0Y-52.9
X24.35Y-37.3
X24.35Y-38.7
X24.45Y-27.7
X24.45Y-29.55
X24.95Y-36.25
X25.15Y-32.45
X25.4Y-45.0
X25.5Y-30.75
X25.75Y-42.1
X25.75Y-45.6
X25.95Y-44.6
X26.1Y-41.5
X26.25Y-33.6
X26.35Y-35.85
X26.45Y-43.2
X26.6Y-32.45
X26.66Y-40.0
X26.7Y-37.5
X26.75Y-33.1
X26.8Y-41.35
X26.9Y-42.7
X27.25Y-30.75
X27.55Y-32.45
X28.0Y-48.25
X28.15Y-48.9
X28.15Y-49.6
X28.15Y-50.8
X28.25Y-32.45
X28.4Y-36.65
X28.75Y-49.2
X28.8Y-33.4
X29.25Y-49.65
X29.25Y-50.35
X29.25Y-51.75
X29.6Y-32.7
X29.75Y-36.9
X30.25Y-32.55
X30.6Y-49.65
X30.65Y-39.1
X30.7Y-36.0
X30.9Y-40.45
X30.95Y-50.2
X30.95Y-52.2
X31.25Y-32.45
X31.3Y-34.8
X31.3Y-39.3
X31.45Y-33.5
X31.55Y-36.75
X31.8Y-50.8
X32.45Y-32.45
X32.75Y-30.75
X32.85Y-37.45
X32.85Y-48.9
X33.05Y-33.65
X33.15Y-51.75
X33.4Y-32.45
X33.45Y-49.2
X34.2Y-38.3
X34.5Y-30.75
X34.55Y-33.65
X34.65Y-36.85
X34.65Y-39.5
X34.85Y-32.45
X34.85Y-47.7
X34.85Y-51.7
X35.2Y-39.1
X35.55Y-27.7
X35.55Y-29.55
X35.65Y-43.6
X35.7Y-44.3
X35.8Y-38.35
X35.85Y-36.2
X36.0Y-33.4
X36.0Y-34.9
X36.35Y-44.55
T2
X28.0Y-30.69
X28.8Y-30.69
X29.6Y-30.69
X30.4Y-30.69
X31.2Y-30.69
X32.0Y-30.69
T4
X22.38Y-27.3
X22.38Y-29.84
X22.38Y-32.38
X22.38Y-34.92
X22.38Y-37.46
X22.38Y-40.0
X22.38Y-42.54
X22.38Y-45.08
X22.38Y-47.62
X22.38Y-50.16
X22.38Y-52.7
X22.38Y-55.24
X24.92Y-55.24
X27.46Y-34.92
X27.46Y-55.24
X30.0Y-34.92
X30.0Y-55.24
X32.54Y-55.24
X35.08Y-55.24
X37.62Y-27.3
X37.62Y-29.84
X37.62Y-32.38
X37.62Y-34.92
X37.62Y-37.46
X37.62Y-40.0
X37.62Y-42.54
X37.62Y-45.08
X37.62Y-47.62
X37.62Y-50.16
X37.62Y-52.7
X37.62Y-55.24
T3
G00X24.45Y-26.64
M15
G01X24.45Y-25.54
M16
G05
G00X24.45Y-31.69
M15
G01X24.45Y-30.59
M16
G05
G00X35.55Y-26.64
M15
G01X35.55Y-25.54
M16
G05
G00X35.55Y-31.69
M15
G01X35.55Y-30.59
M16
G05
T0
M30
